<?xml version="1.0" encoding="UTF-8"?><svg xmlns="http://www.w3.org/2000/svg" xmlns:xlink="http://www.w3.org/1999/xlink" fill-opacity="1" color-rendering="auto" color-interpolation="auto" text-rendering="auto" stroke="black" stroke-linecap="square" width="445" stroke-miterlimit="10" shape-rendering="auto" stroke-opacity="1" fill="black" stroke-dasharray="none" font-weight="normal" stroke-width="1" height="234" font-family="'Dialog'" font-style="normal" stroke-linejoin="miter" font-size="12px" stroke-dashoffset="0" image-rendering="auto">
  <!--Generated by ySVG 2.5-->
  <defs id="genericDefs"/>
  <g>
    <defs id="defs1">
      <linearGradient x1="156.625" gradientUnits="userSpaceOnUse" x2="236.625" y1="114.875" y2="142.875" id="linearGradient1" spreadMethod="reflect">
        <stop stop-opacity="1" stop-color="rgb(232,238,247)" offset="0%"/>
        <stop stop-opacity="1" stop-color="rgb(0,204,255)" offset="100%"/>
      </linearGradient>
      <linearGradient x1="220.5625" gradientUnits="userSpaceOnUse" x2="320.5625" y1="59.5" y2="99.5" id="linearGradient2" spreadMethod="reflect">
        <stop stop-opacity="1" stop-color="rgb(232,238,247)" offset="0%"/>
        <stop stop-opacity="1" stop-color="rgb(0,204,255)" offset="100%"/>
      </linearGradient>
      <linearGradient x1="214.25" gradientUnits="userSpaceOnUse" x2="294.25" y1="174.9375" y2="202.9375" id="linearGradient3" spreadMethod="reflect">
        <stop stop-opacity="1" stop-color="rgb(232,238,247)" offset="0%"/>
        <stop stop-opacity="1" stop-color="rgb(0,204,255)" offset="100%"/>
      </linearGradient>
      <linearGradient x1="99" gradientUnits="userSpaceOnUse" x2="179" y1="174.9375" y2="202.9375" id="linearGradient4" spreadMethod="reflect">
        <stop stop-opacity="1" stop-color="rgb(232,238,247)" offset="0%"/>
        <stop stop-opacity="1" stop-color="rgb(0,204,255)" offset="100%"/>
      </linearGradient>
      <linearGradient x1="34" gradientUnits="userSpaceOnUse" x2="114" y1="235" y2="263" id="linearGradient5" spreadMethod="reflect">
        <stop stop-opacity="1" stop-color="rgb(232,238,247)" offset="0%"/>
        <stop stop-opacity="1" stop-color="rgb(255,255,153)" offset="100%"/>
      </linearGradient>
      <linearGradient x1="125.5" gradientUnits="userSpaceOnUse" x2="225.5" y1="235" y2="263" id="linearGradient6" spreadMethod="reflect">
        <stop stop-opacity="1" stop-color="rgb(232,238,247)" offset="0%"/>
        <stop stop-opacity="1" stop-color="rgb(255,255,153)" offset="100%"/>
      </linearGradient>
      <linearGradient x1="237" gradientUnits="userSpaceOnUse" x2="337" y1="235" y2="263" id="linearGradient7" spreadMethod="reflect">
        <stop stop-opacity="1" stop-color="rgb(232,238,247)" offset="0%"/>
        <stop stop-opacity="1" stop-color="rgb(255,255,153)" offset="100%"/>
      </linearGradient>
      <linearGradient x1="348.5" gradientUnits="userSpaceOnUse" x2="448.5" y1="235" y2="263" id="linearGradient8" spreadMethod="reflect">
        <stop stop-opacity="1" stop-color="rgb(232,238,247)" offset="0%"/>
        <stop stop-opacity="1" stop-color="rgb(255,255,153)" offset="100%"/>
      </linearGradient>
      <linearGradient x1="304.5" gradientUnits="userSpaceOnUse" x2="384.5" y1="114.875" y2="142.875" id="linearGradient9" spreadMethod="reflect">
        <stop stop-opacity="1" stop-color="rgb(232,238,247)" offset="0%"/>
        <stop stop-opacity="1" stop-color="rgb(0,204,255)" offset="100%"/>
      </linearGradient>
      <linearGradient x1="329.5" gradientUnits="userSpaceOnUse" x2="409.5" y1="174.9375" y2="202.9375" id="linearGradient10" spreadMethod="reflect">
        <stop stop-opacity="1" stop-color="rgb(232,238,247)" offset="0%"/>
        <stop stop-opacity="1" stop-color="rgb(0,204,255)" offset="100%"/>
      </linearGradient>
      <clipPath clipPathUnits="userSpaceOnUse" id="clipPath1">
        <path d="M0 0 L445 0 L445 234 L0 234 L0 0 Z"/>
      </clipPath>
      <clipPath clipPathUnits="userSpaceOnUse" id="clipPath2">
        <path d="M19 44 L464 44 L464 278 L19 278 L19 44 Z"/>
      </clipPath>
    </defs>
    <g fill="white" text-rendering="geometricPrecision" shape-rendering="geometricPrecision" transform="translate(-19,-44)" stroke="white">
      <rect x="19" width="445" height="234" y="44" clip-path="url(#clipPath2)" stroke="none"/>
    </g>
    <g fill="url(#linearGradient1)" text-rendering="geometricPrecision" shape-rendering="geometricPrecision" transform="matrix(1,0,0,1,-19,-44)" stroke="url(#linearGradient1)">
      <path d="M166.625 114.875 L236.625 114.875 L236.625 142.875 L156.625 142.875 L156.625 124.875 Z" stroke="none" clip-path="url(#clipPath2)"/>
    </g>
    <g stroke-linecap="butt" transform="matrix(1,0,0,1,-19,-44)" fill="rgb(153,153,153)" text-rendering="geometricPrecision" shape-rendering="geometricPrecision" stroke="rgb(153,153,153)" stroke-miterlimit="1.45">
      <path fill="none" d="M166.625 114.875 L236.625 114.875 L236.625 142.875 L156.625 142.875 L156.625 124.875 Z" clip-path="url(#clipPath2)"/>
    </g>
    <g font-size="11px" stroke-linecap="butt" transform="matrix(1,0,0,1,-19,-44)" text-rendering="geometricPrecision" font-family="sans-serif" shape-rendering="geometricPrecision" stroke-miterlimit="1.45">
      <text x="176.7412" xml:space="preserve" y="132.6831" clip-path="url(#clipPath2)" stroke="none">system</text>
    </g>
    <g fill="url(#linearGradient2)" text-rendering="geometricPrecision" shape-rendering="geometricPrecision" transform="matrix(1,0,0,1,-19,-44)" stroke="url(#linearGradient2)">
      <ellipse rx="50" ry="20" clip-path="url(#clipPath2)" cx="270.5625" cy="79.5" stroke="none"/>
    </g>
    <g stroke-linecap="butt" transform="matrix(1,0,0,1,-19,-44)" fill="rgb(153,153,153)" text-rendering="geometricPrecision" shape-rendering="geometricPrecision" stroke="rgb(153,153,153)" stroke-miterlimit="1.45">
      <ellipse rx="50" fill="none" ry="20" clip-path="url(#clipPath2)" cx="270.5625" cy="79.5"/>
    </g>
    <g font-size="11px" stroke-linecap="butt" transform="matrix(1,0,0,1,-19,-44)" text-rendering="geometricPrecision" font-family="sans-serif" shape-rendering="geometricPrecision" font-weight="bold" stroke-miterlimit="1.45">
      <text x="246.5027" xml:space="preserve" y="76.9058" clip-path="url(#clipPath2)" stroke="none">GIS.lab </text>
      <text x="238.54" xml:space="preserve" y="89.7104" clip-path="url(#clipPath2)" stroke="none">repository</text>
    </g>
    <g fill="url(#linearGradient3)" text-rendering="geometricPrecision" shape-rendering="geometricPrecision" transform="matrix(1,0,0,1,-19,-44)" stroke="url(#linearGradient3)">
      <path d="M224.25 174.9375 L294.25 174.9375 L294.25 202.9375 L214.25 202.9375 L214.25 184.9375 Z" stroke="none" clip-path="url(#clipPath2)"/>
    </g>
    <g stroke-linecap="butt" transform="matrix(1,0,0,1,-19,-44)" fill="rgb(153,153,153)" text-rendering="geometricPrecision" shape-rendering="geometricPrecision" stroke="rgb(153,153,153)" stroke-miterlimit="1.45">
      <path fill="none" d="M224.25 174.9375 L294.25 174.9375 L294.25 202.9375 L214.25 202.9375 L214.25 184.9375 Z" clip-path="url(#clipPath2)"/>
    </g>
    <g font-size="11px" stroke-linecap="butt" transform="matrix(1,0,0,1,-19,-44)" text-rendering="geometricPrecision" font-family="sans-serif" shape-rendering="geometricPrecision" stroke-miterlimit="1.45">
      <text x="227.8752" xml:space="preserve" y="192.7456" clip-path="url(#clipPath2)" stroke="none">host_vars</text>
    </g>
    <g fill="url(#linearGradient4)" text-rendering="geometricPrecision" shape-rendering="geometricPrecision" transform="matrix(1,0,0,1,-19,-44)" stroke="url(#linearGradient4)">
      <path d="M109 174.9375 L179 174.9375 L179 202.9375 L99 202.9375 L99 184.9375 Z" stroke="none" clip-path="url(#clipPath2)"/>
    </g>
    <g stroke-linecap="butt" transform="matrix(1,0,0,1,-19,-44)" fill="rgb(153,153,153)" text-rendering="geometricPrecision" shape-rendering="geometricPrecision" stroke="rgb(153,153,153)" stroke-miterlimit="1.45">
      <path fill="none" d="M109 174.9375 L179 174.9375 L179 202.9375 L99 202.9375 L99 184.9375 Z" clip-path="url(#clipPath2)"/>
    </g>
    <g font-size="11px" stroke-linecap="butt" transform="matrix(1,0,0,1,-19,-44)" text-rendering="geometricPrecision" font-family="sans-serif" shape-rendering="geometricPrecision" stroke-miterlimit="1.45">
      <text x="108.4036" xml:space="preserve" y="192.7456" clip-path="url(#clipPath2)" stroke="none">group_vars</text>
    </g>
    <g fill="url(#linearGradient5)" text-rendering="geometricPrecision" shape-rendering="geometricPrecision" transform="matrix(1,0,0,1,-19,-44)" stroke="url(#linearGradient5)">
      <path d="M34 235 L114 235 L114 263 L34 263 Z" stroke="none" clip-path="url(#clipPath2)"/>
    </g>
    <g stroke-linecap="butt" transform="matrix(1,0,0,1,-19,-44)" fill="rgb(153,204,255)" text-rendering="geometricPrecision" shape-rendering="geometricPrecision" stroke="rgb(153,204,255)" stroke-miterlimit="1.45">
      <path fill="none" d="M34 235 L114 235 L114 263 L34 263 Z" clip-path="url(#clipPath2)"/>
    </g>
    <g font-size="11px" stroke-linecap="butt" transform="matrix(1,0,0,1,-19,-44)" text-rendering="geometricPrecision" font-family="sans-serif" shape-rendering="geometricPrecision" font-style="italic" stroke-miterlimit="1.45">
      <text x="67.5735" xml:space="preserve" y="252.8081" clip-path="url(#clipPath2)" stroke="none">all</text>
    </g>
    <g fill="url(#linearGradient6)" text-rendering="geometricPrecision" shape-rendering="geometricPrecision" transform="matrix(1,0,0,1,-19,-44)" stroke="url(#linearGradient6)">
      <path d="M125.5 235 L225.5 235 L225.5 263 L125.5 263 Z" stroke="none" clip-path="url(#clipPath2)"/>
    </g>
    <g stroke-linecap="butt" transform="matrix(1,0,0,1,-19,-44)" fill="rgb(153,204,255)" text-rendering="geometricPrecision" shape-rendering="geometricPrecision" stroke="rgb(153,204,255)" stroke-miterlimit="1.45">
      <path fill="none" d="M125.5 235 L225.5 235 L225.5 263 L125.5 263 Z" clip-path="url(#clipPath2)"/>
    </g>
    <g font-size="11px" stroke-linecap="butt" transform="matrix(1,0,0,1,-19,-44)" text-rendering="geometricPrecision" font-family="sans-serif" shape-rendering="geometricPrecision" font-style="italic" stroke-miterlimit="1.45">
      <text x="135.0852" xml:space="preserve" y="252.8081" clip-path="url(#clipPath2)" stroke="none">gislab_vagrant</text>
    </g>
    <g fill="url(#linearGradient7)" text-rendering="geometricPrecision" shape-rendering="geometricPrecision" transform="matrix(1,0,0,1,-19,-44)" stroke="url(#linearGradient7)">
      <path d="M237 235 L337 235 L337 263 L237 263 Z" stroke="none" clip-path="url(#clipPath2)"/>
    </g>
    <g stroke-linecap="butt" transform="matrix(1,0,0,1,-19,-44)" fill="rgb(153,204,255)" text-rendering="geometricPrecision" shape-rendering="geometricPrecision" stroke="rgb(153,204,255)" stroke-miterlimit="1.45">
      <path fill="none" d="M237 235 L337 235 L337 263 L237 263 Z" clip-path="url(#clipPath2)"/>
    </g>
    <g font-size="11px" stroke-linecap="butt" transform="matrix(1,0,0,1,-19,-44)" text-rendering="geometricPrecision" font-family="sans-serif" shape-rendering="geometricPrecision" font-style="italic" stroke-miterlimit="1.45">
      <text x="245.4224" xml:space="preserve" y="252.8081" clip-path="url(#clipPath2)" stroke="none">gislab-unit-fem</text>
    </g>
    <g fill="url(#linearGradient8)" text-rendering="geometricPrecision" shape-rendering="geometricPrecision" transform="matrix(1,0,0,1,-19,-44)" stroke="url(#linearGradient8)">
      <path d="M348.5 235 L448.5 235 L448.5 263 L348.5 263 Z" stroke="none" clip-path="url(#clipPath2)"/>
    </g>
    <g stroke-linecap="butt" transform="matrix(1,0,0,1,-19,-44)" fill="rgb(153,204,255)" text-rendering="geometricPrecision" shape-rendering="geometricPrecision" stroke="rgb(153,204,255)" stroke-miterlimit="1.45">
      <path fill="none" d="M348.5 235 L448.5 235 L448.5 263 L348.5 263 Z" clip-path="url(#clipPath2)"/>
    </g>
    <g font-size="11px" stroke-linecap="butt" transform="matrix(1,0,0,1,-19,-44)" text-rendering="geometricPrecision" font-family="sans-serif" shape-rendering="geometricPrecision" font-style="italic" stroke-miterlimit="1.45">
      <text x="393.2551" xml:space="preserve" y="252.8081" clip-path="url(#clipPath2)" stroke="none">...</text>
    </g>
    <g fill="url(#linearGradient9)" text-rendering="geometricPrecision" shape-rendering="geometricPrecision" transform="matrix(1,0,0,1,-19,-44)" stroke="url(#linearGradient9)">
      <path d="M314.5 114.875 L384.5 114.875 L384.5 142.875 L304.5 142.875 L304.5 124.875 Z" stroke="none" clip-path="url(#clipPath2)"/>
    </g>
    <g stroke-linecap="butt" transform="matrix(1,0,0,1,-19,-44)" fill="rgb(153,153,153)" text-rendering="geometricPrecision" shape-rendering="geometricPrecision" stroke="rgb(153,153,153)" stroke-miterlimit="1.45">
      <path fill="none" d="M314.5 114.875 L384.5 114.875 L384.5 142.875 L304.5 142.875 L304.5 124.875 Z" clip-path="url(#clipPath2)"/>
    </g>
    <g font-size="11px" stroke-linecap="butt" transform="matrix(1,0,0,1,-19,-44)" text-rendering="geometricPrecision" font-family="sans-serif" shape-rendering="geometricPrecision" stroke-miterlimit="1.45">
      <text x="339.2551" xml:space="preserve" y="132.6831" clip-path="url(#clipPath2)" stroke="none">...</text>
    </g>
    <g fill="url(#linearGradient10)" text-rendering="geometricPrecision" shape-rendering="geometricPrecision" transform="matrix(1,0,0,1,-19,-44)" stroke="url(#linearGradient10)">
      <path d="M339.5 174.9375 L409.5 174.9375 L409.5 202.9375 L329.5 202.9375 L329.5 184.9375 Z" stroke="none" clip-path="url(#clipPath2)"/>
    </g>
    <g stroke-linecap="butt" transform="matrix(1,0,0,1,-19,-44)" fill="rgb(153,153,153)" text-rendering="geometricPrecision" shape-rendering="geometricPrecision" stroke="rgb(153,153,153)" stroke-miterlimit="1.45">
      <path fill="none" d="M339.5 174.9375 L409.5 174.9375 L409.5 202.9375 L329.5 202.9375 L329.5 184.9375 Z" clip-path="url(#clipPath2)"/>
    </g>
    <g font-size="11px" stroke-linecap="butt" transform="matrix(1,0,0,1,-19,-44)" text-rendering="geometricPrecision" font-family="sans-serif" shape-rendering="geometricPrecision" stroke-miterlimit="1.45">
      <text x="364.2551" xml:space="preserve" y="192.7456" clip-path="url(#clipPath2)" stroke="none">...</text>
    </g>
    <g stroke-linecap="butt" transform="matrix(1,0,0,1,-19,-44)" fill="rgb(153,153,153)" text-rendering="geometricPrecision" shape-rendering="geometricPrecision" stroke="rgb(153,153,153)" stroke-miterlimit="1.45">
      <path fill="none" d="M240.2667 95.4239 L206.797 113.0161" clip-path="url(#clipPath2)"/>
    </g>
    <g stroke-linecap="butt" transform="matrix(1,0,0,1,-19,-44)" fill="rgb(153,153,153)" text-rendering="geometricPrecision" shape-rendering="geometricPrecision" stroke="rgb(153,153,153)" stroke-miterlimit="1.45">
      <path d="M203.2563 114.8772 L213.1293 116.4661 L207.6822 112.5508 L207.5462 105.844 Z" stroke="none" clip-path="url(#clipPath2)"/>
      <path fill="none" d="M210.0464 142.8642 L238.0341 172.0356" clip-path="url(#clipPath2)"/>
      <path d="M240.8033 174.922 L239.5944 164.9954 L237.3417 171.314 L230.9352 173.3031 Z" clip-path="url(#clipPath2)" stroke="none"/>
      <path fill="none" d="M179.0955 142.8851 L142.1246 172.4333" clip-path="url(#clipPath2)"/>
      <path d="M139 174.9307 L148.9953 174.623 L142.9058 171.809 L141.5033 165.2491 Z" clip-path="url(#clipPath2)" stroke="none"/>
      <path fill="none" d="M123.8608 202.9267 L92.1054 232.2699" clip-path="url(#clipPath2)"/>
      <path d="M89.1676 234.9845 L99.1152 233.9619 L92.8399 231.5912 L90.9713 225.1485 Z" clip-path="url(#clipPath2)" stroke="none"/>
      <path fill="none" d="M230.2943 202.9476 L178.9529 232.9738" clip-path="url(#clipPath2)"/>
      <path d="M175.5 234.9932 L185.4347 236.1338 L179.8161 232.469 L179.3767 225.7752 Z" clip-path="url(#clipPath2)" stroke="none"/>
      <path fill="none" d="M266.4196 202.9267 L291.6822 231.9666" clip-path="url(#clipPath2)"/>
      <path d="M294.3076 234.9845 L293.5837 225.0108 L291.0259 231.2122 L284.5301 232.8868 Z" clip-path="url(#clipPath2)" stroke="none"/>
      <path fill="none" d="M288.184 202.928 L362.296 233.4833" clip-path="url(#clipPath2)"/>
      <path d="M365.994 235.0079 L360.8849 226.4116 L361.3715 233.1022 L356.311 237.5057 Z" clip-path="url(#clipPath2)" stroke="none"/>
      <path fill="none" d="M302.6574 94.8527 L340.8916 113.1421" clip-path="url(#clipPath2)"/>
      <path d="M344.5 114.8682 L339.8723 106.0034 L339.9895 112.7106 L334.694 116.8286 Z" clip-path="url(#clipPath2)" stroke="none"/>
      <path fill="none" d="M236.5833 141.3831 L339.9904 173.7526" clip-path="url(#clipPath2)"/>
      <path d="M343.8077 174.9475 L337.9655 166.8316 L339.0361 173.4538 L334.3806 178.2836 Z" clip-path="url(#clipPath2)" stroke="none"/>
    </g>
  </g>
</svg>
