<?xml version="1.0" encoding="UTF-8"?><svg xmlns="http://www.w3.org/2000/svg" xmlns:xlink="http://www.w3.org/1999/xlink" fill-opacity="1" color-rendering="auto" color-interpolation="auto" text-rendering="auto" stroke="black" stroke-linecap="square" width="416" stroke-miterlimit="10" shape-rendering="auto" stroke-opacity="1" fill="black" stroke-dasharray="none" font-weight="normal" stroke-width="1" height="331" font-family="'Dialog'" font-style="normal" stroke-linejoin="miter" font-size="12px" stroke-dashoffset="0" image-rendering="auto">
  <!--Generated by ySVG 2.5-->
  <defs id="genericDefs"/>
  <g>
    <defs id="defs1">
      <linearGradient x1="86.4688" gradientUnits="userSpaceOnUse" x2="127.4062" y1="-113.4375" y2="-85.4375" id="linearGradient1" spreadMethod="reflect">
        <stop stop-opacity="1" stop-color="rgb(232,238,247)" offset="0%"/>
        <stop stop-opacity="1" stop-color="rgb(0,204,255)" offset="100%"/>
      </linearGradient>
      <linearGradient x1="5.3438" gradientUnits="userSpaceOnUse" x2="105.3438" y1="-168.8125" y2="-128.8125" id="linearGradient2" spreadMethod="reflect">
        <stop stop-opacity="1" stop-color="rgb(232,238,247)" offset="0%"/>
        <stop stop-opacity="1" stop-color="rgb(0,204,255)" offset="100%"/>
      </linearGradient>
      <linearGradient x1="66.9375" gradientUnits="userSpaceOnUse" x2="146.9375" y1="-70.0625" y2="-42.0625" id="linearGradient3" spreadMethod="reflect">
        <stop stop-opacity="1" stop-color="rgb(232,238,247)" offset="0%"/>
        <stop stop-opacity="1" stop-color="rgb(0,204,255)" offset="100%"/>
      </linearGradient>
      <linearGradient x1="-55.0156" gradientUnits="userSpaceOnUse" x2="-14.0781" y1="103.4375" y2="131.4375" id="linearGradient4" spreadMethod="reflect">
        <stop stop-opacity="1" stop-color="rgb(232,238,247)" offset="0%"/>
        <stop stop-opacity="1" stop-color="rgb(255,255,153)" offset="100%"/>
      </linearGradient>
      <linearGradient x1="2.5625" gradientUnits="userSpaceOnUse" x2="82.5625" y1="103.4375" y2="131.4375" id="linearGradient5" spreadMethod="reflect">
        <stop stop-opacity="1" stop-color="rgb(232,238,247)" offset="0%"/>
        <stop stop-opacity="1" stop-color="rgb(255,255,153)" offset="100%"/>
      </linearGradient>
      <linearGradient x1="100.2188" gradientUnits="userSpaceOnUse" x2="141.1562" y1="103.4375" y2="131.4375" id="linearGradient6" spreadMethod="reflect">
        <stop stop-opacity="1" stop-color="rgb(232,238,247)" offset="0%"/>
        <stop stop-opacity="1" stop-color="rgb(255,255,153)" offset="100%"/>
      </linearGradient>
      <linearGradient x1="138.0625" gradientUnits="userSpaceOnUse" x2="172.9062" y1="-113.4375" y2="-85.4375" id="linearGradient7" spreadMethod="reflect">
        <stop stop-opacity="1" stop-color="rgb(232,238,247)" offset="0%"/>
        <stop stop-opacity="1" stop-color="rgb(0,204,255)" offset="100%"/>
      </linearGradient>
      <linearGradient x1="-16.7188" gradientUnits="userSpaceOnUse" x2="24.2188" y1="-113.4375" y2="-85.4375" id="linearGradient8" spreadMethod="reflect">
        <stop stop-opacity="1" stop-color="rgb(232,238,247)" offset="0%"/>
        <stop stop-opacity="1" stop-color="rgb(0,204,255)" offset="100%"/>
      </linearGradient>
      <linearGradient x1="34.875" gradientUnits="userSpaceOnUse" x2="75.8125" y1="-113.4375" y2="-85.4375" id="linearGradient9" spreadMethod="reflect">
        <stop stop-opacity="1" stop-color="rgb(232,238,247)" offset="0%"/>
        <stop stop-opacity="1" stop-color="rgb(0,204,255)" offset="100%"/>
      </linearGradient>
      <linearGradient x1="-68.3125" gradientUnits="userSpaceOnUse" x2="-27.375" y1="-113.4375" y2="-85.4375" id="linearGradient10" spreadMethod="reflect">
        <stop stop-opacity="1" stop-color="rgb(232,238,247)" offset="0%"/>
        <stop stop-opacity="1" stop-color="rgb(0,204,255)" offset="100%"/>
      </linearGradient>
      <linearGradient x1="-91.0312" gradientUnits="userSpaceOnUse" x2="-11.0312" y1="-26.6875" y2="1.3125" id="linearGradient11" spreadMethod="reflect">
        <stop stop-opacity="1" stop-color="rgb(232,238,247)" offset="0%"/>
        <stop stop-opacity="1" stop-color="rgb(0,204,255)" offset="100%"/>
      </linearGradient>
      <linearGradient x1="-2.5938" gradientUnits="userSpaceOnUse" x2="77.4062" y1="-26.6875" y2="1.3125" id="linearGradient12" spreadMethod="reflect">
        <stop stop-opacity="1" stop-color="rgb(232,238,247)" offset="0%"/>
        <stop stop-opacity="1" stop-color="rgb(0,204,255)" offset="100%"/>
      </linearGradient>
      <linearGradient x1="85.8438" gradientUnits="userSpaceOnUse" x2="165.8438" y1="-26.6875" y2="1.3125" id="linearGradient13" spreadMethod="reflect">
        <stop stop-opacity="1" stop-color="rgb(232,238,247)" offset="0%"/>
        <stop stop-opacity="1" stop-color="rgb(0,204,255)" offset="100%"/>
      </linearGradient>
      <linearGradient x1="174.2812" gradientUnits="userSpaceOnUse" x2="254.2812" y1="-26.6875" y2="1.3125" id="linearGradient14" spreadMethod="reflect">
        <stop stop-opacity="1" stop-color="rgb(232,238,247)" offset="0%"/>
        <stop stop-opacity="1" stop-color="rgb(0,204,255)" offset="100%"/>
      </linearGradient>
      <linearGradient x1="-2.5938" gradientUnits="userSpaceOnUse" x2="77.4062" y1="16.6875" y2="44.6875" id="linearGradient15" spreadMethod="reflect">
        <stop stop-opacity="1" stop-color="rgb(232,238,247)" offset="0%"/>
        <stop stop-opacity="1" stop-color="rgb(0,204,255)" offset="100%"/>
      </linearGradient>
      <linearGradient x1="-130.0938" gradientUnits="userSpaceOnUse" x2="-50.0938" y1="60.0625" y2="88.0625" id="linearGradient16" spreadMethod="reflect">
        <stop stop-opacity="1" stop-color="rgb(232,238,247)" offset="0%"/>
        <stop stop-opacity="1" stop-color="rgb(0,204,255)" offset="100%"/>
      </linearGradient>
      <linearGradient x1="-41.6562" gradientUnits="userSpaceOnUse" x2="38.3438" y1="60.0625" y2="88.0625" id="linearGradient17" spreadMethod="reflect">
        <stop stop-opacity="1" stop-color="rgb(232,238,247)" offset="0%"/>
        <stop stop-opacity="1" stop-color="rgb(0,204,255)" offset="100%"/>
      </linearGradient>
      <linearGradient x1="46.7812" gradientUnits="userSpaceOnUse" x2="126.7812" y1="60.0625" y2="88.0625" id="linearGradient18" spreadMethod="reflect">
        <stop stop-opacity="1" stop-color="rgb(232,238,247)" offset="0%"/>
        <stop stop-opacity="1" stop-color="rgb(0,204,255)" offset="100%"/>
      </linearGradient>
      <linearGradient x1="135.2188" gradientUnits="userSpaceOnUse" x2="215.2188" y1="60.0625" y2="88.0625" id="linearGradient19" spreadMethod="reflect">
        <stop stop-opacity="1" stop-color="rgb(232,238,247)" offset="0%"/>
        <stop stop-opacity="1" stop-color="rgb(0,204,255)" offset="100%"/>
      </linearGradient>
      <linearGradient x1="-112.5938" gradientUnits="userSpaceOnUse" x2="-71.6562" y1="103.4375" y2="131.4375" id="linearGradient20" spreadMethod="reflect">
        <stop stop-opacity="1" stop-color="rgb(232,238,247)" offset="0%"/>
        <stop stop-opacity="1" stop-color="rgb(255,255,153)" offset="100%"/>
      </linearGradient>
      <clipPath clipPathUnits="userSpaceOnUse" id="clipPath1">
        <path d="M0 0 L416 0 L416 331 L0 331 L0 0 Z"/>
      </clipPath>
      <clipPath clipPathUnits="userSpaceOnUse" id="clipPath2">
        <path d="M-146 -184 L270 -184 L270 147 L-146 147 L-146 -184 Z"/>
      </clipPath>
    </defs>
    <g fill="white" text-rendering="geometricPrecision" shape-rendering="geometricPrecision" transform="translate(146,184)" stroke="white">
      <rect x="-146" width="416" height="331" y="-184" clip-path="url(#clipPath2)" stroke="none"/>
    </g>
    <g fill="url(#linearGradient1)" text-rendering="geometricPrecision" shape-rendering="geometricPrecision" transform="matrix(1,0,0,1,146,184)" stroke="url(#linearGradient1)">
      <path d="M96.4688 -113.4375 L127.4062 -113.4375 L127.4062 -85.4375 L86.4688 -85.4375 L86.4688 -103.4375 Z" stroke="none" clip-path="url(#clipPath2)"/>
    </g>
    <g stroke-linecap="butt" transform="matrix(1,0,0,1,146,184)" fill="rgb(153,153,153)" text-rendering="geometricPrecision" shape-rendering="geometricPrecision" stroke="rgb(153,153,153)" stroke-miterlimit="1.45">
      <path fill="none" d="M96.4688 -113.4375 L127.4062 -113.4375 L127.4062 -85.4375 L86.4688 -85.4375 L86.4688 -103.4375 Z" clip-path="url(#clipPath2)"/>
    </g>
    <g font-size="11px" stroke-linecap="butt" transform="matrix(1,0,0,1,146,184)" text-rendering="geometricPrecision" font-family="sans-serif" shape-rendering="geometricPrecision" stroke-miterlimit="1.45">
      <text x="97.9248" xml:space="preserve" y="-95.6294" clip-path="url(#clipPath2)" stroke="none">opt</text>
    </g>
    <g fill="url(#linearGradient2)" text-rendering="geometricPrecision" shape-rendering="geometricPrecision" transform="matrix(1,0,0,1,146,184)" stroke="url(#linearGradient2)">
      <ellipse rx="50" ry="20" clip-path="url(#clipPath2)" cx="55.3438" cy="-148.8125" stroke="none"/>
    </g>
    <g stroke-linecap="butt" transform="matrix(1,0,0,1,146,184)" fill="rgb(153,153,153)" text-rendering="geometricPrecision" shape-rendering="geometricPrecision" stroke="rgb(153,153,153)" stroke-miterlimit="1.45">
      <ellipse rx="50" fill="none" ry="20" clip-path="url(#clipPath2)" cx="55.3438" cy="-148.8125"/>
    </g>
    <g font-size="11px" stroke-linecap="butt" transform="matrix(1,0,0,1,146,184)" text-rendering="geometricPrecision" font-family="sans-serif" shape-rendering="geometricPrecision" font-weight="bold" stroke-miterlimit="1.45">
      <text x="29.3691" xml:space="preserve" y="-151.4067" clip-path="url(#clipPath2)" stroke="none"> GIS.lab </text>
      <text x="34.9121" xml:space="preserve" y="-138.6021" clip-path="url(#clipPath2)" stroke="none">Server</text>
    </g>
    <g fill="url(#linearGradient3)" text-rendering="geometricPrecision" shape-rendering="geometricPrecision" transform="matrix(1,0,0,1,146,184)" stroke="url(#linearGradient3)">
      <path d="M76.9375 -70.0625 L146.9375 -70.0625 L146.9375 -42.0625 L66.9375 -42.0625 L66.9375 -60.0625 Z" stroke="none" clip-path="url(#clipPath2)"/>
    </g>
    <g stroke-linecap="butt" transform="matrix(1,0,0,1,146,184)" fill="rgb(153,153,153)" text-rendering="geometricPrecision" shape-rendering="geometricPrecision" stroke="rgb(153,153,153)" stroke-miterlimit="1.45">
      <path fill="none" d="M76.9375 -70.0625 L146.9375 -70.0625 L146.9375 -42.0625 L66.9375 -42.0625 L66.9375 -60.0625 Z" clip-path="url(#clipPath2)"/>
    </g>
    <g font-size="11px" stroke-linecap="butt" transform="matrix(1,0,0,1,146,184)" text-rendering="geometricPrecision" font-family="sans-serif" shape-rendering="geometricPrecision" stroke-miterlimit="1.45">
      <text x="90.6631" xml:space="preserve" y="-52.2544" clip-path="url(#clipPath2)" stroke="none">gislab</text>
    </g>
    <g fill="url(#linearGradient4)" text-rendering="geometricPrecision" shape-rendering="geometricPrecision" transform="matrix(1,0,0,1,146,184)" stroke="url(#linearGradient4)">
      <path d="M-55.0156 103.4375 L-14.0781 103.4375 L-14.0781 131.4375 L-55.0156 131.4375 Z" stroke="none" clip-path="url(#clipPath2)"/>
    </g>
    <g stroke-linecap="butt" transform="matrix(1,0,0,1,146,184)" fill="rgb(153,204,255)" text-rendering="geometricPrecision" shape-rendering="geometricPrecision" stroke="rgb(153,204,255)" stroke-miterlimit="1.45">
      <path fill="none" d="M-55.0156 103.4375 L-14.0781 103.4375 L-14.0781 131.4375 L-55.0156 131.4375 Z" clip-path="url(#clipPath2)"/>
    </g>
    <g font-size="11px" stroke-linecap="butt" transform="matrix(1,0,0,1,146,184)" text-rendering="geometricPrecision" font-family="sans-serif" shape-rendering="geometricPrecision" font-style="italic" stroke-miterlimit="1.45">
      <text x="-41.5293" xml:space="preserve" y="121.2456" clip-path="url(#clipPath2)" stroke="none">db</text>
    </g>
    <g fill="url(#linearGradient5)" text-rendering="geometricPrecision" shape-rendering="geometricPrecision" transform="matrix(1,0,0,1,146,184)" stroke="url(#linearGradient5)">
      <path d="M2.5625 103.4375 L82.5625 103.4375 L82.5625 131.4375 L2.5625 131.4375 Z" stroke="none" clip-path="url(#clipPath2)"/>
    </g>
    <g stroke-linecap="butt" transform="matrix(1,0,0,1,146,184)" fill="rgb(153,204,255)" text-rendering="geometricPrecision" shape-rendering="geometricPrecision" stroke="rgb(153,204,255)" stroke-miterlimit="1.45">
      <path fill="none" d="M2.5625 103.4375 L82.5625 103.4375 L82.5625 131.4375 L2.5625 131.4375 Z" clip-path="url(#clipPath2)"/>
    </g>
    <g font-size="11px" stroke-linecap="butt" transform="matrix(1,0,0,1,146,184)" text-rendering="geometricPrecision" font-family="sans-serif" shape-rendering="geometricPrecision" font-style="italic" stroke-miterlimit="1.45">
      <text x="21.5374" xml:space="preserve" y="121.2456" clip-path="url(#clipPath2)" stroke="none">ssh-key</text>
    </g>
    <g fill="url(#linearGradient6)" text-rendering="geometricPrecision" shape-rendering="geometricPrecision" transform="matrix(1,0,0,1,146,184)" stroke="url(#linearGradient6)">
      <path d="M100.2188 103.4375 L141.1562 103.4375 L141.1562 131.4375 L100.2188 131.4375 Z" stroke="none" clip-path="url(#clipPath2)"/>
    </g>
    <g stroke-linecap="butt" transform="matrix(1,0,0,1,146,184)" fill="rgb(153,204,255)" text-rendering="geometricPrecision" shape-rendering="geometricPrecision" stroke="rgb(153,204,255)" stroke-miterlimit="1.45">
      <path fill="none" d="M100.2188 103.4375 L141.1562 103.4375 L141.1562 131.4375 L100.2188 131.4375 Z" clip-path="url(#clipPath2)"/>
    </g>
    <g font-size="11px" stroke-linecap="butt" transform="matrix(1,0,0,1,146,184)" text-rendering="geometricPrecision" font-family="sans-serif" shape-rendering="geometricPrecision" font-style="italic" stroke-miterlimit="1.45">
      <text x="115.4426" xml:space="preserve" y="121.2456" clip-path="url(#clipPath2)" stroke="none">...</text>
    </g>
    <g fill="url(#linearGradient7)" text-rendering="geometricPrecision" shape-rendering="geometricPrecision" transform="matrix(1,0,0,1,146,184)" stroke="url(#linearGradient7)">
      <path d="M148.0625 -113.4375 L172.9062 -113.4375 L172.9062 -85.4375 L138.0625 -85.4375 L138.0625 -103.4375 Z" stroke="none" clip-path="url(#clipPath2)"/>
    </g>
    <g stroke-linecap="butt" transform="matrix(1,0,0,1,146,184)" fill="rgb(153,153,153)" text-rendering="geometricPrecision" shape-rendering="geometricPrecision" stroke="rgb(153,153,153)" stroke-miterlimit="1.45">
      <path fill="none" d="M148.0625 -113.4375 L172.9062 -113.4375 L172.9062 -85.4375 L138.0625 -85.4375 L138.0625 -103.4375 Z" clip-path="url(#clipPath2)"/>
    </g>
    <g font-size="11px" stroke-linecap="butt" transform="matrix(1,0,0,1,146,184)" text-rendering="geometricPrecision" font-family="sans-serif" shape-rendering="geometricPrecision" stroke-miterlimit="1.45">
      <text x="150.2395" xml:space="preserve" y="-95.6294" clip-path="url(#clipPath2)" stroke="none">...</text>
    </g>
    <g fill="url(#linearGradient8)" text-rendering="geometricPrecision" shape-rendering="geometricPrecision" transform="matrix(1,0,0,1,146,184)" stroke="url(#linearGradient8)">
      <path d="M-6.7188 -113.4375 L24.2188 -113.4375 L24.2188 -85.4375 L-16.7188 -85.4375 L-16.7188 -103.4375 Z" stroke="none" clip-path="url(#clipPath2)"/>
    </g>
    <g stroke-linecap="butt" transform="matrix(1,0,0,1,146,184)" fill="rgb(153,153,153)" text-rendering="geometricPrecision" shape-rendering="geometricPrecision" stroke="rgb(153,153,153)" stroke-miterlimit="1.45">
      <path fill="none" d="M-6.7188 -113.4375 L24.2188 -113.4375 L24.2188 -85.4375 L-16.7188 -85.4375 L-16.7188 -103.4375 Z" clip-path="url(#clipPath2)"/>
    </g>
    <g font-size="11px" stroke-linecap="butt" transform="matrix(1,0,0,1,146,184)" text-rendering="geometricPrecision" font-family="sans-serif" shape-rendering="geometricPrecision" stroke-miterlimit="1.45">
      <text x="-8.6277" xml:space="preserve" y="-95.6294" clip-path="url(#clipPath2)" stroke="none">boot</text>
    </g>
    <g fill="url(#linearGradient9)" text-rendering="geometricPrecision" shape-rendering="geometricPrecision" transform="matrix(1,0,0,1,146,184)" stroke="url(#linearGradient9)">
      <path d="M44.875 -113.4375 L75.8125 -113.4375 L75.8125 -85.4375 L34.875 -85.4375 L34.875 -103.4375 Z" stroke="none" clip-path="url(#clipPath2)"/>
    </g>
    <g stroke-linecap="butt" transform="matrix(1,0,0,1,146,184)" fill="rgb(153,153,153)" text-rendering="geometricPrecision" shape-rendering="geometricPrecision" stroke="rgb(153,153,153)" stroke-miterlimit="1.45">
      <path fill="none" d="M44.875 -113.4375 L75.8125 -113.4375 L75.8125 -85.4375 L34.875 -85.4375 L34.875 -103.4375 Z" clip-path="url(#clipPath2)"/>
    </g>
    <g font-size="11px" stroke-linecap="butt" transform="matrix(1,0,0,1,146,184)" text-rendering="geometricPrecision" font-family="sans-serif" shape-rendering="geometricPrecision" stroke-miterlimit="1.45">
      <text x="44.3438" xml:space="preserve" y="-95.6294" clip-path="url(#clipPath2)" stroke="none">mnt</text>
    </g>
    <g fill="url(#linearGradient10)" text-rendering="geometricPrecision" shape-rendering="geometricPrecision" transform="matrix(1,0,0,1,146,184)" stroke="url(#linearGradient10)">
      <path d="M-58.3125 -113.4375 L-27.375 -113.4375 L-27.375 -85.4375 L-68.3125 -85.4375 L-68.3125 -103.4375 Z" stroke="none" clip-path="url(#clipPath2)"/>
    </g>
    <g stroke-linecap="butt" transform="matrix(1,0,0,1,146,184)" fill="rgb(153,153,153)" text-rendering="geometricPrecision" shape-rendering="geometricPrecision" stroke="rgb(153,153,153)" stroke-miterlimit="1.45">
      <path fill="none" d="M-58.3125 -113.4375 L-27.375 -113.4375 L-27.375 -85.4375 L-68.3125 -85.4375 L-68.3125 -103.4375 Z" clip-path="url(#clipPath2)"/>
    </g>
    <g font-size="11px" stroke-linecap="butt" transform="matrix(1,0,0,1,146,184)" text-rendering="geometricPrecision" font-family="sans-serif" shape-rendering="geometricPrecision" stroke-miterlimit="1.45">
      <text x="-56.3489" xml:space="preserve" y="-95.6294" clip-path="url(#clipPath2)" stroke="none">bin</text>
    </g>
    <g fill="url(#linearGradient11)" text-rendering="geometricPrecision" shape-rendering="geometricPrecision" transform="matrix(1,0,0,1,146,184)" stroke="url(#linearGradient11)">
      <path d="M-81.0312 -26.6875 L-11.0312 -26.6875 L-11.0312 1.3125 L-91.0312 1.3125 L-91.0312 -16.6875 Z" stroke="none" clip-path="url(#clipPath2)"/>
    </g>
    <g stroke-linecap="butt" transform="matrix(1,0,0,1,146,184)" fill="rgb(153,153,153)" text-rendering="geometricPrecision" shape-rendering="geometricPrecision" stroke="rgb(153,153,153)" stroke-miterlimit="1.45">
      <path fill="none" d="M-81.0312 -26.6875 L-11.0312 -26.6875 L-11.0312 1.3125 L-91.0312 1.3125 L-91.0312 -16.6875 Z" clip-path="url(#clipPath2)"/>
    </g>
    <g font-size="11px" stroke-linecap="butt" transform="matrix(1,0,0,1,146,184)" text-rendering="geometricPrecision" font-family="sans-serif" shape-rendering="geometricPrecision" stroke-miterlimit="1.45">
      <text x="-68.2644" xml:space="preserve" y="-8.8794" clip-path="url(#clipPath2)" stroke="none">admin</text>
    </g>
    <g fill="url(#linearGradient12)" text-rendering="geometricPrecision" shape-rendering="geometricPrecision" transform="matrix(1,0,0,1,146,184)" stroke="url(#linearGradient12)">
      <path d="M7.4062 -26.6875 L77.4062 -26.6875 L77.4062 1.3125 L-2.5938 1.3125 L-2.5938 -16.6875 Z" stroke="none" clip-path="url(#clipPath2)"/>
    </g>
    <g stroke-linecap="butt" transform="matrix(1,0,0,1,146,184)" fill="rgb(153,153,153)" text-rendering="geometricPrecision" shape-rendering="geometricPrecision" stroke="rgb(153,153,153)" stroke-miterlimit="1.45">
      <path fill="none" d="M7.4062 -26.6875 L77.4062 -26.6875 L77.4062 1.3125 L-2.5938 1.3125 L-2.5938 -16.6875 Z" clip-path="url(#clipPath2)"/>
    </g>
    <g font-size="11px" stroke-linecap="butt" transform="matrix(1,0,0,1,146,184)" text-rendering="geometricPrecision" font-family="sans-serif" shape-rendering="geometricPrecision" stroke-miterlimit="1.45">
      <text x="17.1519" xml:space="preserve" y="-8.8794" clip-path="url(#clipPath2)" stroke="none">custom</text>
    </g>
    <g fill="url(#linearGradient13)" text-rendering="geometricPrecision" shape-rendering="geometricPrecision" transform="matrix(1,0,0,1,146,184)" stroke="url(#linearGradient13)">
      <path d="M95.8438 -26.6875 L165.8438 -26.6875 L165.8438 1.3125 L85.8438 1.3125 L85.8438 -16.6875 Z" stroke="none" clip-path="url(#clipPath2)"/>
    </g>
    <g stroke-linecap="butt" transform="matrix(1,0,0,1,146,184)" fill="rgb(153,153,153)" text-rendering="geometricPrecision" shape-rendering="geometricPrecision" stroke="rgb(153,153,153)" stroke-miterlimit="1.45">
      <path fill="none" d="M95.8438 -26.6875 L165.8438 -26.6875 L165.8438 1.3125 L85.8438 1.3125 L85.8438 -16.6875 Z" clip-path="url(#clipPath2)"/>
    </g>
    <g font-size="11px" stroke-linecap="butt" transform="matrix(1,0,0,1,146,184)" text-rendering="geometricPrecision" font-family="sans-serif" shape-rendering="geometricPrecision" stroke-miterlimit="1.45">
      <text x="108.769" xml:space="preserve" y="-8.8794" clip-path="url(#clipPath2)" stroke="none">secret</text>
    </g>
    <g fill="url(#linearGradient14)" text-rendering="geometricPrecision" shape-rendering="geometricPrecision" transform="matrix(1,0,0,1,146,184)" stroke="url(#linearGradient14)">
      <path d="M184.2812 -26.6875 L254.2812 -26.6875 L254.2812 1.3125 L174.2812 1.3125 L174.2812 -16.6875 Z" stroke="none" clip-path="url(#clipPath2)"/>
    </g>
    <g stroke-linecap="butt" transform="matrix(1,0,0,1,146,184)" fill="rgb(153,153,153)" text-rendering="geometricPrecision" shape-rendering="geometricPrecision" stroke="rgb(153,153,153)" stroke-miterlimit="1.45">
      <path fill="none" d="M184.2812 -26.6875 L254.2812 -26.6875 L254.2812 1.3125 L174.2812 1.3125 L174.2812 -16.6875 Z" clip-path="url(#clipPath2)"/>
    </g>
    <g font-size="11px" stroke-linecap="butt" transform="matrix(1,0,0,1,146,184)" text-rendering="geometricPrecision" font-family="sans-serif" shape-rendering="geometricPrecision" stroke-miterlimit="1.45">
      <text x="194.3975" xml:space="preserve" y="-8.8794" clip-path="url(#clipPath2)" stroke="none">system</text>
    </g>
    <g fill="url(#linearGradient15)" text-rendering="geometricPrecision" shape-rendering="geometricPrecision" transform="matrix(1,0,0,1,146,184)" stroke="url(#linearGradient15)">
      <path d="M7.4062 16.6875 L77.4062 16.6875 L77.4062 44.6875 L-2.5938 44.6875 L-2.5938 26.6875 Z" stroke="none" clip-path="url(#clipPath2)"/>
    </g>
    <g stroke-linecap="butt" transform="matrix(1,0,0,1,146,184)" fill="rgb(153,153,153)" text-rendering="geometricPrecision" shape-rendering="geometricPrecision" stroke="rgb(153,153,153)" stroke-miterlimit="1.45">
      <path fill="none" d="M7.4062 16.6875 L77.4062 16.6875 L77.4062 44.6875 L-2.5938 44.6875 L-2.5938 26.6875 Z" clip-path="url(#clipPath2)"/>
    </g>
    <g font-size="11px" stroke-linecap="butt" transform="matrix(1,0,0,1,146,184)" text-rendering="geometricPrecision" font-family="sans-serif" shape-rendering="geometricPrecision" stroke-miterlimit="1.45">
      <text x="12.6294" xml:space="preserve" y="34.4956" clip-path="url(#clipPath2)" stroke="none">accounts</text>
    </g>
    <g fill="url(#linearGradient16)" text-rendering="geometricPrecision" shape-rendering="geometricPrecision" transform="matrix(1,0,0,1,146,184)" stroke="url(#linearGradient16)">
      <path d="M-120.0938 60.0625 L-50.0938 60.0625 L-50.0938 88.0625 L-130.0938 88.0625 L-130.0938 70.0625 Z" stroke="none" clip-path="url(#clipPath2)"/>
    </g>
    <g stroke-linecap="butt" transform="matrix(1,0,0,1,146,184)" fill="rgb(153,153,153)" text-rendering="geometricPrecision" shape-rendering="geometricPrecision" stroke="rgb(153,153,153)" stroke-miterlimit="1.45">
      <path fill="none" d="M-120.0938 60.0625 L-50.0938 60.0625 L-50.0938 88.0625 L-130.0938 88.0625 L-130.0938 70.0625 Z" clip-path="url(#clipPath2)"/>
    </g>
    <g font-size="11px" stroke-linecap="butt" transform="matrix(1,0,0,1,146,184)" text-rendering="geometricPrecision" font-family="sans-serif" shape-rendering="geometricPrecision" stroke-miterlimit="1.45">
      <text x="-120.2524" xml:space="preserve" y="77.8706" clip-path="url(#clipPath2)" stroke="none">before-add</text>
    </g>
    <g fill="url(#linearGradient17)" text-rendering="geometricPrecision" shape-rendering="geometricPrecision" transform="matrix(1,0,0,1,146,184)" stroke="url(#linearGradient17)">
      <path d="M-31.6562 60.0625 L38.3438 60.0625 L38.3438 88.0625 L-41.6562 88.0625 L-41.6562 70.0625 Z" stroke="none" clip-path="url(#clipPath2)"/>
    </g>
    <g stroke-linecap="butt" transform="matrix(1,0,0,1,146,184)" fill="rgb(153,153,153)" text-rendering="geometricPrecision" shape-rendering="geometricPrecision" stroke="rgb(153,153,153)" stroke-miterlimit="1.45">
      <path fill="none" d="M-31.6562 60.0625 L38.3438 60.0625 L38.3438 88.0625 L-41.6562 88.0625 L-41.6562 70.0625 Z" clip-path="url(#clipPath2)"/>
    </g>
    <g font-size="11px" stroke-linecap="butt" transform="matrix(1,0,0,1,146,184)" text-rendering="geometricPrecision" font-family="sans-serif" shape-rendering="geometricPrecision" stroke-miterlimit="1.45">
      <text x="-27.1018" xml:space="preserve" y="77.8706" clip-path="url(#clipPath2)" stroke="none">after-add</text>
    </g>
    <g fill="url(#linearGradient18)" text-rendering="geometricPrecision" shape-rendering="geometricPrecision" transform="matrix(1,0,0,1,146,184)" stroke="url(#linearGradient18)">
      <path d="M56.7812 60.0625 L126.7812 60.0625 L126.7812 88.0625 L46.7812 88.0625 L46.7812 70.0625 Z" stroke="none" clip-path="url(#clipPath2)"/>
    </g>
    <g stroke-linecap="butt" transform="matrix(1,0,0,1,146,184)" fill="rgb(153,153,153)" text-rendering="geometricPrecision" shape-rendering="geometricPrecision" stroke="rgb(153,153,153)" stroke-miterlimit="1.45">
      <path fill="none" d="M56.7812 60.0625 L126.7812 60.0625 L126.7812 88.0625 L46.7812 88.0625 L46.7812 70.0625 Z" clip-path="url(#clipPath2)"/>
    </g>
    <g font-size="11px" stroke-linecap="butt" transform="matrix(1,0,0,1,146,184)" text-rendering="geometricPrecision" font-family="sans-serif" shape-rendering="geometricPrecision" stroke-miterlimit="1.45">
      <text x="75.5396" xml:space="preserve" y="77.8706" clip-path="url(#clipPath2)" stroke="none">files</text>
    </g>
    <g fill="url(#linearGradient19)" text-rendering="geometricPrecision" shape-rendering="geometricPrecision" transform="matrix(1,0,0,1,146,184)" stroke="url(#linearGradient19)">
      <path d="M145.2188 60.0625 L215.2188 60.0625 L215.2188 88.0625 L135.2188 88.0625 L135.2188 70.0625 Z" stroke="none" clip-path="url(#clipPath2)"/>
    </g>
    <g stroke-linecap="butt" transform="matrix(1,0,0,1,146,184)" fill="rgb(153,153,153)" text-rendering="geometricPrecision" shape-rendering="geometricPrecision" stroke="rgb(153,153,153)" stroke-miterlimit="1.45">
      <path fill="none" d="M145.2188 60.0625 L215.2188 60.0625 L215.2188 88.0625 L135.2188 88.0625 L135.2188 70.0625 Z" clip-path="url(#clipPath2)"/>
    </g>
    <g font-size="11px" stroke-linecap="butt" transform="matrix(1,0,0,1,146,184)" text-rendering="geometricPrecision" font-family="sans-serif" shape-rendering="geometricPrecision" stroke-miterlimit="1.45">
      <text x="169.9739" xml:space="preserve" y="77.8706" clip-path="url(#clipPath2)" stroke="none">...</text>
    </g>
    <g fill="url(#linearGradient20)" text-rendering="geometricPrecision" shape-rendering="geometricPrecision" transform="matrix(1,0,0,1,146,184)" stroke="url(#linearGradient20)">
      <path d="M-112.5938 103.4375 L-71.6562 103.4375 L-71.6562 131.4375 L-112.5938 131.4375 Z" stroke="none" clip-path="url(#clipPath2)"/>
    </g>
    <g stroke-linecap="butt" transform="matrix(1,0,0,1,146,184)" fill="rgb(153,204,255)" text-rendering="geometricPrecision" shape-rendering="geometricPrecision" stroke="rgb(153,204,255)" stroke-miterlimit="1.45">
      <path fill="none" d="M-112.5938 103.4375 L-71.6562 103.4375 L-71.6562 131.4375 L-112.5938 131.4375 Z" clip-path="url(#clipPath2)"/>
    </g>
    <g font-size="11px" stroke-linecap="butt" transform="matrix(1,0,0,1,146,184)" text-rendering="geometricPrecision" font-family="sans-serif" shape-rendering="geometricPrecision" font-style="italic" stroke-miterlimit="1.45">
      <text x="-97.3699" xml:space="preserve" y="121.2456" clip-path="url(#clipPath2)" stroke="none">...</text>
    </g>
    <g stroke-linecap="butt" transform="matrix(1,0,0,1,146,184)" fill="rgb(153,153,153)" text-rendering="geometricPrecision" shape-rendering="geometricPrecision" stroke="rgb(153,153,153)" stroke-miterlimit="1.45">
      <path fill="none" d="M71.2372 -129.8388 L87.6437 -110.2526" clip-path="url(#clipPath2)"/>
    </g>
    <g stroke-linecap="butt" transform="matrix(1,0,0,1,146,184)" fill="rgb(153,153,153)" text-rendering="geometricPrecision" shape-rendering="geometricPrecision" stroke="rgb(153,153,153)" stroke-miterlimit="1.45">
      <path d="M90.2123 -107.1863 L89.6747 -117.1718 L87.0016 -111.0192 L80.4757 -109.4661 Z" stroke="none" clip-path="url(#clipPath2)"/>
      <path fill="none" d="M106.9375 -85.4131 L106.9375 -74.0693" clip-path="url(#clipPath2)"/>
      <path d="M106.9375 -70.0693 L112.9375 -78.0693 L106.9375 -75.0693 L100.9375 -78.0693 Z" clip-path="url(#clipPath2)" stroke="none"/>
      <path fill="none" d="M92.8231 -135.5753 L151.7127 -114.7764" clip-path="url(#clipPath2)"/>
      <path d="M155.4844 -113.4443 L149.9392 -121.766 L150.7698 -115.1095 L145.9429 -110.451 Z" clip-path="url(#clipPath2)" stroke="none"/>
      <path fill="none" d="M36.0717 -130.3692 L21.2541 -116.1888" clip-path="url(#clipPath2)"/>
      <path d="M18.3642 -113.4232 L28.2924 -114.6196 L21.9765 -116.8802 L19.9955 -123.2893 Z" clip-path="url(#clipPath2)" stroke="none"/>
      <path fill="none" d="M55.3438 -128.8021 L55.3438 -117.4603" clip-path="url(#clipPath2)"/>
      <path d="M55.3438 -113.4603 L61.3438 -121.4603 L55.3438 -118.4603 L49.3438 -121.4603 Z" clip-path="url(#clipPath2)" stroke="none"/>
      <path fill="none" d="M23.274 -133.4672 L-23.7822 -110.9509" clip-path="url(#clipPath2)"/>
      <path d="M-27.3905 -109.2244 L-17.5843 -107.2651 L-22.8802 -111.3825 L-22.7638 -118.0897 Z" clip-path="url(#clipPath2)" stroke="none"/>
      <path fill="none" d="M66.9439 -48.6295 L-47.0986 -27.434" clip-path="url(#clipPath2)"/>
      <path d="M-51.0312 -26.7031 L-42.0696 -22.266 L-46.1154 -27.6168 L-44.2623 -34.0639 Z" clip-path="url(#clipPath2)" stroke="none"/>
      <path fill="none" d="M84.496 -42.063 L63.2643 -28.8182" clip-path="url(#clipPath2)"/>
      <path d="M59.8705 -26.7011 L69.8337 -25.8447 L64.1127 -29.3475 L63.4824 -36.026 Z" clip-path="url(#clipPath2)" stroke="none"/>
      <path fill="none" d="M113.0488 -42.0419 L118.1354 -30.3722" clip-path="url(#clipPath2)"/>
      <path d="M119.7337 -26.7054 L122.0373 -36.4364 L117.7358 -31.2889 L111.0369 -31.6416 Z" clip-path="url(#clipPath2)" stroke="none"/>
      <path fill="none" d="M146.9271 -44.9254 L208.555 -27.7621" clip-path="url(#clipPath2)"/>
      <path d="M212.4083 -26.6889 L206.3113 -34.6153 L207.5916 -28.0304 L203.0919 -23.0552 Z" clip-path="url(#clipPath2)" stroke="none"/>
      <path fill="none" d="M37.4062 1.3331 L37.4062 12.6696" clip-path="url(#clipPath2)"/>
      <path d="M37.4062 16.6696 L43.4062 8.6696 L37.4062 11.6696 L31.4062 8.6696 Z" clip-path="url(#clipPath2)" stroke="none"/>
      <path fill="none" d="M-2.572 40.0113 L-84.6749 59.1594" clip-path="url(#clipPath2)"/>
      <path d="M-88.5704 60.068 L-79.4167 64.0941 L-83.701 58.9323 L-82.1422 52.4077 Z" clip-path="url(#clipPath2)" stroke="none"/>
      <path fill="none" d="M24.7987 44.687 L13.6538 57.0622" clip-path="url(#clipPath2)"/>
      <path d="M10.977 60.0345 L20.7891 58.1051 L14.323 56.3191 L11.8721 50.0747 Z" clip-path="url(#clipPath2)" stroke="none"/>
      <path fill="none" d="M-12.2718 88.062 L-21.4928 100.2222" clip-path="url(#clipPath2)"/>
      <path d="M-23.9097 103.4095 L-14.295 100.6603 L-20.8886 99.4254 L-23.8569 93.4097 Z" clip-path="url(#clipPath2)" stroke="none"/>
      <path fill="none" d="M12.6155 88.062 L25.4061 100.6085" clip-path="url(#clipPath2)"/>
      <path d="M28.2616 103.4095 L26.7522 93.5241 L24.6922 99.9082 L18.349 102.0907 Z" clip-path="url(#clipPath2)" stroke="none"/>
      <path fill="none" d="M59.1431 44.702 L79.577 57.8765" clip-path="url(#clipPath2)"/>
      <path d="M82.9388 60.044 L79.4664 50.6663 L78.7365 57.3347 L72.9639 60.7518 Z" clip-path="url(#clipPath2)" stroke="none"/>
      <path fill="none" d="M77.4214 41.4543 L142.7475 59.0314" clip-path="url(#clipPath2)"/>
      <path d="M146.6101 60.0707 L140.4438 52.1982 L141.7818 58.7716 L137.3259 63.7861 Z" clip-path="url(#clipPath2)" stroke="none"/>
    </g>
  </g>
</svg>
