<?xml version="1.0" encoding="UTF-8"?><svg xmlns="http://www.w3.org/2000/svg" xmlns:xlink="http://www.w3.org/1999/xlink" fill-opacity="1" color-rendering="auto" color-interpolation="auto" text-rendering="auto" stroke="black" stroke-linecap="square" width="457" stroke-miterlimit="10" shape-rendering="auto" stroke-opacity="1" fill="black" stroke-dasharray="none" font-weight="normal" stroke-width="1" height="242" font-family="'Dialog'" font-style="normal" stroke-linejoin="miter" font-size="12px" stroke-dashoffset="0" image-rendering="auto">
  <!--Generated by ySVG 2.5-->
  <defs id="genericDefs"/>
  <g>
    <defs id="defs1">
      <linearGradient x1="144.0571" gradientUnits="userSpaceOnUse" x2="224.0571" y1="33.9734" y2="61.9734" id="linearGradient1" spreadMethod="reflect">
        <stop stop-opacity="1" stop-color="rgb(232,238,247)" offset="0%"/>
        <stop stop-opacity="1" stop-color="rgb(0,204,255)" offset="100%"/>
      </linearGradient>
      <linearGradient x1="183.22" gradientUnits="userSpaceOnUse" x2="283.22" y1="-28.7141" y2="11.2859" id="linearGradient2" spreadMethod="reflect">
        <stop stop-opacity="1" stop-color="rgb(232,238,247)" offset="0%"/>
        <stop stop-opacity="1" stop-color="rgb(0,204,255)" offset="100%"/>
      </linearGradient>
      <linearGradient x1="105.97" gradientUnits="userSpaceOnUse" x2="185.97" y1="94.0359" y2="122.0359" id="linearGradient3" spreadMethod="reflect">
        <stop stop-opacity="1" stop-color="rgb(232,238,247)" offset="0%"/>
        <stop stop-opacity="1" stop-color="rgb(0,204,255)" offset="100%"/>
      </linearGradient>
      <linearGradient x1="15.2474" gradientUnits="userSpaceOnUse" x2="95.2474" y1="94.0359" y2="122.0359" id="linearGradient4" spreadMethod="reflect">
        <stop stop-opacity="1" stop-color="rgb(232,238,247)" offset="0%"/>
        <stop stop-opacity="1" stop-color="rgb(0,204,255)" offset="100%"/>
      </linearGradient>
      <linearGradient x1="-29.551" gradientUnits="userSpaceOnUse" x2="50.449" y1="154.0984" y2="182.0984" id="linearGradient5" spreadMethod="reflect">
        <stop stop-opacity="1" stop-color="rgb(232,238,247)" offset="0%"/>
        <stop stop-opacity="1" stop-color="rgb(255,255,153)" offset="100%"/>
      </linearGradient>
      <linearGradient x1="61.8634" gradientUnits="userSpaceOnUse" x2="161.8634" y1="152.0359" y2="180.0359" id="linearGradient6" spreadMethod="reflect">
        <stop stop-opacity="1" stop-color="rgb(232,238,247)" offset="0%"/>
        <stop stop-opacity="1" stop-color="rgb(255,255,153)" offset="100%"/>
      </linearGradient>
      <linearGradient x1="173.2778" gradientUnits="userSpaceOnUse" x2="211.7007" y1="152.0359" y2="180.0359" id="linearGradient7" spreadMethod="reflect">
        <stop stop-opacity="1" stop-color="rgb(232,238,247)" offset="0%"/>
        <stop stop-opacity="1" stop-color="rgb(255,255,153)" offset="100%"/>
      </linearGradient>
      <linearGradient x1="342.3829" gradientUnits="userSpaceOnUse" x2="380.8058" y1="30.7859" y2="58.7859" id="linearGradient8" spreadMethod="reflect">
        <stop stop-opacity="1" stop-color="rgb(232,238,247)" offset="0%"/>
        <stop stop-opacity="1" stop-color="rgb(0,204,255)" offset="100%"/>
      </linearGradient>
      <linearGradient x1="199.0085" gradientUnits="userSpaceOnUse" x2="237.4314" y1="94.0359" y2="122.0359" id="linearGradient9" spreadMethod="reflect">
        <stop stop-opacity="1" stop-color="rgb(232,238,247)" offset="0%"/>
        <stop stop-opacity="1" stop-color="rgb(0,204,255)" offset="100%"/>
      </linearGradient>
      <linearGradient x1="357.72" gradientUnits="userSpaceOnUse" x2="396.1428" y1="94.0359" y2="122.0359" id="linearGradient10" spreadMethod="reflect">
        <stop stop-opacity="1" stop-color="rgb(232,238,247)" offset="0%"/>
        <stop stop-opacity="1" stop-color="rgb(255,255,153)" offset="100%"/>
      </linearGradient>
      <linearGradient x1="254.0571" gradientUnits="userSpaceOnUse" x2="334.0571" y1="30.7859" y2="58.7859" id="linearGradient11" spreadMethod="reflect">
        <stop stop-opacity="1" stop-color="rgb(232,238,247)" offset="0%"/>
        <stop stop-opacity="1" stop-color="rgb(0,204,255)" offset="100%"/>
      </linearGradient>
      <linearGradient x1="250.47" gradientUnits="userSpaceOnUse" x2="350.47" y1="94.0359" y2="122.0359" id="linearGradient12" spreadMethod="reflect">
        <stop stop-opacity="1" stop-color="rgb(232,238,247)" offset="0%"/>
        <stop stop-opacity="1" stop-color="rgb(255,255,153)" offset="100%"/>
      </linearGradient>
      <clipPath clipPathUnits="userSpaceOnUse" id="clipPath1">
        <path d="M0 0 L457 0 L457 242 L0 242 L0 0 Z"/>
      </clipPath>
      <clipPath clipPathUnits="userSpaceOnUse" id="clipPath2">
        <path d="M-45 -44 L412 -44 L412 198 L-45 198 L-45 -44 Z"/>
      </clipPath>
    </defs>
    <g fill="white" text-rendering="geometricPrecision" shape-rendering="geometricPrecision" transform="translate(45,44)" stroke="white">
      <rect x="-45" width="457" height="242" y="-44" clip-path="url(#clipPath2)" stroke="none"/>
    </g>
    <g fill="url(#linearGradient1)" text-rendering="geometricPrecision" shape-rendering="geometricPrecision" transform="matrix(1,0,0,1,45,44)" stroke="url(#linearGradient1)">
      <path d="M154.0571 33.9734 L224.0571 33.9734 L224.0571 61.9734 L144.0571 61.9734 L144.0571 43.9734 Z" stroke="none" clip-path="url(#clipPath2)"/>
    </g>
    <g stroke-linecap="butt" transform="matrix(1,0,0,1,45,44)" fill="rgb(153,153,153)" text-rendering="geometricPrecision" shape-rendering="geometricPrecision" stroke="rgb(153,153,153)" stroke-miterlimit="1.45">
      <path fill="none" d="M154.0571 33.9734 L224.0571 33.9734 L224.0571 61.9734 L144.0571 61.9734 L144.0571 43.9734 Z" clip-path="url(#clipPath2)"/>
    </g>
    <g font-size="11px" stroke-linecap="butt" transform="matrix(1,0,0,1,45,44)" text-rendering="geometricPrecision" font-family="sans-serif" shape-rendering="geometricPrecision" stroke-miterlimit="1.45">
      <text x="164.1733" xml:space="preserve" y="51.7815" clip-path="url(#clipPath2)" stroke="none">system</text>
    </g>
    <g fill="url(#linearGradient2)" text-rendering="geometricPrecision" shape-rendering="geometricPrecision" transform="matrix(1,0,0,1,45,44)" stroke="url(#linearGradient2)">
      <ellipse rx="50" ry="20" clip-path="url(#clipPath2)" cx="233.22" cy="-8.7141" stroke="none"/>
    </g>
    <g stroke-linecap="butt" transform="matrix(1,0,0,1,45,44)" fill="rgb(153,153,153)" text-rendering="geometricPrecision" shape-rendering="geometricPrecision" stroke="rgb(153,153,153)" stroke-miterlimit="1.45">
      <ellipse rx="50" fill="none" ry="20" clip-path="url(#clipPath2)" cx="233.22" cy="-8.7141"/>
    </g>
    <g font-size="11px" stroke-linecap="butt" transform="matrix(1,0,0,1,45,44)" text-rendering="geometricPrecision" font-family="sans-serif" shape-rendering="geometricPrecision" font-weight="bold" stroke-miterlimit="1.45">
      <text x="205.3306" xml:space="preserve" y="-11.3084" clip-path="url(#clipPath2)" stroke="none">  GIS.lab </text>
      <text x="201.1975" xml:space="preserve" y="1.4963" clip-path="url(#clipPath2)" stroke="none">repository</text>
    </g>
    <g fill="url(#linearGradient3)" text-rendering="geometricPrecision" shape-rendering="geometricPrecision" transform="matrix(1,0,0,1,45,44)" stroke="url(#linearGradient3)">
      <path d="M115.97 94.0359 L185.97 94.0359 L185.97 122.0359 L105.97 122.0359 L105.97 104.0359 Z" stroke="none" clip-path="url(#clipPath2)"/>
    </g>
    <g stroke-linecap="butt" transform="matrix(1,0,0,1,45,44)" fill="rgb(153,153,153)" text-rendering="geometricPrecision" shape-rendering="geometricPrecision" stroke="rgb(153,153,153)" stroke-miterlimit="1.45">
      <path fill="none" d="M115.97 94.0359 L185.97 94.0359 L185.97 122.0359 L105.97 122.0359 L105.97 104.0359 Z" clip-path="url(#clipPath2)"/>
    </g>
    <g font-size="11px" stroke-linecap="butt" transform="matrix(1,0,0,1,45,44)" text-rendering="geometricPrecision" font-family="sans-serif" shape-rendering="geometricPrecision" stroke-miterlimit="1.45">
      <text x="119.5952" xml:space="preserve" y="111.844" clip-path="url(#clipPath2)" stroke="none">host_vars</text>
    </g>
    <g fill="url(#linearGradient4)" text-rendering="geometricPrecision" shape-rendering="geometricPrecision" transform="matrix(1,0,0,1,45,44)" stroke="url(#linearGradient4)">
      <path d="M25.2474 94.0359 L95.2474 94.0359 L95.2474 122.0359 L15.2474 122.0359 L15.2474 104.0359 Z" stroke="none" clip-path="url(#clipPath2)"/>
    </g>
    <g stroke-linecap="butt" transform="matrix(1,0,0,1,45,44)" fill="rgb(153,153,153)" text-rendering="geometricPrecision" shape-rendering="geometricPrecision" stroke="rgb(153,153,153)" stroke-miterlimit="1.45">
      <path fill="none" d="M25.2474 94.0359 L95.2474 94.0359 L95.2474 122.0359 L15.2474 122.0359 L15.2474 104.0359 Z" clip-path="url(#clipPath2)"/>
    </g>
    <g font-size="11px" stroke-linecap="butt" transform="matrix(1,0,0,1,45,44)" text-rendering="geometricPrecision" font-family="sans-serif" shape-rendering="geometricPrecision" stroke-miterlimit="1.45">
      <text x="24.651" xml:space="preserve" y="111.844" clip-path="url(#clipPath2)" stroke="none">group_vars</text>
    </g>
    <g fill="url(#linearGradient5)" text-rendering="geometricPrecision" shape-rendering="geometricPrecision" transform="matrix(1,0,0,1,45,44)" stroke="url(#linearGradient5)">
      <path d="M-29.551 154.0984 L50.449 154.0984 L50.449 182.0984 L-29.551 182.0984 Z" stroke="none" clip-path="url(#clipPath2)"/>
    </g>
    <g stroke-linecap="butt" transform="matrix(1,0,0,1,45,44)" fill="rgb(153,204,255)" text-rendering="geometricPrecision" shape-rendering="geometricPrecision" stroke="rgb(153,204,255)" stroke-miterlimit="1.45">
      <path fill="none" d="M-29.551 154.0984 L50.449 154.0984 L50.449 182.0984 L-29.551 182.0984 Z" clip-path="url(#clipPath2)"/>
    </g>
    <g font-size="11px" stroke-linecap="butt" transform="matrix(1,0,0,1,45,44)" text-rendering="geometricPrecision" font-family="sans-serif" shape-rendering="geometricPrecision" font-style="italic" stroke-miterlimit="1.45">
      <text x="4.0225" xml:space="preserve" y="171.9065" clip-path="url(#clipPath2)" stroke="none">all</text>
    </g>
    <g fill="url(#linearGradient6)" text-rendering="geometricPrecision" shape-rendering="geometricPrecision" transform="matrix(1,0,0,1,45,44)" stroke="url(#linearGradient6)">
      <path d="M61.8634 152.0359 L161.8634 152.0359 L161.8634 180.0359 L61.8634 180.0359 Z" stroke="none" clip-path="url(#clipPath2)"/>
    </g>
    <g stroke-linecap="butt" transform="matrix(1,0,0,1,45,44)" fill="rgb(153,204,255)" text-rendering="geometricPrecision" shape-rendering="geometricPrecision" stroke="rgb(153,204,255)" stroke-miterlimit="1.45">
      <path fill="none" d="M61.8634 152.0359 L161.8634 152.0359 L161.8634 180.0359 L61.8634 180.0359 Z" clip-path="url(#clipPath2)"/>
    </g>
    <g font-size="11px" stroke-linecap="butt" transform="matrix(1,0,0,1,45,44)" text-rendering="geometricPrecision" font-family="sans-serif" shape-rendering="geometricPrecision" font-style="italic" stroke-miterlimit="1.45">
      <text x="71.4486" xml:space="preserve" y="169.844" clip-path="url(#clipPath2)" stroke="none">gislab_vagrant</text>
    </g>
    <g fill="url(#linearGradient7)" text-rendering="geometricPrecision" shape-rendering="geometricPrecision" transform="matrix(1,0,0,1,45,44)" stroke="url(#linearGradient7)">
      <path d="M173.2778 152.0359 L211.7007 152.0359 L211.7007 180.0359 L173.2778 180.0359 Z" stroke="none" clip-path="url(#clipPath2)"/>
    </g>
    <g stroke-linecap="butt" transform="matrix(1,0,0,1,45,44)" fill="rgb(153,204,255)" text-rendering="geometricPrecision" shape-rendering="geometricPrecision" stroke="rgb(153,204,255)" stroke-miterlimit="1.45">
      <path fill="none" d="M173.2778 152.0359 L211.7007 152.0359 L211.7007 180.0359 L173.2778 180.0359 Z" clip-path="url(#clipPath2)"/>
    </g>
    <g font-size="11px" stroke-linecap="butt" transform="matrix(1,0,0,1,45,44)" text-rendering="geometricPrecision" font-family="sans-serif" shape-rendering="geometricPrecision" font-style="italic" stroke-miterlimit="1.45">
      <text x="187.2444" xml:space="preserve" y="169.844" clip-path="url(#clipPath2)" stroke="none">...</text>
    </g>
    <g fill="url(#linearGradient8)" text-rendering="geometricPrecision" shape-rendering="geometricPrecision" transform="matrix(1,0,0,1,45,44)" stroke="url(#linearGradient8)">
      <path d="M352.3829 30.7859 L380.8058 30.7859 L380.8058 58.7859 L342.3829 58.7859 L342.3829 40.7859 Z" stroke="none" clip-path="url(#clipPath2)"/>
    </g>
    <g stroke-linecap="butt" transform="matrix(1,0,0,1,45,44)" fill="rgb(153,153,153)" text-rendering="geometricPrecision" shape-rendering="geometricPrecision" stroke="rgb(153,153,153)" stroke-miterlimit="1.45">
      <path fill="none" d="M352.3829 30.7859 L380.8058 30.7859 L380.8058 58.7859 L342.3829 58.7859 L342.3829 40.7859 Z" clip-path="url(#clipPath2)"/>
    </g>
    <g font-size="11px" stroke-linecap="butt" transform="matrix(1,0,0,1,45,44)" text-rendering="geometricPrecision" font-family="sans-serif" shape-rendering="geometricPrecision" stroke-miterlimit="1.45">
      <text x="356.3495" xml:space="preserve" y="48.594" clip-path="url(#clipPath2)" stroke="none">...</text>
    </g>
    <g fill="url(#linearGradient9)" text-rendering="geometricPrecision" shape-rendering="geometricPrecision" transform="matrix(1,0,0,1,45,44)" stroke="url(#linearGradient9)">
      <path d="M209.0085 94.0359 L237.4314 94.0359 L237.4314 122.0359 L199.0085 122.0359 L199.0085 104.0359 Z" stroke="none" clip-path="url(#clipPath2)"/>
    </g>
    <g stroke-linecap="butt" transform="matrix(1,0,0,1,45,44)" fill="rgb(153,153,153)" text-rendering="geometricPrecision" shape-rendering="geometricPrecision" stroke="rgb(153,153,153)" stroke-miterlimit="1.45">
      <path fill="none" d="M209.0085 94.0359 L237.4314 94.0359 L237.4314 122.0359 L199.0085 122.0359 L199.0085 104.0359 Z" clip-path="url(#clipPath2)"/>
    </g>
    <g font-size="11px" stroke-linecap="butt" transform="matrix(1,0,0,1,45,44)" text-rendering="geometricPrecision" font-family="sans-serif" shape-rendering="geometricPrecision" stroke-miterlimit="1.45">
      <text x="212.9751" xml:space="preserve" y="111.844" clip-path="url(#clipPath2)" stroke="none">...</text>
    </g>
    <g fill="url(#linearGradient10)" text-rendering="geometricPrecision" shape-rendering="geometricPrecision" transform="matrix(1,0,0,1,45,44)" stroke="url(#linearGradient10)">
      <path d="M357.72 94.0359 L396.1428 94.0359 L396.1428 122.0359 L357.72 122.0359 Z" stroke="none" clip-path="url(#clipPath2)"/>
    </g>
    <g stroke-linecap="butt" transform="matrix(1,0,0,1,45,44)" fill="rgb(153,204,255)" text-rendering="geometricPrecision" shape-rendering="geometricPrecision" stroke="rgb(153,204,255)" stroke-miterlimit="1.45">
      <path fill="none" d="M357.72 94.0359 L396.1428 94.0359 L396.1428 122.0359 L357.72 122.0359 Z" clip-path="url(#clipPath2)"/>
    </g>
    <g font-size="11px" stroke-linecap="butt" transform="matrix(1,0,0,1,45,44)" text-rendering="geometricPrecision" font-family="sans-serif" shape-rendering="geometricPrecision" font-style="italic" stroke-miterlimit="1.45">
      <text x="371.6865" xml:space="preserve" y="111.844" clip-path="url(#clipPath2)" stroke="none">...</text>
    </g>
    <g fill="url(#linearGradient11)" text-rendering="geometricPrecision" shape-rendering="geometricPrecision" transform="matrix(1,0,0,1,45,44)" stroke="url(#linearGradient11)">
      <path d="M264.0571 30.7859 L334.0571 30.7859 L334.0571 58.7859 L254.0571 58.7859 L254.0571 40.7859 Z" stroke="none" clip-path="url(#clipPath2)"/>
    </g>
    <g stroke-linecap="butt" transform="matrix(1,0,0,1,45,44)" fill="rgb(153,153,153)" text-rendering="geometricPrecision" shape-rendering="geometricPrecision" stroke="rgb(153,153,153)" stroke-miterlimit="1.45">
      <path fill="none" d="M264.0571 30.7859 L334.0571 30.7859 L334.0571 58.7859 L254.0571 58.7859 L254.0571 40.7859 Z" clip-path="url(#clipPath2)"/>
    </g>
    <g font-size="11px" stroke-linecap="butt" transform="matrix(1,0,0,1,45,44)" text-rendering="geometricPrecision" font-family="sans-serif" shape-rendering="geometricPrecision" stroke-miterlimit="1.45">
      <text x="268.155" xml:space="preserve" y="48.594" clip-path="url(#clipPath2)" stroke="none">providers</text>
    </g>
    <g fill="url(#linearGradient12)" text-rendering="geometricPrecision" shape-rendering="geometricPrecision" transform="matrix(1,0,0,1,45,44)" stroke="url(#linearGradient12)">
      <path d="M250.47 94.0359 L350.47 94.0359 L350.47 122.0359 L250.47 122.0359 Z" stroke="none" clip-path="url(#clipPath2)"/>
    </g>
    <g stroke-linecap="butt" transform="matrix(1,0,0,1,45,44)" fill="rgb(153,204,255)" text-rendering="geometricPrecision" shape-rendering="geometricPrecision" stroke="rgb(153,204,255)" stroke-miterlimit="1.45">
      <path fill="none" d="M250.47 94.0359 L350.47 94.0359 L350.47 122.0359 L250.47 122.0359 Z" clip-path="url(#clipPath2)"/>
    </g>
    <g font-size="11px" stroke-linecap="butt" transform="matrix(1,0,0,1,45,44)" text-rendering="geometricPrecision" font-family="sans-serif" shape-rendering="geometricPrecision" font-style="italic" stroke-miterlimit="1.45">
      <text x="272.3066" xml:space="preserve" y="111.844" clip-path="url(#clipPath2)" stroke="none">gislab.yml</text>
    </g>
    <g stroke-linecap="butt" transform="matrix(1,0,0,1,45,44)" fill="red" text-rendering="geometricPrecision" shape-rendering="geometricPrecision" stroke="red" stroke-miterlimit="1.45">
      <ellipse rx="52.228" fill="none" ry="23.2841" clip-path="url(#clipPath2)" cx="300.47" cy="108.0359"/>
    </g>
    <g stroke-linecap="butt" transform="matrix(1,0,0,1,45,44)" fill="rgb(153,153,153)" text-rendering="geometricPrecision" shape-rendering="geometricPrecision" stroke="rgb(153,153,153)" stroke-miterlimit="1.45">
      <path fill="none" d="M211.3026 9.2498 L184.2449 31.427" clip-path="url(#clipPath2)"/>
    </g>
    <g stroke-linecap="butt" transform="matrix(1,0,0,1,45,44)" fill="rgb(153,153,153)" text-rendering="geometricPrecision" shape-rendering="geometricPrecision" stroke="rgb(153,153,153)" stroke-miterlimit="1.45">
      <path d="M181.1513 33.9626 L191.142 33.5318 L185.0183 30.793 L183.5351 24.2509 Z" stroke="none" clip-path="url(#clipPath2)"/>
      <path fill="none" d="M175.1862 61.9626 L156.9996 90.6423" clip-path="url(#clipPath2)"/>
      <path d="M154.8575 94.0204 L164.2089 90.4775 L157.5352 89.7978 L154.0747 84.0511 Z" clip-path="url(#clipPath2)" stroke="none"/>
      <path fill="none" d="M144.9047 61.9722 L59.0139 92.6824" clip-path="url(#clipPath2)"/>
      <path d="M55.2474 94.0291 L64.8004 96.9854 L59.9555 92.3457 L60.7603 85.6859 Z" clip-path="url(#clipPath2)" stroke="none"/>
      <path fill="none" d="M44.8134 122.0251 L23.2941 150.8766" clip-path="url(#clipPath2)"/>
      <path d="M20.9026 154.0829 L30.4952 151.2574 L23.892 150.075 L20.8761 144.0829 Z" clip-path="url(#clipPath2)" stroke="none"/>
      <path fill="none" d="M135.1285 122.02 L114.3142 148.8678" clip-path="url(#clipPath2)"/>
      <path d="M111.8634 152.0291 L121.5069 149.3828 L114.927 148.0775 L112.0232 142.0303 Z" clip-path="url(#clipPath2)" stroke="none"/>
      <path fill="none" d="M160.7571 122.0173 L189.5827 149.2721" clip-path="url(#clipPath2)"/>
      <path d="M192.4893 152.0203 L190.7984 142.1642 L188.8561 148.5851 L182.554 150.8838 Z" clip-path="url(#clipPath2)" stroke="none"/>
      <path fill="none" d="M272.8669 3.4829 L357.7711 29.6029" clip-path="url(#clipPath2)"/>
      <path d="M361.5943 30.779 L355.7122 22.692 L356.8154 29.3088 L352.1837 34.1615 Z" clip-path="url(#clipPath2)" stroke="none"/>
      <path fill="none" d="M194.4494 61.9808 L215.8366 90.8078" clip-path="url(#clipPath2)"/>
      <path d="M218.22 94.0203 L218.2719 84.0204 L215.2408 90.0047 L208.6346 91.1704 Z" clip-path="url(#clipPath2)" stroke="none"/>
      <path fill="none" d="M224.0352 57.5178 L373.0407 93.0914" clip-path="url(#clipPath2)"/>
      <path d="M376.9314 94.0203 L370.5434 86.3266 L372.0681 92.8592 L367.7568 97.9985 Z" clip-path="url(#clipPath2)" stroke="none"/>
      <path fill="none" d="M258.2462 8.6186 L286.9665 28.5098" clip-path="url(#clipPath2)"/>
      <path d="M290.2549 30.7872 L287.0943 21.2998 L286.1444 27.9404 L280.262 31.1649 Z" clip-path="url(#clipPath2)" stroke="none"/>
      <path fill="none" d="M211.1992 61.9772 L269.7591 92.1908" clip-path="url(#clipPath2)"/>
      <path d="M273.3139 94.0249 L268.9554 85.0247 L268.8704 91.7323 L263.4533 95.6889 Z" clip-path="url(#clipPath2)" stroke="none"/>
    </g>
  </g>
</svg>
