<?xml version="1.0" encoding="UTF-8"?><svg xmlns="http://www.w3.org/2000/svg" xmlns:xlink="http://www.w3.org/1999/xlink" fill-opacity="1" color-rendering="auto" color-interpolation="auto" text-rendering="auto" stroke="black" stroke-linecap="square" width="421" stroke-miterlimit="10" shape-rendering="auto" stroke-opacity="1" fill="black" stroke-dasharray="none" font-weight="normal" stroke-width="1" height="244" font-family="'Dialog'" font-style="normal" stroke-linejoin="miter" font-size="12px" stroke-dashoffset="0" image-rendering="auto">
  <!--Generated by ySVG 2.5-->
  <defs id="genericDefs"/>
  <g>
    <defs id="defs1">
      <linearGradient x1="241.7384" gradientUnits="userSpaceOnUse" x2="321.7384" y1="153.8825" y2="181.8825" id="linearGradient1" spreadMethod="reflect">
        <stop stop-opacity="1" stop-color="rgb(232,238,247)" offset="0%"/>
        <stop stop-opacity="1" stop-color="rgb(0,204,255)" offset="100%"/>
      </linearGradient>
      <linearGradient x1="253.1301" gradientUnits="userSpaceOnUse" x2="353.1301" y1="98.5075" y2="138.5075" id="linearGradient2" spreadMethod="reflect">
        <stop stop-opacity="1" stop-color="rgb(232,238,247)" offset="0%"/>
        <stop stop-opacity="1" stop-color="rgb(0,204,255)" offset="100%"/>
      </linearGradient>
      <linearGradient x1="289.3634" gradientUnits="userSpaceOnUse" x2="369.3634" y1="213.945" y2="241.945" id="linearGradient3" spreadMethod="reflect">
        <stop stop-opacity="1" stop-color="rgb(232,238,247)" offset="0%"/>
        <stop stop-opacity="1" stop-color="rgb(0,204,255)" offset="100%"/>
      </linearGradient>
      <linearGradient x1="184.1134" gradientUnits="userSpaceOnUse" x2="264.1134" y1="213.945" y2="241.945" id="linearGradient4" spreadMethod="reflect">
        <stop stop-opacity="1" stop-color="rgb(232,238,247)" offset="0%"/>
        <stop stop-opacity="1" stop-color="rgb(0,204,255)" offset="100%"/>
      </linearGradient>
      <linearGradient x1="409.3634" gradientUnits="userSpaceOnUse" x2="509.3634" y1="274.0075" y2="302.0075" id="linearGradient5" spreadMethod="reflect">
        <stop stop-opacity="1" stop-color="rgb(232,238,247)" offset="0%"/>
        <stop stop-opacity="1" stop-color="rgb(255,255,153)" offset="100%"/>
      </linearGradient>
      <linearGradient x1="299.3634" gradientUnits="userSpaceOnUse" x2="399.3634" y1="274.0075" y2="302.0075" id="linearGradient6" spreadMethod="reflect">
        <stop stop-opacity="1" stop-color="rgb(232,238,247)" offset="0%"/>
        <stop stop-opacity="1" stop-color="rgb(255,255,153)" offset="100%"/>
      </linearGradient>
      <linearGradient x1="331.765" gradientUnits="userSpaceOnUse" x2="411.765" y1="153.8825" y2="181.8825" id="linearGradient7" spreadMethod="reflect">
        <stop stop-opacity="1" stop-color="rgb(232,238,247)" offset="0%"/>
        <stop stop-opacity="1" stop-color="rgb(0,204,255)" offset="100%"/>
      </linearGradient>
      <linearGradient x1="119.3634" gradientUnits="userSpaceOnUse" x2="199.3634" y1="274.0075" y2="302.0075" id="linearGradient8" spreadMethod="reflect">
        <stop stop-opacity="1" stop-color="rgb(232,238,247)" offset="0%"/>
        <stop stop-opacity="1" stop-color="rgb(0,204,255)" offset="100%"/>
      </linearGradient>
      <linearGradient x1="151.7118" gradientUnits="userSpaceOnUse" x2="231.7118" y1="153.8825" y2="181.8825" id="linearGradient9" spreadMethod="reflect">
        <stop stop-opacity="1" stop-color="rgb(232,238,247)" offset="0%"/>
        <stop stop-opacity="1" stop-color="rgb(0,204,255)" offset="100%"/>
      </linearGradient>
      <linearGradient x1="209.3634" gradientUnits="userSpaceOnUse" x2="289.3634" y1="274.0075" y2="302.0075" id="linearGradient10" spreadMethod="reflect">
        <stop stop-opacity="1" stop-color="rgb(232,238,247)" offset="0%"/>
        <stop stop-opacity="1" stop-color="rgb(0,204,255)" offset="100%"/>
      </linearGradient>
      <clipPath clipPathUnits="userSpaceOnUse" id="clipPath1">
        <path d="M0 0 L421 0 L421 244 L0 244 L0 0 Z"/>
      </clipPath>
      <clipPath clipPathUnits="userSpaceOnUse" id="clipPath2">
        <path d="M104 83 L525 83 L525 327 L104 327 L104 83 Z"/>
      </clipPath>
    </defs>
    <g fill="white" text-rendering="geometricPrecision" shape-rendering="geometricPrecision" transform="translate(-104,-83)" stroke="white">
      <rect x="104" width="421" height="244" y="83" clip-path="url(#clipPath2)" stroke="none"/>
    </g>
    <g fill="url(#linearGradient1)" text-rendering="geometricPrecision" shape-rendering="geometricPrecision" transform="matrix(1,0,0,1,-104,-83)" stroke="url(#linearGradient1)">
      <path d="M251.7384 153.8825 L321.7384 153.8825 L321.7384 181.8825 L241.7384 181.8825 L241.7384 163.8825 Z" stroke="none" clip-path="url(#clipPath2)"/>
    </g>
    <g stroke-linecap="butt" transform="matrix(1,0,0,1,-104,-83)" fill="rgb(153,153,153)" text-rendering="geometricPrecision" shape-rendering="geometricPrecision" stroke="rgb(153,153,153)" stroke-miterlimit="1.45">
      <path fill="none" d="M251.7384 153.8825 L321.7384 153.8825 L321.7384 181.8825 L241.7384 181.8825 L241.7384 163.8825 Z" clip-path="url(#clipPath2)"/>
    </g>
    <g font-size="11px" stroke-linecap="butt" transform="matrix(1,0,0,1,-104,-83)" text-rendering="geometricPrecision" font-family="sans-serif" shape-rendering="geometricPrecision" stroke-miterlimit="1.45">
      <text x="255.8363" xml:space="preserve" y="171.6906" clip-path="url(#clipPath2)" stroke="none">providers</text>
    </g>
    <g fill="url(#linearGradient2)" text-rendering="geometricPrecision" shape-rendering="geometricPrecision" transform="matrix(1,0,0,1,-104,-83)" stroke="url(#linearGradient2)">
      <ellipse rx="50" ry="20" clip-path="url(#clipPath2)" cx="303.1301" cy="118.5075" stroke="none"/>
    </g>
    <g stroke-linecap="butt" transform="matrix(1,0,0,1,-104,-83)" fill="rgb(153,153,153)" text-rendering="geometricPrecision" shape-rendering="geometricPrecision" stroke="rgb(153,153,153)" stroke-miterlimit="1.45">
      <ellipse rx="50" fill="none" ry="20" clip-path="url(#clipPath2)" cx="303.1301" cy="118.5075"/>
    </g>
    <g font-size="11px" stroke-linecap="butt" transform="matrix(1,0,0,1,-104,-83)" text-rendering="geometricPrecision" font-family="sans-serif" shape-rendering="geometricPrecision" font-weight="bold" stroke-miterlimit="1.45">
      <text x="275.2407" xml:space="preserve" y="115.9133" clip-path="url(#clipPath2)" stroke="none">  GIS.lab </text>
      <text x="271.1076" xml:space="preserve" y="128.718" clip-path="url(#clipPath2)" stroke="none">repository</text>
    </g>
    <g fill="url(#linearGradient3)" text-rendering="geometricPrecision" shape-rendering="geometricPrecision" transform="matrix(1,0,0,1,-104,-83)" stroke="url(#linearGradient3)">
      <path d="M299.3634 213.945 L369.3634 213.945 L369.3634 241.945 L289.3634 241.945 L289.3634 223.945 Z" stroke="none" clip-path="url(#clipPath2)"/>
    </g>
    <g stroke-linecap="butt" transform="matrix(1,0,0,1,-104,-83)" fill="rgb(153,153,153)" text-rendering="geometricPrecision" shape-rendering="geometricPrecision" stroke="rgb(153,153,153)" stroke-miterlimit="1.45">
      <path fill="none" d="M299.3634 213.945 L369.3634 213.945 L369.3634 241.945 L289.3634 241.945 L289.3634 223.945 Z" clip-path="url(#clipPath2)"/>
    </g>
    <g font-size="11px" stroke-linecap="butt" transform="matrix(1,0,0,1,-104,-83)" text-rendering="geometricPrecision" font-family="sans-serif" shape-rendering="geometricPrecision" stroke-miterlimit="1.45">
      <text x="300.4482" xml:space="preserve" y="231.7531" clip-path="url(#clipPath2)" stroke="none">gislab-unit</text>
    </g>
    <g fill="url(#linearGradient4)" text-rendering="geometricPrecision" shape-rendering="geometricPrecision" transform="matrix(1,0,0,1,-104,-83)" stroke="url(#linearGradient4)">
      <path d="M194.1134 213.945 L264.1134 213.945 L264.1134 241.945 L184.1134 241.945 L184.1134 223.945 Z" stroke="none" clip-path="url(#clipPath2)"/>
    </g>
    <g stroke-linecap="butt" transform="matrix(1,0,0,1,-104,-83)" fill="rgb(153,153,153)" text-rendering="geometricPrecision" shape-rendering="geometricPrecision" stroke="rgb(153,153,153)" stroke-miterlimit="1.45">
      <path fill="none" d="M194.1134 213.945 L264.1134 213.945 L264.1134 241.945 L184.1134 241.945 L184.1134 223.945 Z" clip-path="url(#clipPath2)"/>
    </g>
    <g font-size="11px" stroke-linecap="butt" transform="matrix(1,0,0,1,-104,-83)" text-rendering="geometricPrecision" font-family="sans-serif" shape-rendering="geometricPrecision" stroke-miterlimit="1.45">
      <text x="213.3793" xml:space="preserve" y="231.7531" clip-path="url(#clipPath2)" stroke="none">aws</text>
    </g>
    <g fill="url(#linearGradient5)" text-rendering="geometricPrecision" shape-rendering="geometricPrecision" transform="matrix(1,0,0,1,-104,-83)" stroke="url(#linearGradient5)">
      <path d="M409.3634 274.0075 L509.3634 274.0075 L509.3634 302.0075 L409.3634 302.0075 Z" stroke="none" clip-path="url(#clipPath2)"/>
    </g>
    <g stroke-linecap="butt" transform="matrix(1,0,0,1,-104,-83)" fill="rgb(153,204,255)" text-rendering="geometricPrecision" shape-rendering="geometricPrecision" stroke="rgb(153,204,255)" stroke-miterlimit="1.45">
      <path fill="none" d="M409.3634 274.0075 L509.3634 274.0075 L509.3634 302.0075 L409.3634 302.0075 Z" clip-path="url(#clipPath2)"/>
    </g>
    <g font-size="11px" stroke-linecap="butt" transform="matrix(1,0,0,1,-104,-83)" text-rendering="geometricPrecision" font-family="sans-serif" shape-rendering="geometricPrecision" font-style="italic" stroke-miterlimit="1.45">
      <text x="418.5592" xml:space="preserve" y="291.8156" clip-path="url(#clipPath2)" stroke="none">gislab-unit.yml</text>
    </g>
    <g fill="url(#linearGradient6)" text-rendering="geometricPrecision" shape-rendering="geometricPrecision" transform="matrix(1,0,0,1,-104,-83)" stroke="url(#linearGradient6)">
      <path d="M299.3634 274.0075 L399.3634 274.0075 L399.3634 302.0075 L299.3634 302.0075 Z" stroke="none" clip-path="url(#clipPath2)"/>
    </g>
    <g stroke-linecap="butt" transform="matrix(1,0,0,1,-104,-83)" fill="rgb(153,204,255)" text-rendering="geometricPrecision" shape-rendering="geometricPrecision" stroke="rgb(153,204,255)" stroke-miterlimit="1.45">
      <path fill="none" d="M299.3634 274.0075 L399.3634 274.0075 L399.3634 302.0075 L299.3634 302.0075 Z" clip-path="url(#clipPath2)"/>
    </g>
    <g font-size="11px" stroke-linecap="butt" transform="matrix(1,0,0,1,-104,-83)" text-rendering="geometricPrecision" font-family="sans-serif" shape-rendering="geometricPrecision" font-style="italic" stroke-miterlimit="1.45">
      <text x="302.6054" xml:space="preserve" y="291.8156" clip-path="url(#clipPath2)" stroke="none">gislab-unit-iso.sh</text>
    </g>
    <g fill="url(#linearGradient7)" text-rendering="geometricPrecision" shape-rendering="geometricPrecision" transform="matrix(1,0,0,1,-104,-83)" stroke="url(#linearGradient7)">
      <path d="M341.765 153.8825 L411.765 153.8825 L411.765 181.8825 L331.765 181.8825 L331.765 163.8825 Z" stroke="none" clip-path="url(#clipPath2)"/>
    </g>
    <g stroke-linecap="butt" transform="matrix(1,0,0,1,-104,-83)" fill="rgb(153,153,153)" text-rendering="geometricPrecision" shape-rendering="geometricPrecision" stroke="rgb(153,153,153)" stroke-miterlimit="1.45">
      <path fill="none" d="M341.765 153.8825 L411.765 153.8825 L411.765 181.8825 L331.765 181.8825 L331.765 163.8825 Z" clip-path="url(#clipPath2)"/>
    </g>
    <g font-size="11px" stroke-linecap="butt" transform="matrix(1,0,0,1,-104,-83)" text-rendering="geometricPrecision" font-family="sans-serif" shape-rendering="geometricPrecision" stroke-miterlimit="1.45">
      <text x="366.5201" xml:space="preserve" y="171.6906" clip-path="url(#clipPath2)" stroke="none">...</text>
    </g>
    <g fill="url(#linearGradient8)" text-rendering="geometricPrecision" shape-rendering="geometricPrecision" transform="matrix(1,0,0,1,-104,-83)" stroke="url(#linearGradient8)">
      <path d="M129.3634 274.0075 L199.3634 274.0075 L199.3634 302.0075 L119.3634 302.0075 L119.3634 284.0075 Z" stroke="none" clip-path="url(#clipPath2)"/>
    </g>
    <g stroke-linecap="butt" transform="matrix(1,0,0,1,-104,-83)" fill="rgb(153,153,153)" text-rendering="geometricPrecision" shape-rendering="geometricPrecision" stroke="rgb(153,153,153)" stroke-miterlimit="1.45">
      <path fill="none" d="M129.3634 274.0075 L199.3634 274.0075 L199.3634 302.0075 L119.3634 302.0075 L119.3634 284.0075 Z" clip-path="url(#clipPath2)"/>
    </g>
    <g font-size="11px" stroke-linecap="butt" transform="matrix(1,0,0,1,-104,-83)" text-rendering="geometricPrecision" font-family="sans-serif" shape-rendering="geometricPrecision" stroke-miterlimit="1.45">
      <text x="151.6049" xml:space="preserve" y="291.8156" clip-path="url(#clipPath2)" stroke="none">iso</text>
    </g>
    <g fill="url(#linearGradient9)" text-rendering="geometricPrecision" shape-rendering="geometricPrecision" transform="matrix(1,0,0,1,-104,-83)" stroke="url(#linearGradient9)">
      <path d="M161.7118 153.8825 L231.7118 153.8825 L231.7118 181.8825 L151.7118 181.8825 L151.7118 163.8825 Z" stroke="none" clip-path="url(#clipPath2)"/>
    </g>
    <g stroke-linecap="butt" transform="matrix(1,0,0,1,-104,-83)" fill="rgb(153,153,153)" text-rendering="geometricPrecision" shape-rendering="geometricPrecision" stroke="rgb(153,153,153)" stroke-miterlimit="1.45">
      <path fill="none" d="M161.7118 153.8825 L231.7118 153.8825 L231.7118 181.8825 L151.7118 181.8825 L151.7118 163.8825 Z" clip-path="url(#clipPath2)"/>
    </g>
    <g font-size="11px" stroke-linecap="butt" transform="matrix(1,0,0,1,-104,-83)" text-rendering="geometricPrecision" font-family="sans-serif" shape-rendering="geometricPrecision" stroke-miterlimit="1.45">
      <text x="171.828" xml:space="preserve" y="171.6906" clip-path="url(#clipPath2)" stroke="none">system</text>
    </g>
    <g fill="url(#linearGradient10)" text-rendering="geometricPrecision" shape-rendering="geometricPrecision" transform="matrix(1,0,0,1,-104,-83)" stroke="url(#linearGradient10)">
      <path d="M219.3634 274.0075 L289.3634 274.0075 L289.3634 302.0075 L209.3634 302.0075 L209.3634 284.0075 Z" stroke="none" clip-path="url(#clipPath2)"/>
    </g>
    <g stroke-linecap="butt" transform="matrix(1,0,0,1,-104,-83)" fill="rgb(153,153,153)" text-rendering="geometricPrecision" shape-rendering="geometricPrecision" stroke="rgb(153,153,153)" stroke-miterlimit="1.45">
      <path fill="none" d="M219.3634 274.0075 L289.3634 274.0075 L289.3634 302.0075 L209.3634 302.0075 L209.3634 284.0075 Z" clip-path="url(#clipPath2)"/>
    </g>
    <g font-size="11px" stroke-linecap="butt" transform="matrix(1,0,0,1,-104,-83)" text-rendering="geometricPrecision" font-family="sans-serif" shape-rendering="geometricPrecision" stroke-miterlimit="1.45">
      <text x="221.6701" xml:space="preserve" y="291.8156" clip-path="url(#clipPath2)" stroke="none">templates</text>
    </g>
    <g stroke-linecap="butt" transform="matrix(1,0,0,1,-104,-83)" fill="red" text-rendering="geometricPrecision" shape-rendering="geometricPrecision" stroke="red" stroke-miterlimit="1.45">
      <ellipse rx="52.228" fill="none" ry="23.2841" clip-path="url(#clipPath2)" cx="457.1354" cy="288.6609"/>
    </g>
    <g stroke-linecap="butt" transform="matrix(1,0,0,1,-104,-83)" fill="rgb(153,153,153)" text-rendering="geometricPrecision" shape-rendering="geometricPrecision" stroke="rgb(153,153,153)" stroke-miterlimit="1.45">
      <path fill="none" d="M287.2242 137.4812 L276.0306 150.8337" clip-path="url(#clipPath2)"/>
    </g>
    <g stroke-linecap="butt" transform="matrix(1,0,0,1,-104,-83)" fill="rgb(153,153,153)" text-rendering="geometricPrecision" shape-rendering="geometricPrecision" stroke="rgb(153,153,153)" stroke-miterlimit="1.45">
      <path d="M273.4609 153.8991 L283.1984 151.623 L276.6731 150.0674 L274.0023 143.9138 Z" stroke="none" clip-path="url(#clipPath2)"/>
      <path fill="none" d="M292.8308 181.8717 L315.765 210.7953" clip-path="url(#clipPath2)"/>
      <path d="M318.2502 213.9295 L317.9812 203.9332 L315.1437 210.0117 L308.5784 211.3888 Z" clip-path="url(#clipPath2)" stroke="none"/>
      <path fill="none" d="M264.209 181.8926 L227.2381 211.4409" clip-path="url(#clipPath2)"/>
      <path d="M224.1134 213.9382 L234.1087 213.6305 L228.0192 210.8165 L226.6167 204.2566 Z" clip-path="url(#clipPath2)" stroke="none"/>
      <path fill="none" d="M369.3816 238.0191 L455.6494 272.5155" clip-path="url(#clipPath2)"/>
      <path d="M459.3634 274.0007 L454.1631 265.4593 L454.7209 272.1442 L449.7076 276.6014 Z" clip-path="url(#clipPath2)" stroke="none"/>
      <path fill="none" d="M338.5634 241.9342 L357.4483 270.65" clip-path="url(#clipPath2)"/>
      <path d="M359.6462 273.992 L360.2634 264.0111 L356.8988 269.8145 L350.2373 270.6048 Z" clip-path="url(#clipPath2)" stroke="none"/>
      <path fill="none" d="M333.7946 134.3092 L368.2094 152.0434" clip-path="url(#clipPath2)"/>
      <path d="M371.765 153.8757 L367.4021 144.8776 L367.3204 151.5853 L361.9053 155.5446 Z" clip-path="url(#clipPath2)" stroke="none"/>
      <path fill="none" d="M308.5907 241.9547 L203.1519 274.494" clip-path="url(#clipPath2)"/>
      <path d="M199.3298 275.6735 L208.7434 279.0476 L204.1075 274.1991 L205.2048 267.5812 Z" clip-path="url(#clipPath2)" stroke="none"/>
      <path fill="none" d="M269.6448 133.3465 L226.991 152.2485" clip-path="url(#clipPath2)"/>
      <path d="M223.334 153.8691 L233.0789 156.1134 L227.9053 151.8434 L228.2171 145.1424 Z" clip-path="url(#clipPath2)" stroke="none"/>
      <path fill="none" d="M326.754 241.9587 L276.3431 271.9541" clip-path="url(#clipPath2)"/>
      <path d="M272.9056 273.9995 L282.8486 275.065 L277.2025 271.4428 L276.7126 264.7525 Z" clip-path="url(#clipPath2)" stroke="none"/>
    </g>
  </g>
</svg>
