<?xml version="1.0" encoding="UTF-8"?><svg xmlns="http://www.w3.org/2000/svg" xmlns:xlink="http://www.w3.org/1999/xlink" fill-opacity="1" color-rendering="auto" color-interpolation="auto" text-rendering="auto" stroke="black" stroke-linecap="square" width="511" stroke-miterlimit="10" shape-rendering="auto" stroke-opacity="1" fill="black" stroke-dasharray="none" font-weight="normal" stroke-width="1" height="382" font-family="'Dialog'" font-style="normal" stroke-linejoin="miter" font-size="12px" stroke-dashoffset="0" image-rendering="auto">
  <!--Generated by ySVG 2.5-->
  <defs id="genericDefs"/>
  <g>
    <defs id="defs1">
      <linearGradient x1="-445.1406" gradientUnits="userSpaceOnUse" x2="-410.2969" y1="232.8125" y2="260.8125" id="linearGradient1" spreadMethod="reflect">
        <stop stop-opacity="1" stop-color="rgb(232,238,247)" offset="0%"/>
        <stop stop-opacity="1" stop-color="rgb(0,204,255)" offset="100%"/>
      </linearGradient>
      <linearGradient x1="-465.3125" gradientUnits="userSpaceOnUse" x2="-430.4688" y1="362.9375" y2="390.9375" id="linearGradient2" spreadMethod="reflect">
        <stop stop-opacity="1" stop-color="rgb(232,238,247)" offset="0%"/>
        <stop stop-opacity="1" stop-color="rgb(204,153,255)" offset="100%"/>
      </linearGradient>
      <linearGradient x1="-624.9844" gradientUnits="userSpaceOnUse" x2="-544.9844" y1="362.9375" y2="390.9375" id="linearGradient3" spreadMethod="reflect">
        <stop stop-opacity="1" stop-color="rgb(232,238,247)" offset="0%"/>
        <stop stop-opacity="1" stop-color="rgb(204,153,255)" offset="100%"/>
      </linearGradient>
      <linearGradient x1="-551.375" gradientUnits="userSpaceOnUse" x2="-510.4375" y1="232.8125" y2="260.8125" id="linearGradient4" spreadMethod="reflect">
        <stop stop-opacity="1" stop-color="rgb(232,238,247)" offset="0%"/>
        <stop stop-opacity="1" stop-color="rgb(0,204,255)" offset="100%"/>
      </linearGradient>
      <linearGradient x1="-499.7812" gradientUnits="userSpaceOnUse" x2="-458.8438" y1="232.8125" y2="260.8125" id="linearGradient5" spreadMethod="reflect">
        <stop stop-opacity="1" stop-color="rgb(232,238,247)" offset="0%"/>
        <stop stop-opacity="1" stop-color="rgb(0,204,255)" offset="100%"/>
      </linearGradient>
      <linearGradient x1="-345" gradientUnits="userSpaceOnUse" x2="-310.1562" y1="232.8125" y2="260.8125" id="linearGradient6" spreadMethod="reflect">
        <stop stop-opacity="1" stop-color="rgb(232,238,247)" offset="0%"/>
        <stop stop-opacity="1" stop-color="rgb(0,204,255)" offset="100%"/>
      </linearGradient>
      <linearGradient x1="-468.3594" gradientUnits="userSpaceOnUse" x2="-427.4219" y1="319.5625" y2="347.5625" id="linearGradient7" spreadMethod="reflect">
        <stop stop-opacity="1" stop-color="rgb(232,238,247)" offset="0%"/>
        <stop stop-opacity="1" stop-color="rgb(255,255,153)" offset="100%"/>
      </linearGradient>
      <linearGradient x1="-636" gradientUnits="userSpaceOnUse" x2="-533.9688" y1="319.5625" y2="347.5625" id="linearGradient8" spreadMethod="reflect">
        <stop stop-opacity="1" stop-color="rgb(232,238,247)" offset="0%"/>
        <stop stop-opacity="1" stop-color="rgb(255,255,153)" offset="100%"/>
      </linearGradient>
      <linearGradient x1="-541.8906" gradientUnits="userSpaceOnUse" x2="-461.8906" y1="276.1875" y2="304.1875" id="linearGradient9" spreadMethod="reflect">
        <stop stop-opacity="1" stop-color="rgb(232,238,247)" offset="0%"/>
        <stop stop-opacity="1" stop-color="rgb(0,204,255)" offset="100%"/>
      </linearGradient>
      <linearGradient x1="-477.7188" gradientUnits="userSpaceOnUse" x2="-377.7188" y1="177.4375" y2="217.4375" id="linearGradient10" spreadMethod="reflect">
        <stop stop-opacity="1" stop-color="rgb(232,238,247)" offset="0%"/>
        <stop stop-opacity="1" stop-color="rgb(0,204,255)" offset="100%"/>
      </linearGradient>
      <linearGradient x1="-396.5938" gradientUnits="userSpaceOnUse" x2="-355.6562" y1="232.8125" y2="260.8125" id="linearGradient11" spreadMethod="reflect">
        <stop stop-opacity="1" stop-color="rgb(232,238,247)" offset="0%"/>
        <stop stop-opacity="1" stop-color="rgb(0,204,255)" offset="100%"/>
      </linearGradient>
      <linearGradient x1="-416.125" gradientUnits="userSpaceOnUse" x2="-336.125" y1="276.1875" y2="304.1875" id="linearGradient12" spreadMethod="reflect">
        <stop stop-opacity="1" stop-color="rgb(232,238,247)" offset="0%"/>
        <stop stop-opacity="1" stop-color="rgb(0,204,255)" offset="100%"/>
      </linearGradient>
      <linearGradient x1="-323.4258" gradientUnits="userSpaceOnUse" x2="-243.4258" y1="319.5625" y2="347.5625" id="linearGradient13" spreadMethod="reflect">
        <stop stop-opacity="1" stop-color="rgb(232,238,247)" offset="0%"/>
        <stop stop-opacity="1" stop-color="rgb(0,204,255)" offset="100%"/>
      </linearGradient>
      <linearGradient x1="-323.4258" gradientUnits="userSpaceOnUse" x2="-243.4258" y1="362.9375" y2="390.9375" id="linearGradient14" spreadMethod="reflect">
        <stop stop-opacity="1" stop-color="rgb(232,238,247)" offset="0%"/>
        <stop stop-opacity="1" stop-color="rgb(0,204,255)" offset="100%"/>
      </linearGradient>
      <linearGradient x1="-411.332" gradientUnits="userSpaceOnUse" x2="-331.332" y1="408.8725" y2="436.8725" id="linearGradient15" spreadMethod="reflect">
        <stop stop-opacity="1" stop-color="rgb(232,238,247)" offset="0%"/>
        <stop stop-opacity="1" stop-color="rgb(0,204,255)" offset="100%"/>
      </linearGradient>
      <linearGradient x1="-411.332" gradientUnits="userSpaceOnUse" x2="-331.332" y1="362.9375" y2="390.9375" id="linearGradient16" spreadMethod="reflect">
        <stop stop-opacity="1" stop-color="rgb(232,238,247)" offset="0%"/>
        <stop stop-opacity="1" stop-color="rgb(0,204,255)" offset="100%"/>
      </linearGradient>
      <linearGradient x1="-235.5195" gradientUnits="userSpaceOnUse" x2="-155.5195" y1="362.9375" y2="390.9375" id="linearGradient17" spreadMethod="reflect">
        <stop stop-opacity="1" stop-color="rgb(232,238,247)" offset="0%"/>
        <stop stop-opacity="1" stop-color="rgb(0,204,255)" offset="100%"/>
      </linearGradient>
      <linearGradient x1="-248.9648" gradientUnits="userSpaceOnUse" x2="-168.9648" y1="406.3125" y2="434.3125" id="linearGradient18" spreadMethod="reflect">
        <stop stop-opacity="1" stop-color="rgb(232,238,247)" offset="0%"/>
        <stop stop-opacity="1" stop-color="rgb(0,204,255)" offset="100%"/>
      </linearGradient>
      <linearGradient x1="-510.4688" gradientUnits="userSpaceOnUse" x2="-430.4688" y1="454.8075" y2="482.8075" id="linearGradient19" spreadMethod="reflect">
        <stop stop-opacity="1" stop-color="white" offset="0%"/>
        <stop stop-opacity="1" stop-color="rgb(204,153,255)" offset="100%"/>
      </linearGradient>
      <linearGradient x1="-411.332" gradientUnits="userSpaceOnUse" x2="-331.332" y1="454.8075" y2="482.8075" id="linearGradient20" spreadMethod="reflect">
        <stop stop-opacity="1" stop-color="rgb(232,238,247)" offset="0%"/>
        <stop stop-opacity="1" stop-color="rgb(0,204,255)" offset="100%"/>
      </linearGradient>
      <linearGradient x1="-554.5285" gradientUnits="userSpaceOnUse" x2="-489.47" y1="500.7425" y2="528.7425" id="linearGradient21" spreadMethod="reflect">
        <stop stop-opacity="1" stop-color="rgb(232,238,247)" offset="0%"/>
        <stop stop-opacity="1" stop-color="rgb(255,255,153)" offset="100%"/>
      </linearGradient>
      <linearGradient x1="-475.9949" gradientUnits="userSpaceOnUse" x2="-324.6289" y1="500.7425" y2="528.7425" id="linearGradient22" spreadMethod="reflect">
        <stop stop-opacity="1" stop-color="rgb(232,238,247)" offset="0%"/>
        <stop stop-opacity="1" stop-color="rgb(255,255,153)" offset="100%"/>
      </linearGradient>
      <clipPath clipPathUnits="userSpaceOnUse" id="clipPath1">
        <path d="M0 0 L511 0 L511 382 L0 382 L0 0 Z"/>
      </clipPath>
      <clipPath clipPathUnits="userSpaceOnUse" id="clipPath2">
        <path d="M-651 162 L-140 162 L-140 544 L-651 544 L-651 162 Z"/>
      </clipPath>
    </defs>
    <g fill="white" text-rendering="geometricPrecision" shape-rendering="geometricPrecision" transform="translate(651,-162)" stroke="white">
      <rect x="-651" width="511" height="382" y="162" clip-path="url(#clipPath2)" stroke="none"/>
    </g>
    <g fill="url(#linearGradient1)" text-rendering="geometricPrecision" shape-rendering="geometricPrecision" transform="matrix(1,0,0,1,651,-162)" stroke="url(#linearGradient1)">
      <path d="M-435.1406 232.8125 L-410.2969 232.8125 L-410.2969 260.8125 L-445.1406 260.8125 L-445.1406 242.8125 Z" stroke="none" clip-path="url(#clipPath2)"/>
    </g>
    <g stroke-linecap="butt" transform="matrix(1,0,0,1,651,-162)" fill="rgb(153,153,153)" text-rendering="geometricPrecision" shape-rendering="geometricPrecision" stroke="rgb(153,153,153)" stroke-miterlimit="1.45">
      <path fill="none" d="M-435.1406 232.8125 L-410.2969 232.8125 L-410.2969 260.8125 L-445.1406 260.8125 L-445.1406 242.8125 Z" clip-path="url(#clipPath2)"/>
    </g>
    <g font-size="11px" stroke-linecap="butt" transform="matrix(1,0,0,1,651,-162)" text-rendering="geometricPrecision" font-family="sans-serif" shape-rendering="geometricPrecision" stroke-miterlimit="1.45">
      <text x="-438.7188" xml:space="preserve" y="250.6206" clip-path="url(#clipPath2)" stroke="none">mnt</text>
    </g>
    <g fill="url(#linearGradient2)" text-rendering="geometricPrecision" shape-rendering="geometricPrecision" transform="matrix(1,0,0,1,651,-162)" stroke="url(#linearGradient2)">
      <path d="M-455.3125 362.9375 L-430.4688 362.9375 L-430.4688 390.9375 L-465.3125 390.9375 L-465.3125 372.9375 Z" stroke="none" clip-path="url(#clipPath2)"/>
    </g>
    <g stroke-linecap="butt" transform="matrix(1,0,0,1,651,-162)" fill="rgb(153,153,153)" text-rendering="geometricPrecision" shape-rendering="geometricPrecision" stroke="rgb(153,153,153)" stroke-miterlimit="1.45">
      <path fill="none" d="M-455.3125 362.9375 L-430.4688 362.9375 L-430.4688 390.9375 L-465.3125 390.9375 L-465.3125 372.9375 Z" clip-path="url(#clipPath2)"/>
    </g>
    <g font-size="11px" stroke-linecap="butt" transform="matrix(1,0,0,1,651,-162)" text-rendering="geometricPrecision" font-family="sans-serif" shape-rendering="geometricPrecision" stroke-miterlimit="1.45">
      <text x="-453.1355" xml:space="preserve" y="380.7456" clip-path="url(#clipPath2)" stroke="none">...</text>
    </g>
    <g fill="url(#linearGradient3)" text-rendering="geometricPrecision" shape-rendering="geometricPrecision" transform="matrix(1,0,0,1,651,-162)" stroke="url(#linearGradient3)">
      <path d="M-614.9844 362.9375 L-544.9844 362.9375 L-544.9844 390.9375 L-624.9844 390.9375 L-624.9844 372.9375 Z" stroke="none" clip-path="url(#clipPath2)"/>
    </g>
    <g stroke-linecap="butt" transform="matrix(1,0,0,1,651,-162)" fill="rgb(153,153,153)" text-rendering="geometricPrecision" shape-rendering="geometricPrecision" stroke="rgb(153,153,153)" stroke-miterlimit="1.45">
      <path fill="none" d="M-614.9844 362.9375 L-544.9844 362.9375 L-544.9844 390.9375 L-624.9844 390.9375 L-624.9844 372.9375 Z" clip-path="url(#clipPath2)"/>
    </g>
    <g font-size="11px" stroke-linecap="butt" transform="matrix(1,0,0,1,651,-162)" text-rendering="geometricPrecision" font-family="sans-serif" shape-rendering="geometricPrecision" stroke-miterlimit="1.45">
      <text x="-611.3323" xml:space="preserve" y="380.7456" clip-path="url(#clipPath2)" stroke="none">&lt;image&gt;</text>
    </g>
    <g fill="url(#linearGradient4)" text-rendering="geometricPrecision" shape-rendering="geometricPrecision" transform="matrix(1,0,0,1,651,-162)" stroke="url(#linearGradient4)">
      <path d="M-541.375 232.8125 L-510.4375 232.8125 L-510.4375 260.8125 L-551.375 260.8125 L-551.375 242.8125 Z" stroke="none" clip-path="url(#clipPath2)"/>
    </g>
    <g stroke-linecap="butt" transform="matrix(1,0,0,1,651,-162)" fill="rgb(153,153,153)" text-rendering="geometricPrecision" shape-rendering="geometricPrecision" stroke="rgb(153,153,153)" stroke-miterlimit="1.45">
      <path fill="none" d="M-541.375 232.8125 L-510.4375 232.8125 L-510.4375 260.8125 L-551.375 260.8125 L-551.375 242.8125 Z" clip-path="url(#clipPath2)"/>
    </g>
    <g font-size="11px" stroke-linecap="butt" transform="matrix(1,0,0,1,651,-162)" text-rendering="geometricPrecision" font-family="sans-serif" shape-rendering="geometricPrecision" stroke-miterlimit="1.45">
      <text x="-539.4114" xml:space="preserve" y="250.6206" clip-path="url(#clipPath2)" stroke="none">bin</text>
    </g>
    <g fill="url(#linearGradient5)" text-rendering="geometricPrecision" shape-rendering="geometricPrecision" transform="matrix(1,0,0,1,651,-162)" stroke="url(#linearGradient5)">
      <path d="M-489.7812 232.8125 L-458.8438 232.8125 L-458.8438 260.8125 L-499.7812 260.8125 L-499.7812 242.8125 Z" stroke="none" clip-path="url(#clipPath2)"/>
    </g>
    <g stroke-linecap="butt" transform="matrix(1,0,0,1,651,-162)" fill="rgb(153,153,153)" text-rendering="geometricPrecision" shape-rendering="geometricPrecision" stroke="rgb(153,153,153)" stroke-miterlimit="1.45">
      <path fill="none" d="M-489.7812 232.8125 L-458.8438 232.8125 L-458.8438 260.8125 L-499.7812 260.8125 L-499.7812 242.8125 Z" clip-path="url(#clipPath2)"/>
    </g>
    <g font-size="11px" stroke-linecap="butt" transform="matrix(1,0,0,1,651,-162)" text-rendering="geometricPrecision" font-family="sans-serif" shape-rendering="geometricPrecision" stroke-miterlimit="1.45">
      <text x="-491.6902" xml:space="preserve" y="250.6206" clip-path="url(#clipPath2)" stroke="none">boot</text>
    </g>
    <g fill="url(#linearGradient6)" text-rendering="geometricPrecision" shape-rendering="geometricPrecision" transform="matrix(1,0,0,1,651,-162)" stroke="url(#linearGradient6)">
      <path d="M-335 232.8125 L-310.1562 232.8125 L-310.1562 260.8125 L-345 260.8125 L-345 242.8125 Z" stroke="none" clip-path="url(#clipPath2)"/>
    </g>
    <g stroke-linecap="butt" transform="matrix(1,0,0,1,651,-162)" fill="rgb(153,153,153)" text-rendering="geometricPrecision" shape-rendering="geometricPrecision" stroke="rgb(153,153,153)" stroke-miterlimit="1.45">
      <path fill="none" d="M-335 232.8125 L-310.1562 232.8125 L-310.1562 260.8125 L-345 260.8125 L-345 242.8125 Z" clip-path="url(#clipPath2)"/>
    </g>
    <g font-size="11px" stroke-linecap="butt" transform="matrix(1,0,0,1,651,-162)" text-rendering="geometricPrecision" font-family="sans-serif" shape-rendering="geometricPrecision" stroke-miterlimit="1.45">
      <text x="-332.823" xml:space="preserve" y="250.6206" clip-path="url(#clipPath2)" stroke="none">...</text>
    </g>
    <g fill="url(#linearGradient7)" text-rendering="geometricPrecision" shape-rendering="geometricPrecision" transform="matrix(1,0,0,1,651,-162)" stroke="url(#linearGradient7)">
      <path d="M-468.3594 319.5625 L-427.4219 319.5625 L-427.4219 347.5625 L-468.3594 347.5625 Z" stroke="none" clip-path="url(#clipPath2)"/>
    </g>
    <g stroke-linecap="butt" transform="matrix(1,0,0,1,651,-162)" fill="rgb(153,204,255)" text-rendering="geometricPrecision" shape-rendering="geometricPrecision" stroke="rgb(153,204,255)" stroke-miterlimit="1.45">
      <path fill="none" d="M-468.3594 319.5625 L-427.4219 319.5625 L-427.4219 347.5625 L-468.3594 347.5625 Z" clip-path="url(#clipPath2)"/>
    </g>
    <g font-size="11px" stroke-linecap="butt" transform="matrix(1,0,0,1,651,-162)" text-rendering="geometricPrecision" font-family="sans-serif" shape-rendering="geometricPrecision" font-style="italic" stroke-miterlimit="1.45">
      <text x="-453.1355" xml:space="preserve" y="337.3706" clip-path="url(#clipPath2)" stroke="none">...</text>
    </g>
    <g fill="url(#linearGradient8)" text-rendering="geometricPrecision" shape-rendering="geometricPrecision" transform="matrix(1,0,0,1,651,-162)" stroke="url(#linearGradient8)">
      <path d="M-636 319.5625 L-533.9688 319.5625 L-533.9688 347.5625 L-636 347.5625 Z" stroke="none" clip-path="url(#clipPath2)"/>
    </g>
    <g stroke-linecap="butt" transform="matrix(1,0,0,1,651,-162)" fill="rgb(153,204,255)" text-rendering="geometricPrecision" shape-rendering="geometricPrecision" stroke="rgb(153,204,255)" stroke-miterlimit="1.45">
      <path fill="none" d="M-636 319.5625 L-533.9688 319.5625 L-533.9688 347.5625 L-636 347.5625 Z" clip-path="url(#clipPath2)"/>
    </g>
    <g font-size="11px" stroke-linecap="butt" transform="matrix(1,0,0,1,651,-162)" text-rendering="geometricPrecision" font-family="sans-serif" shape-rendering="geometricPrecision" font-style="italic" stroke-miterlimit="1.45">
      <text x="-626.511" xml:space="preserve" y="337.3706" clip-path="url(#clipPath2)" stroke="none">&lt;root&gt;.tar.bz2</text>
    </g>
    <g fill="url(#linearGradient9)" text-rendering="geometricPrecision" shape-rendering="geometricPrecision" transform="matrix(1,0,0,1,651,-162)" stroke="url(#linearGradient9)">
      <path d="M-531.8906 276.1875 L-461.8906 276.1875 L-461.8906 304.1875 L-541.8906 304.1875 L-541.8906 286.1875 Z" stroke="none" clip-path="url(#clipPath2)"/>
    </g>
    <g stroke-linecap="butt" transform="matrix(1,0,0,1,651,-162)" fill="rgb(153,153,153)" text-rendering="geometricPrecision" shape-rendering="geometricPrecision" stroke="rgb(153,153,153)" stroke-miterlimit="1.45">
      <path fill="none" d="M-531.8906 276.1875 L-461.8906 276.1875 L-461.8906 304.1875 L-541.8906 304.1875 L-541.8906 286.1875 Z" clip-path="url(#clipPath2)"/>
    </g>
    <g font-size="11px" stroke-linecap="butt" transform="matrix(1,0,0,1,651,-162)" text-rendering="geometricPrecision" font-family="sans-serif" shape-rendering="geometricPrecision" stroke-miterlimit="1.45">
      <text x="-521.9382" xml:space="preserve" y="293.9956" clip-path="url(#clipPath2)" stroke="none">backup</text>
    </g>
    <g fill="url(#linearGradient10)" text-rendering="geometricPrecision" shape-rendering="geometricPrecision" transform="matrix(1,0,0,1,651,-162)" stroke="url(#linearGradient10)">
      <ellipse rx="50" ry="20" clip-path="url(#clipPath2)" cx="-427.7187" cy="197.4375" stroke="none"/>
    </g>
    <g stroke-linecap="butt" transform="matrix(1,0,0,1,651,-162)" fill="rgb(153,153,153)" text-rendering="geometricPrecision" shape-rendering="geometricPrecision" stroke="rgb(153,153,153)" stroke-miterlimit="1.45">
      <ellipse rx="50" fill="none" ry="20" clip-path="url(#clipPath2)" cx="-427.7187" cy="197.4375"/>
    </g>
    <g font-size="11px" stroke-linecap="butt" transform="matrix(1,0,0,1,651,-162)" text-rendering="geometricPrecision" font-family="sans-serif" shape-rendering="geometricPrecision" font-weight="bold" stroke-miterlimit="1.45">
      <text x="-453.6934" xml:space="preserve" y="194.8433" clip-path="url(#clipPath2)" stroke="none"> GIS.lab </text>
      <text x="-448.1504" xml:space="preserve" y="207.6479" clip-path="url(#clipPath2)" stroke="none">Server</text>
    </g>
    <g fill="url(#linearGradient11)" text-rendering="geometricPrecision" shape-rendering="geometricPrecision" transform="matrix(1,0,0,1,651,-162)" stroke="url(#linearGradient11)">
      <path d="M-386.5938 232.8125 L-355.6562 232.8125 L-355.6562 260.8125 L-396.5938 260.8125 L-396.5938 242.8125 Z" stroke="none" clip-path="url(#clipPath2)"/>
    </g>
    <g stroke-linecap="butt" transform="matrix(1,0,0,1,651,-162)" fill="rgb(153,153,153)" text-rendering="geometricPrecision" shape-rendering="geometricPrecision" stroke="rgb(153,153,153)" stroke-miterlimit="1.45">
      <path fill="none" d="M-386.5938 232.8125 L-355.6562 232.8125 L-355.6562 260.8125 L-396.5938 260.8125 L-396.5938 242.8125 Z" clip-path="url(#clipPath2)"/>
    </g>
    <g font-size="11px" stroke-linecap="butt" transform="matrix(1,0,0,1,651,-162)" text-rendering="geometricPrecision" font-family="sans-serif" shape-rendering="geometricPrecision" stroke-miterlimit="1.45">
      <text x="-385.1377" xml:space="preserve" y="250.6206" clip-path="url(#clipPath2)" stroke="none">opt</text>
    </g>
    <g fill="url(#linearGradient12)" text-rendering="geometricPrecision" shape-rendering="geometricPrecision" transform="matrix(1,0,0,1,651,-162)" stroke="url(#linearGradient12)">
      <path d="M-406.125 276.1875 L-336.125 276.1875 L-336.125 304.1875 L-416.125 304.1875 L-416.125 286.1875 Z" stroke="none" clip-path="url(#clipPath2)"/>
    </g>
    <g stroke-linecap="butt" transform="matrix(1,0,0,1,651,-162)" fill="rgb(153,153,153)" text-rendering="geometricPrecision" shape-rendering="geometricPrecision" stroke="rgb(153,153,153)" stroke-miterlimit="1.45">
      <path fill="none" d="M-406.125 276.1875 L-336.125 276.1875 L-336.125 304.1875 L-416.125 304.1875 L-416.125 286.1875 Z" clip-path="url(#clipPath2)"/>
    </g>
    <g font-size="11px" stroke-linecap="butt" transform="matrix(1,0,0,1,651,-162)" text-rendering="geometricPrecision" font-family="sans-serif" shape-rendering="geometricPrecision" stroke-miterlimit="1.45">
      <text x="-392.3994" xml:space="preserve" y="293.9956" clip-path="url(#clipPath2)" stroke="none">gislab</text>
    </g>
    <g fill="url(#linearGradient13)" text-rendering="geometricPrecision" shape-rendering="geometricPrecision" transform="matrix(1,0,0,1,651,-162)" stroke="url(#linearGradient13)">
      <path d="M-313.4258 319.5625 L-243.4258 319.5625 L-243.4258 347.5625 L-323.4258 347.5625 L-323.4258 329.5625 Z" stroke="none" clip-path="url(#clipPath2)"/>
    </g>
    <g stroke-linecap="butt" transform="matrix(1,0,0,1,651,-162)" fill="rgb(153,153,153)" text-rendering="geometricPrecision" shape-rendering="geometricPrecision" stroke="rgb(153,153,153)" stroke-miterlimit="1.45">
      <path fill="none" d="M-313.4258 319.5625 L-243.4258 319.5625 L-243.4258 347.5625 L-323.4258 347.5625 L-323.4258 329.5625 Z" clip-path="url(#clipPath2)"/>
    </g>
    <g font-size="11px" stroke-linecap="butt" transform="matrix(1,0,0,1,651,-162)" text-rendering="geometricPrecision" font-family="sans-serif" shape-rendering="geometricPrecision" stroke-miterlimit="1.45">
      <text x="-303.3096" xml:space="preserve" y="337.3706" clip-path="url(#clipPath2)" stroke="none">system</text>
    </g>
    <g fill="url(#linearGradient14)" text-rendering="geometricPrecision" shape-rendering="geometricPrecision" transform="matrix(1,0,0,1,651,-162)" stroke="url(#linearGradient14)">
      <path d="M-313.4258 362.9375 L-243.4258 362.9375 L-243.4258 390.9375 L-323.4258 390.9375 L-323.4258 372.9375 Z" stroke="none" clip-path="url(#clipPath2)"/>
    </g>
    <g stroke-linecap="butt" transform="matrix(1,0,0,1,651,-162)" fill="rgb(153,153,153)" text-rendering="geometricPrecision" shape-rendering="geometricPrecision" stroke="rgb(153,153,153)" stroke-miterlimit="1.45">
      <path fill="none" d="M-313.4258 362.9375 L-243.4258 362.9375 L-243.4258 390.9375 L-323.4258 390.9375 L-323.4258 372.9375 Z" clip-path="url(#clipPath2)"/>
    </g>
    <g font-size="11px" stroke-linecap="butt" transform="matrix(1,0,0,1,651,-162)" text-rendering="geometricPrecision" font-family="sans-serif" shape-rendering="geometricPrecision" stroke-miterlimit="1.45">
      <text x="-301.3975" xml:space="preserve" y="380.7456" clip-path="url(#clipPath2)" stroke="none">clients</text>
    </g>
    <g fill="url(#linearGradient15)" text-rendering="geometricPrecision" shape-rendering="geometricPrecision" transform="matrix(1,0,0,1,651,-162)" stroke="url(#linearGradient15)">
      <path d="M-401.332 408.8725 L-331.332 408.8725 L-331.332 436.8725 L-411.332 436.8725 L-411.332 418.8725 Z" stroke="none" clip-path="url(#clipPath2)"/>
    </g>
    <g stroke-linecap="butt" transform="matrix(1,0,0,1,651,-162)" fill="rgb(153,153,153)" text-rendering="geometricPrecision" shape-rendering="geometricPrecision" stroke="rgb(153,153,153)" stroke-miterlimit="1.45">
      <path fill="none" d="M-401.332 408.8725 L-331.332 408.8725 L-331.332 436.8725 L-411.332 436.8725 L-411.332 418.8725 Z" clip-path="url(#clipPath2)"/>
    </g>
    <g font-size="11px" stroke-linecap="butt" transform="matrix(1,0,0,1,651,-162)" text-rendering="geometricPrecision" font-family="sans-serif" shape-rendering="geometricPrecision" stroke-miterlimit="1.45">
      <text x="-393.2703" xml:space="preserve" y="426.6806" clip-path="url(#clipPath2)" stroke="none">desktop</text>
    </g>
    <g fill="url(#linearGradient16)" text-rendering="geometricPrecision" shape-rendering="geometricPrecision" transform="matrix(1,0,0,1,651,-162)" stroke="url(#linearGradient16)">
      <path d="M-401.332 362.9375 L-331.332 362.9375 L-331.332 390.9375 L-411.332 390.9375 L-411.332 372.9375 Z" stroke="none" clip-path="url(#clipPath2)"/>
    </g>
    <g stroke-linecap="butt" transform="matrix(1,0,0,1,651,-162)" fill="rgb(153,153,153)" text-rendering="geometricPrecision" shape-rendering="geometricPrecision" stroke="rgb(153,153,153)" stroke-miterlimit="1.45">
      <path fill="none" d="M-401.332 362.9375 L-331.332 362.9375 L-331.332 390.9375 L-411.332 390.9375 L-411.332 372.9375 Z" clip-path="url(#clipPath2)"/>
    </g>
    <g font-size="11px" stroke-linecap="butt" transform="matrix(1,0,0,1,651,-162)" text-rendering="geometricPrecision" font-family="sans-serif" shape-rendering="geometricPrecision" stroke-miterlimit="1.45">
      <text x="-383.7097" xml:space="preserve" y="380.7456" clip-path="url(#clipPath2)" stroke="none">boot</text>
    </g>
    <g fill="url(#linearGradient17)" text-rendering="geometricPrecision" shape-rendering="geometricPrecision" transform="matrix(1,0,0,1,651,-162)" stroke="url(#linearGradient17)">
      <path d="M-225.5195 362.9375 L-155.5195 362.9375 L-155.5195 390.9375 L-235.5195 390.9375 L-235.5195 372.9375 Z" stroke="none" clip-path="url(#clipPath2)"/>
    </g>
    <g stroke-linecap="butt" transform="matrix(1,0,0,1,651,-162)" fill="rgb(153,153,153)" text-rendering="geometricPrecision" shape-rendering="geometricPrecision" stroke="rgb(153,153,153)" stroke-miterlimit="1.45">
      <path fill="none" d="M-225.5195 362.9375 L-155.5195 362.9375 L-155.5195 390.9375 L-235.5195 390.9375 L-235.5195 372.9375 Z" clip-path="url(#clipPath2)"/>
    </g>
    <g font-size="11px" stroke-linecap="butt" transform="matrix(1,0,0,1,651,-162)" text-rendering="geometricPrecision" font-family="sans-serif" shape-rendering="geometricPrecision" stroke-miterlimit="1.45">
      <text x="-200.7644" xml:space="preserve" y="380.7456" clip-path="url(#clipPath2)" stroke="none">...</text>
    </g>
    <g fill="url(#linearGradient18)" text-rendering="geometricPrecision" shape-rendering="geometricPrecision" transform="matrix(1,0,0,1,651,-162)" stroke="url(#linearGradient18)">
      <path d="M-238.9648 406.3125 L-168.9648 406.3125 L-168.9648 434.3125 L-248.9648 434.3125 L-248.9648 416.3125 Z" stroke="none" clip-path="url(#clipPath2)"/>
    </g>
    <g stroke-linecap="butt" transform="matrix(1,0,0,1,651,-162)" fill="rgb(153,153,153)" text-rendering="geometricPrecision" shape-rendering="geometricPrecision" stroke="rgb(153,153,153)" stroke-miterlimit="1.45">
      <path fill="none" d="M-238.9648 406.3125 L-168.9648 406.3125 L-168.9648 434.3125 L-248.9648 434.3125 L-248.9648 416.3125 Z" clip-path="url(#clipPath2)"/>
    </g>
    <g font-size="11px" stroke-linecap="butt" transform="matrix(1,0,0,1,651,-162)" text-rendering="geometricPrecision" font-family="sans-serif" shape-rendering="geometricPrecision" stroke-miterlimit="1.45">
      <text x="-220.3381" xml:space="preserve" y="424.1206" clip-path="url(#clipPath2)" stroke="none">web</text>
    </g>
    <g fill="url(#linearGradient19)" text-rendering="geometricPrecision" shape-rendering="geometricPrecision" transform="matrix(1,0,0,1,651,-162)" stroke="url(#linearGradient19)">
      <path d="M-500.4688 454.8075 L-430.4688 454.8075 L-430.4688 482.8075 L-510.4688 482.8075 L-510.4688 464.8075 Z" stroke="none" clip-path="url(#clipPath2)"/>
    </g>
    <g stroke-linecap="butt" transform="matrix(1,0,0,1,651,-162)" fill="rgb(0,204,255)" text-rendering="geometricPrecision" shape-rendering="geometricPrecision" stroke="rgb(0,204,255)" stroke-width="2" stroke-miterlimit="1.45">
      <path fill="none" d="M-500.4688 454.8075 L-430.4688 454.8075 L-430.4688 482.8075 L-510.4688 482.8075 L-510.4688 464.8075 Z" clip-path="url(#clipPath2)"/>
    </g>
    <g font-size="11px" stroke-linecap="butt" transform="matrix(1,0,0,1,651,-162)" text-rendering="geometricPrecision" font-family="sans-serif" shape-rendering="geometricPrecision" stroke-miterlimit="1.45">
      <text x="-487.5999" xml:space="preserve" y="472.6156" clip-path="url(#clipPath2)" stroke="none">image</text>
    </g>
    <g fill="url(#linearGradient20)" text-rendering="geometricPrecision" shape-rendering="geometricPrecision" transform="matrix(1,0,0,1,651,-162)" stroke="url(#linearGradient20)">
      <path d="M-401.332 454.8075 L-331.332 454.8075 L-331.332 482.8075 L-411.332 482.8075 L-411.332 464.8075 Z" stroke="none" clip-path="url(#clipPath2)"/>
    </g>
    <g stroke-linecap="butt" transform="matrix(1,0,0,1,651,-162)" fill="rgb(153,153,153)" text-rendering="geometricPrecision" shape-rendering="geometricPrecision" stroke="rgb(153,153,153)" stroke-miterlimit="1.45">
      <path fill="none" d="M-401.332 454.8075 L-331.332 454.8075 L-331.332 482.8075 L-411.332 482.8075 L-411.332 464.8075 Z" clip-path="url(#clipPath2)"/>
    </g>
    <g font-size="11px" stroke-linecap="butt" transform="matrix(1,0,0,1,651,-162)" text-rendering="geometricPrecision" font-family="sans-serif" shape-rendering="geometricPrecision" stroke-miterlimit="1.45">
      <text x="-382.4797" xml:space="preserve" y="472.6156" clip-path="url(#clipPath2)" stroke="none">root</text>
    </g>
    <g fill="url(#linearGradient21)" text-rendering="geometricPrecision" shape-rendering="geometricPrecision" transform="matrix(1,0,0,1,651,-162)" stroke="url(#linearGradient21)">
      <path d="M-554.5285 500.7425 L-489.47 500.7425 L-489.47 528.7425 L-554.5285 528.7425 Z" stroke="none" clip-path="url(#clipPath2)"/>
    </g>
    <g stroke-linecap="butt" transform="matrix(1,0,0,1,651,-162)" fill="rgb(153,204,255)" text-rendering="geometricPrecision" shape-rendering="geometricPrecision" stroke="rgb(153,204,255)" stroke-miterlimit="1.45">
      <path fill="none" d="M-554.5285 500.7425 L-489.47 500.7425 L-489.47 528.7425 L-554.5285 528.7425 Z" clip-path="url(#clipPath2)"/>
    </g>
    <g font-size="11px" stroke-linecap="butt" transform="matrix(1,0,0,1,651,-162)" text-rendering="geometricPrecision" font-family="sans-serif" shape-rendering="geometricPrecision" font-style="italic" stroke-miterlimit="1.45">
      <text x="-550.3989" xml:space="preserve" y="518.5506" clip-path="url(#clipPath2)" stroke="none">gislab.img</text>
    </g>
    <g fill="url(#linearGradient22)" text-rendering="geometricPrecision" shape-rendering="geometricPrecision" transform="matrix(1,0,0,1,651,-162)" stroke="url(#linearGradient22)">
      <path d="M-475.9949 500.7425 L-324.6289 500.7425 L-324.6289 528.7425 L-475.9949 528.7425 Z" stroke="none" clip-path="url(#clipPath2)"/>
    </g>
    <g stroke-linecap="butt" transform="matrix(1,0,0,1,651,-162)" fill="rgb(153,204,255)" text-rendering="geometricPrecision" shape-rendering="geometricPrecision" stroke="rgb(153,204,255)" stroke-miterlimit="1.45">
      <path fill="none" d="M-475.9949 500.7425 L-324.6289 500.7425 L-324.6289 528.7425 L-475.9949 528.7425 Z" clip-path="url(#clipPath2)"/>
    </g>
    <g font-size="11px" stroke-linecap="butt" transform="matrix(1,0,0,1,651,-162)" text-rendering="geometricPrecision" font-family="sans-serif" shape-rendering="geometricPrecision" font-style="italic" stroke-miterlimit="1.45">
      <text x="-473.0231" xml:space="preserve" y="518.5506" clip-path="url(#clipPath2)" stroke="none">gislab-desktop.buildstamp</text>
    </g>
    <g stroke-linecap="round" transform="matrix(1,0,0,1,651,-162)" stroke-dashoffset="2" fill="rgb(153,153,153)" text-rendering="geometricPrecision" shape-rendering="geometricPrecision" stroke-dasharray="0,4" stroke="rgb(153,153,153)" stroke-miterlimit="1.45">
      <path fill="none" d="M-447.8906 347.5831 L-447.8906 358.9196" clip-path="url(#clipPath2)"/>
    </g>
    <g stroke-linecap="round" transform="matrix(1,0,0,1,651,-162)" fill-opacity="0" stroke-dashoffset="2" fill="rgb(0,0,0)" text-rendering="geometricPrecision" shape-rendering="geometricPrecision" stroke-dasharray="0,4" stroke="rgb(0,0,0)" stroke-opacity="0" stroke-miterlimit="1.45">
      <path d="M-447.8906 366.9196 C-450.0998 366.9196 -451.8906 365.1288 -451.8906 362.9196 C-451.8906 360.7105 -450.0998 358.9196 -447.8906 358.9196 C-445.6815 358.9196 -443.8906 360.7105 -443.8906 362.9196 C-443.8906 365.1288 -445.6815 366.9196 -447.8906 366.9196 Z" stroke="none" clip-path="url(#clipPath2)"/>
    </g>
    <g stroke-linecap="butt" transform="matrix(1,0,0,1,651,-162)" fill="rgb(153,153,153)" text-rendering="geometricPrecision" shape-rendering="geometricPrecision" stroke="rgb(153,153,153)" stroke-miterlimit="1.45">
      <path fill="none" d="M-447.8906 366.9196 C-450.0998 366.9196 -451.8906 365.1288 -451.8906 362.9196 C-451.8906 360.7105 -450.0998 358.9196 -447.8906 358.9196 C-445.6815 358.9196 -443.8906 360.7105 -443.8906 362.9196 C-443.8906 365.1288 -445.6815 366.9196 -447.8906 366.9196 Z" clip-path="url(#clipPath2)"/>
      <path fill="none" stroke-dasharray="0,4" d="M-584.9844 347.5831 L-584.9844 358.9196" stroke-dashoffset="2" clip-path="url(#clipPath2)" stroke-linecap="round"/>
    </g>
    <g stroke-linecap="round" transform="matrix(1,0,0,1,651,-162)" fill-opacity="0" stroke-dashoffset="2" fill="rgb(0,0,0)" text-rendering="geometricPrecision" shape-rendering="geometricPrecision" stroke-dasharray="0,4" stroke="rgb(0,0,0)" stroke-opacity="0" stroke-miterlimit="1.45">
      <path d="M-584.9844 366.9196 C-587.1935 366.9196 -588.9844 365.1288 -588.9844 362.9196 C-588.9844 360.7105 -587.1935 358.9196 -584.9844 358.9196 C-582.7752 358.9196 -580.9844 360.7105 -580.9844 362.9196 C-580.9844 365.1288 -582.7752 366.9196 -584.9844 366.9196 Z" stroke="none" clip-path="url(#clipPath2)"/>
    </g>
    <g stroke-linecap="butt" transform="matrix(1,0,0,1,651,-162)" fill="rgb(153,153,153)" text-rendering="geometricPrecision" shape-rendering="geometricPrecision" stroke="rgb(153,153,153)" stroke-miterlimit="1.45">
      <path fill="none" d="M-584.9844 366.9196 C-587.1935 366.9196 -588.9844 365.1288 -588.9844 362.9196 C-588.9844 360.7105 -587.1935 358.9196 -584.9844 358.9196 C-582.7752 358.9196 -580.9844 360.7105 -580.9844 362.9196 C-580.9844 365.1288 -582.7752 366.9196 -584.9844 366.9196 Z" clip-path="url(#clipPath2)"/>
      <path fill="none" d="M-445.139 256.9997 L-474.5233 274.1833" clip-path="url(#clipPath2)"/>
      <path d="M-477.9762 276.2026 L-468.0415 277.3435 L-473.6601 273.6786 L-474.0992 266.9847 Z" clip-path="url(#clipPath2)" stroke="none"/>
      <path fill="none" d="M-484.4619 304.187 L-468.4734 317.0296" clip-path="url(#clipPath2)"/>
      <path d="M-465.3548 319.5345 L-467.8345 309.8468 L-469.253 316.4034 L-475.3493 319.2025 Z" clip-path="url(#clipPath2)" stroke="none"/>
      <path fill="none" d="M-517.5789 304.1812 L-549.2275 317.9765" clip-path="url(#clipPath2)"/>
      <path d="M-552.8943 319.5748 L-543.1633 321.8784 L-548.3109 317.5769 L-547.9582 310.878 Z" clip-path="url(#clipPath2)" stroke="none"/>
      <path fill="none" d="M-390.2393 210.6747 L-331.3498 231.4736" clip-path="url(#clipPath2)"/>
      <path d="M-327.5781 232.8057 L-333.1233 224.484 L-332.2927 231.1405 L-337.1196 235.799 Z" clip-path="url(#clipPath2)" stroke="none"/>
      <path fill="none" d="M-459.7885 212.7828 L-506.8448 235.2991" clip-path="url(#clipPath2)"/>
      <path d="M-510.453 237.0257 L-500.6468 238.9849 L-505.9427 234.8675 L-505.8264 228.1603 Z" clip-path="url(#clipPath2)" stroke="none"/>
      <path fill="none" d="M-446.9908 215.8808 L-461.8084 230.0612" clip-path="url(#clipPath2)"/>
      <path d="M-464.6983 232.8268 L-454.7701 231.6304 L-461.0859 229.3698 L-463.0669 222.9608 Z" clip-path="url(#clipPath2)" stroke="none"/>
      <path fill="none" d="M-427.7188 217.4479 L-427.7188 228.7897" clip-path="url(#clipPath2)"/>
      <path d="M-427.7188 232.7897 L-421.7188 224.7897 L-427.7188 227.7897 L-433.7188 224.7897 Z" clip-path="url(#clipPath2)" stroke="none"/>
      <path fill="none" d="M-411.8253 216.4112 L-395.4188 235.9974" clip-path="url(#clipPath2)"/>
      <path d="M-392.8502 239.0637 L-393.3878 229.0782 L-396.0609 235.2308 L-402.5868 236.7839 Z" clip-path="url(#clipPath2)" stroke="none"/>
      <path fill="none" d="M-376.125 260.8331 L-376.125 272.1696" clip-path="url(#clipPath2)"/>
      <path d="M-376.125 276.1696 L-370.125 268.1696 L-376.125 271.1696 L-382.125 268.1696 Z" clip-path="url(#clipPath2)" stroke="none"/>
      <path fill="none" d="M-336.1021 302.7806 L-286.5609 318.3687" clip-path="url(#clipPath2)"/>
      <path d="M-282.7453 319.5693 L-288.5756 311.4448 L-287.5147 318.0686 L-292.1773 322.8915 Z" clip-path="url(#clipPath2)" stroke="none"/>
      <path fill="none" d="M-283.4258 347.5831 L-283.4258 358.9196" clip-path="url(#clipPath2)"/>
      <path d="M-283.4258 362.9196 L-277.4258 354.9196 L-283.4258 357.9196 L-289.4258 354.9196 Z" clip-path="url(#clipPath2)" stroke="none"/>
      <path fill="none" d="M-310.2526 390.9557 L-340.9752 407.0096" clip-path="url(#clipPath2)"/>
      <path d="M-344.5203 408.8622 L-334.6512 410.4749 L-340.0889 406.5465 L-340.2088 399.8394 Z" clip-path="url(#clipPath2)" stroke="none"/>
      <path fill="none" d="M-311.7979 347.562 L-339.3441 361.1539" clip-path="url(#clipPath2)"/>
      <path d="M-342.9312 362.9239 L-333.1021 364.7646 L-338.4474 360.7114 L-338.412 354.0033 Z" clip-path="url(#clipPath2)" stroke="none"/>
      <path fill="none" d="M-255.0537 347.562 L-227.5074 361.1539" clip-path="url(#clipPath2)"/>
      <path d="M-223.9203 362.9239 L-228.4396 354.0033 L-228.4042 360.7114 L-233.7495 364.7646 Z" clip-path="url(#clipPath2)" stroke="none"/>
      <path fill="none" d="M-259.3932 390.937 L-236.4781 404.2855" clip-path="url(#clipPath2)"/>
      <path d="M-233.0217 406.2989 L-236.9144 397.0876 L-237.3422 403.7821 L-242.9545 407.4566 Z" clip-path="url(#clipPath2)" stroke="none"/>
      <path fill="none" d="M-401.562 436.8795 L-436.5918 453.1106" clip-path="url(#clipPath2)"/>
      <path d="M-440.2211 454.7922 L-430.44 456.873 L-435.6844 452.6902 L-435.4849 445.985 Z" clip-path="url(#clipPath2)" stroke="none"/>
    </g>
    <g stroke-linecap="round" transform="matrix(1,0,0,1,651,-162)" stroke-dashoffset="2" fill="red" text-rendering="geometricPrecision" shape-rendering="geometricPrecision" stroke-dasharray="0,4" stroke="red" stroke-miterlimit="1.45">
      <path fill="none" d="M-502.664 457.0244 L-593.5679 393.2252" clip-path="url(#clipPath2)"/>
      <path d="M-596.842 390.9273 L-593.7406 400.4342 L-592.7494 393.7997 L-586.847 390.6119 Z" clip-path="url(#clipPath2)" stroke="none"/>
      <rect x="-560.3959" y="414.5589" clip-path="url(#clipPath2)" fill="white" width="18.3945" height="16.8047" stroke="none"/>
    </g>
    <g stroke-linecap="butt" font-size="11px" transform="matrix(1,0,0,1,651,-162)" fill="red" text-rendering="geometricPrecision" font-family="sans-serif" shape-rendering="geometricPrecision" stroke="red" font-weight="bold" stroke-miterlimit="1.45">
      <text x="-558.3959" xml:space="preserve" y="426.7694" clip-path="url(#clipPath2)" stroke="none">cp</text>
    </g>
    <g stroke-linecap="butt" transform="matrix(1,0,0,1,651,-162)" fill="rgb(153,153,153)" text-rendering="geometricPrecision" shape-rendering="geometricPrecision" stroke="rgb(153,153,153)" stroke-miterlimit="1.45">
      <path fill="none" d="M-371.332 436.9132 L-371.332 450.8226" clip-path="url(#clipPath2)"/>
      <path d="M-371.332 454.8226 L-365.332 446.8226 L-371.332 449.8226 L-377.332 446.8226 Z" clip-path="url(#clipPath2)" stroke="none"/>
    </g>
    <g stroke-linecap="round" transform="matrix(1,0,0,1,651,-162)" stroke-dashoffset="2" fill="red" text-rendering="geometricPrecision" shape-rendering="geometricPrecision" stroke-dasharray="0,4" stroke="red" stroke-miterlimit="1.45">
      <path fill="none" d="M-405.7911 459.2617 L-551.045 349.9591" clip-path="url(#clipPath2)"/>
      <path d="M-554.2411 347.554 L-551.4565 357.1585 L-550.246 350.5604 L-544.2411 347.57 Z" clip-path="url(#clipPath2)" stroke="none"/>
      <rect x="-509.5583" y="381.0925" clip-path="url(#clipPath2)" fill="white" width="22.106" height="16.8047" stroke="none"/>
    </g>
    <g stroke-linecap="butt" font-size="11px" transform="matrix(1,0,0,1,651,-162)" fill="red" text-rendering="geometricPrecision" font-family="sans-serif" shape-rendering="geometricPrecision" stroke="red" font-weight="bold" stroke-miterlimit="1.45">
      <text x="-507.5583" xml:space="preserve" y="393.3029" clip-path="url(#clipPath2)" stroke="none">tar</text>
    </g>
    <g stroke-linecap="butt" transform="matrix(1,0,0,1,651,-162)" fill="rgb(153,153,153)" text-rendering="geometricPrecision" shape-rendering="geometricPrecision" stroke="rgb(153,153,153)" stroke-miterlimit="1.45">
      <path fill="none" d="M-411.3643 468.8075 L-426.4405 468.8075" clip-path="url(#clipPath2)"/>
    </g>
    <g stroke-linecap="butt" transform="matrix(1,0,0,1,651,-162)" fill-opacity="0" fill="rgb(0,0,0)" text-rendering="geometricPrecision" shape-rendering="geometricPrecision" stroke="rgb(0,0,0)" stroke-opacity="0" stroke-miterlimit="1.45">
      <path d="M-434.4405 468.8075 C-434.4405 466.5984 -432.6496 464.8075 -430.4405 464.8075 C-428.2314 464.8075 -426.4405 466.5984 -426.4405 468.8075 C-426.4405 471.0166 -428.2314 472.8075 -430.4405 472.8075 C-432.6496 472.8075 -434.4405 471.0166 -434.4405 468.8075 Z" stroke="none" clip-path="url(#clipPath2)"/>
    </g>
    <g stroke-linecap="butt" transform="matrix(1,0,0,1,651,-162)" fill="rgb(153,153,153)" text-rendering="geometricPrecision" shape-rendering="geometricPrecision" stroke="rgb(153,153,153)" stroke-miterlimit="1.45">
      <path fill="none" d="M-434.4405 468.8075 C-434.4405 466.5984 -432.6496 464.8075 -430.4405 464.8075 C-428.2314 464.8075 -426.4405 466.5984 -426.4405 468.8075 C-426.4405 471.0166 -428.2314 472.8075 -430.4405 472.8075 C-432.6496 472.8075 -434.4405 471.0166 -434.4405 468.8075 Z" clip-path="url(#clipPath2)"/>
      <path fill="none" d="M-486.1946 482.8257 L-503.3139 498.0861" clip-path="url(#clipPath2)"/>
      <path d="M-506.2998 500.7478 L-496.3355 499.9033 L-502.5674 497.4207 L-504.3205 490.9456 Z" clip-path="url(#clipPath2)" stroke="none"/>
      <path fill="none" d="M-449.0586 482.8257 L-425.0565 498.541" clip-path="url(#clipPath2)"/>
      <path d="M-421.71 500.7322 L-425.1162 491.3302 L-425.8931 497.9933 L-431.6896 501.3697 Z" clip-path="url(#clipPath2)" stroke="none"/>
    </g>
  </g>
</svg>
