<?xml version="1.0" encoding="UTF-8"?><svg xmlns="http://www.w3.org/2000/svg" xmlns:xlink="http://www.w3.org/1999/xlink" fill-opacity="1" color-rendering="auto" color-interpolation="auto" text-rendering="auto" stroke="black" stroke-linecap="square" width="736" stroke-miterlimit="10" shape-rendering="auto" stroke-opacity="1" fill="black" stroke-dasharray="none" font-weight="normal" stroke-width="1" height="284" font-family="'Dialog'" font-style="normal" stroke-linejoin="miter" font-size="12px" stroke-dashoffset="0" image-rendering="auto">
  <!--Generated by ySVG 2.5-->
  <defs id="genericDefs"/>
  <g>
    <defs id="defs1">
      <linearGradient x1="371.7256" gradientUnits="userSpaceOnUse" x2="406.5694" y1="360.3775" y2="388.3775" id="linearGradient1" spreadMethod="reflect">
        <stop stop-opacity="1" stop-color="rgb(232,238,247)" offset="0%"/>
        <stop stop-opacity="1" stop-color="rgb(204,153,255)" offset="100%"/>
      </linearGradient>
      <linearGradient x1="212.0538" gradientUnits="userSpaceOnUse" x2="300.6684" y1="360.3775" y2="388.3775" id="linearGradient2" spreadMethod="reflect">
        <stop stop-opacity="1" stop-color="rgb(232,238,247)" offset="0%"/>
        <stop stop-opacity="1" stop-color="rgb(204,153,255)" offset="100%"/>
      </linearGradient>
      <linearGradient x1="368.6787" gradientUnits="userSpaceOnUse" x2="409.6162" y1="317.0025" y2="345.0025" id="linearGradient3" spreadMethod="reflect">
        <stop stop-opacity="1" stop-color="rgb(232,238,247)" offset="0%"/>
        <stop stop-opacity="1" stop-color="rgb(255,255,153)" offset="100%"/>
      </linearGradient>
      <linearGradient x1="146.0813" gradientUnits="userSpaceOnUse" x2="226.0813" y1="273.6275" y2="301.6275" id="linearGradient4" spreadMethod="reflect">
        <stop stop-opacity="1" stop-color="rgb(232,238,247)" offset="0%"/>
        <stop stop-opacity="1" stop-color="rgb(0,204,255)" offset="100%"/>
      </linearGradient>
      <linearGradient x1="425.7061" gradientUnits="userSpaceOnUse" x2="505.7061" y1="406.3125" y2="434.3125" id="linearGradient5" spreadMethod="reflect">
        <stop stop-opacity="1" stop-color="rgb(232,238,247)" offset="0%"/>
        <stop stop-opacity="1" stop-color="rgb(0,204,255)" offset="100%"/>
      </linearGradient>
      <linearGradient x1="326.5694" gradientUnits="userSpaceOnUse" x2="406.5694" y1="452.2475" y2="480.2475" id="linearGradient6" spreadMethod="reflect">
        <stop stop-opacity="1" stop-color="white" offset="0%"/>
        <stop stop-opacity="1" stop-color="rgb(204,153,255)" offset="100%"/>
      </linearGradient>
      <linearGradient x1="425.7061" gradientUnits="userSpaceOnUse" x2="505.7061" y1="452.2475" y2="480.2475" id="linearGradient7" spreadMethod="reflect">
        <stop stop-opacity="1" stop-color="rgb(232,238,247)" offset="0%"/>
        <stop stop-opacity="1" stop-color="rgb(0,204,255)" offset="100%"/>
      </linearGradient>
      <linearGradient x1="282.5096" gradientUnits="userSpaceOnUse" x2="347.5681" y1="498.1825" y2="526.1825" id="linearGradient8" spreadMethod="reflect">
        <stop stop-opacity="1" stop-color="rgb(232,238,247)" offset="0%"/>
        <stop stop-opacity="1" stop-color="rgb(255,255,153)" offset="100%"/>
      </linearGradient>
      <linearGradient x1="361.0432" gradientUnits="userSpaceOnUse" x2="512.4092" y1="498.1825" y2="526.1825" id="linearGradient9" spreadMethod="reflect">
        <stop stop-opacity="1" stop-color="rgb(232,238,247)" offset="0%"/>
        <stop stop-opacity="1" stop-color="rgb(255,255,153)" offset="100%"/>
      </linearGradient>
      <linearGradient x1="-100.7889" gradientUnits="userSpaceOnUse" x2="31.6952" y1="360.3775" y2="388.3775" id="linearGradient10" spreadMethod="reflect">
        <stop stop-opacity="1" stop-color="rgb(232,238,247)" offset="0%"/>
        <stop stop-opacity="1" stop-color="rgb(0,204,255)" offset="100%"/>
      </linearGradient>
      <linearGradient x1="-100.7889" gradientUnits="userSpaceOnUse" x2="31.6952" y1="317.0025" y2="345.0025" id="linearGradient11" spreadMethod="reflect">
        <stop stop-opacity="1" stop-color="rgb(232,238,247)" offset="0%"/>
        <stop stop-opacity="1" stop-color="rgb(255,255,153)" offset="100%"/>
      </linearGradient>
      <linearGradient x1="56.3819" gradientUnits="userSpaceOnUse" x2="188.8659" y1="360.3775" y2="388.3775" id="linearGradient12" spreadMethod="reflect">
        <stop stop-opacity="1" stop-color="rgb(232,238,247)" offset="0%"/>
        <stop stop-opacity="1" stop-color="rgb(0,204,255)" offset="100%"/>
      </linearGradient>
      <linearGradient x1="56.3819" gradientUnits="userSpaceOnUse" x2="188.8659" y1="317.0025" y2="345.0025" id="linearGradient13" spreadMethod="reflect">
        <stop stop-opacity="1" stop-color="rgb(232,238,247)" offset="0%"/>
        <stop stop-opacity="1" stop-color="rgb(255,255,153)" offset="100%"/>
      </linearGradient>
      <linearGradient x1="-110.0799" gradientUnits="userSpaceOnUse" x2="-45.0213" y1="407.3873" y2="435.3873" id="linearGradient14" spreadMethod="reflect">
        <stop stop-opacity="1" stop-color="rgb(232,238,247)" offset="0%"/>
        <stop stop-opacity="1" stop-color="rgb(255,255,153)" offset="100%"/>
      </linearGradient>
      <linearGradient x1="61.6952" gradientUnits="userSpaceOnUse" x2="126.7537" y1="406.3125" y2="434.3125" id="linearGradient15" spreadMethod="reflect">
        <stop stop-opacity="1" stop-color="rgb(232,238,247)" offset="0%"/>
        <stop stop-opacity="1" stop-color="rgb(255,255,153)" offset="100%"/>
      </linearGradient>
      <linearGradient x1="212.0538" gradientUnits="userSpaceOnUse" x2="300.6684" y1="317.0025" y2="345.0025" id="linearGradient16" spreadMethod="reflect">
        <stop stop-opacity="1" stop-color="rgb(232,238,247)" offset="0%"/>
        <stop stop-opacity="1" stop-color="rgb(255,255,153)" offset="100%"/>
      </linearGradient>
      <linearGradient x1="140.093" gradientUnits="userSpaceOnUse" x2="220.093" y1="406.3125" y2="434.3125" id="linearGradient17" spreadMethod="reflect">
        <stop stop-opacity="1" stop-color="rgb(232,238,247)" offset="0%"/>
        <stop stop-opacity="1" stop-color="rgb(255,255,153)" offset="100%"/>
      </linearGradient>
      <linearGradient x1="-31.6442" gradientUnits="userSpaceOnUse" x2="48.3558" y1="407.3873" y2="435.3873" id="linearGradient18" spreadMethod="reflect">
        <stop stop-opacity="1" stop-color="rgb(232,238,247)" offset="0%"/>
        <stop stop-opacity="1" stop-color="rgb(255,255,153)" offset="100%"/>
      </linearGradient>
      <linearGradient x1="469.8916" gradientUnits="userSpaceOnUse" x2="549.8917" y1="360.3775" y2="388.3775" id="linearGradient19" spreadMethod="reflect">
        <stop stop-opacity="1" stop-color="rgb(232,238,247)" offset="0%"/>
        <stop stop-opacity="1" stop-color="rgb(0,204,255)" offset="100%"/>
      </linearGradient>
      <linearGradient x1="514.0772" gradientUnits="userSpaceOnUse" x2="594.0772" y1="403.7525" y2="431.7525" id="linearGradient20" spreadMethod="reflect">
        <stop stop-opacity="1" stop-color="rgb(232,238,247)" offset="0%"/>
        <stop stop-opacity="1" stop-color="rgb(0,204,255)" offset="100%"/>
      </linearGradient>
      <clipPath clipPathUnits="userSpaceOnUse" id="clipPath1">
        <path d="M0 0 L736 0 L736 284 L0 284 L0 0 Z"/>
      </clipPath>
      <clipPath clipPathUnits="userSpaceOnUse" id="clipPath2">
        <path d="M-126 258 L610 258 L610 542 L-126 542 L-126 258 Z"/>
      </clipPath>
    </defs>
    <g fill="white" text-rendering="geometricPrecision" shape-rendering="geometricPrecision" transform="translate(126,-258)" stroke="white">
      <rect x="-126" width="736" height="284" y="258" clip-path="url(#clipPath2)" stroke="none"/>
    </g>
    <g fill="url(#linearGradient1)" text-rendering="geometricPrecision" shape-rendering="geometricPrecision" transform="matrix(1,0,0,1,126,-258)" stroke="url(#linearGradient1)">
      <path d="M381.7256 360.3775 L406.5694 360.3775 L406.5694 388.3775 L371.7256 388.3775 L371.7256 370.3775 Z" stroke="none" clip-path="url(#clipPath2)"/>
    </g>
    <g stroke-linecap="butt" transform="matrix(1,0,0,1,126,-258)" fill="rgb(153,153,153)" text-rendering="geometricPrecision" shape-rendering="geometricPrecision" stroke="rgb(153,153,153)" stroke-miterlimit="1.45">
      <path fill="none" d="M381.7256 360.3775 L406.5694 360.3775 L406.5694 388.3775 L371.7256 388.3775 L371.7256 370.3775 Z" clip-path="url(#clipPath2)"/>
    </g>
    <g font-size="11px" stroke-linecap="butt" transform="matrix(1,0,0,1,126,-258)" text-rendering="geometricPrecision" font-family="sans-serif" shape-rendering="geometricPrecision" stroke-miterlimit="1.45">
      <text x="383.9026" xml:space="preserve" y="378.1856" clip-path="url(#clipPath2)" stroke="none">...</text>
    </g>
    <g fill="url(#linearGradient2)" text-rendering="geometricPrecision" shape-rendering="geometricPrecision" transform="matrix(1,0,0,1,126,-258)" stroke="url(#linearGradient2)">
      <path d="M222.0538 360.3775 L300.6684 360.3775 L300.6684 388.3775 L212.0538 388.3775 L212.0538 370.3775 Z" stroke="none" clip-path="url(#clipPath2)"/>
    </g>
    <g stroke-linecap="butt" transform="matrix(1,0,0,1,126,-258)" fill="rgb(153,153,153)" text-rendering="geometricPrecision" shape-rendering="geometricPrecision" stroke="rgb(153,153,153)" stroke-miterlimit="1.45">
      <path fill="none" d="M222.0538 360.3775 L300.6684 360.3775 L300.6684 388.3775 L212.0538 388.3775 L212.0538 370.3775 Z" clip-path="url(#clipPath2)"/>
    </g>
    <g font-size="11px" stroke-linecap="butt" transform="matrix(1,0,0,1,126,-258)" text-rendering="geometricPrecision" font-family="sans-serif" shape-rendering="geometricPrecision" stroke-miterlimit="1.45">
      <text x="230.0132" xml:space="preserve" y="378.1856" clip-path="url(#clipPath2)" stroke="none">&lt;image&gt;</text>
    </g>
    <g fill="url(#linearGradient3)" text-rendering="geometricPrecision" shape-rendering="geometricPrecision" transform="matrix(1,0,0,1,126,-258)" stroke="url(#linearGradient3)">
      <path d="M368.6787 317.0025 L409.6162 317.0025 L409.6162 345.0025 L368.6787 345.0025 Z" stroke="none" clip-path="url(#clipPath2)"/>
    </g>
    <g stroke-linecap="butt" transform="matrix(1,0,0,1,126,-258)" fill="rgb(153,204,255)" text-rendering="geometricPrecision" shape-rendering="geometricPrecision" stroke="rgb(153,204,255)" stroke-miterlimit="1.45">
      <path fill="none" d="M368.6787 317.0025 L409.6162 317.0025 L409.6162 345.0025 L368.6787 345.0025 Z" clip-path="url(#clipPath2)"/>
    </g>
    <g font-size="11px" stroke-linecap="butt" transform="matrix(1,0,0,1,126,-258)" text-rendering="geometricPrecision" font-family="sans-serif" shape-rendering="geometricPrecision" font-style="italic" stroke-miterlimit="1.45">
      <text x="383.9026" xml:space="preserve" y="334.8106" clip-path="url(#clipPath2)" stroke="none">...</text>
    </g>
    <g fill="url(#linearGradient4)" text-rendering="geometricPrecision" shape-rendering="geometricPrecision" transform="matrix(1,0,0,1,126,-258)" stroke="url(#linearGradient4)">
      <path d="M156.0813 273.6275 L226.0813 273.6275 L226.0813 301.6275 L146.0813 301.6275 L146.0813 283.6275 Z" stroke="none" clip-path="url(#clipPath2)"/>
    </g>
    <g stroke-linecap="butt" transform="matrix(1,0,0,1,126,-258)" fill="rgb(153,153,153)" text-rendering="geometricPrecision" shape-rendering="geometricPrecision" stroke="rgb(153,153,153)" stroke-miterlimit="1.45">
      <path fill="none" d="M156.0813 273.6275 L226.0813 273.6275 L226.0813 301.6275 L146.0813 301.6275 L146.0813 283.6275 Z" clip-path="url(#clipPath2)"/>
    </g>
    <g font-size="11px" stroke-linecap="butt" transform="matrix(1,0,0,1,126,-258)" text-rendering="geometricPrecision" font-family="sans-serif" shape-rendering="geometricPrecision" stroke-miterlimit="1.45">
      <text x="166.0336" xml:space="preserve" y="291.4356" clip-path="url(#clipPath2)" stroke="none">backup</text>
    </g>
    <g fill="url(#linearGradient5)" text-rendering="geometricPrecision" shape-rendering="geometricPrecision" transform="matrix(1,0,0,1,126,-258)" stroke="url(#linearGradient5)">
      <path d="M435.7061 406.3125 L505.7061 406.3125 L505.7061 434.3125 L425.7061 434.3125 L425.7061 416.3125 Z" stroke="none" clip-path="url(#clipPath2)"/>
    </g>
    <g stroke-linecap="butt" transform="matrix(1,0,0,1,126,-258)" fill="rgb(153,153,153)" text-rendering="geometricPrecision" shape-rendering="geometricPrecision" stroke="rgb(153,153,153)" stroke-miterlimit="1.45">
      <path fill="none" d="M435.7061 406.3125 L505.7061 406.3125 L505.7061 434.3125 L425.7061 434.3125 L425.7061 416.3125 Z" clip-path="url(#clipPath2)"/>
    </g>
    <g font-size="11px" stroke-linecap="butt" transform="matrix(1,0,0,1,126,-258)" text-rendering="geometricPrecision" font-family="sans-serif" shape-rendering="geometricPrecision" stroke-miterlimit="1.45">
      <text x="443.7679" xml:space="preserve" y="424.1206" clip-path="url(#clipPath2)" stroke="none">desktop</text>
    </g>
    <g fill="url(#linearGradient6)" text-rendering="geometricPrecision" shape-rendering="geometricPrecision" transform="matrix(1,0,0,1,126,-258)" stroke="url(#linearGradient6)">
      <path d="M336.5694 452.2475 L406.5694 452.2475 L406.5694 480.2475 L326.5694 480.2475 L326.5694 462.2475 Z" stroke="none" clip-path="url(#clipPath2)"/>
    </g>
    <g stroke-linecap="butt" transform="matrix(1,0,0,1,126,-258)" fill="rgb(0,204,255)" text-rendering="geometricPrecision" shape-rendering="geometricPrecision" stroke="rgb(0,204,255)" stroke-width="2" stroke-miterlimit="1.45">
      <path fill="none" d="M336.5694 452.2475 L406.5694 452.2475 L406.5694 480.2475 L326.5694 480.2475 L326.5694 462.2475 Z" clip-path="url(#clipPath2)"/>
    </g>
    <g font-size="11px" stroke-linecap="butt" transform="matrix(1,0,0,1,126,-258)" text-rendering="geometricPrecision" font-family="sans-serif" shape-rendering="geometricPrecision" stroke-miterlimit="1.45">
      <text x="349.4383" xml:space="preserve" y="470.0556" clip-path="url(#clipPath2)" stroke="none">image</text>
    </g>
    <g fill="url(#linearGradient7)" text-rendering="geometricPrecision" shape-rendering="geometricPrecision" transform="matrix(1,0,0,1,126,-258)" stroke="url(#linearGradient7)">
      <path d="M435.7061 452.2475 L505.7061 452.2475 L505.7061 480.2475 L425.7061 480.2475 L425.7061 462.2475 Z" stroke="none" clip-path="url(#clipPath2)"/>
    </g>
    <g stroke-linecap="butt" transform="matrix(1,0,0,1,126,-258)" fill="rgb(153,153,153)" text-rendering="geometricPrecision" shape-rendering="geometricPrecision" stroke="rgb(153,153,153)" stroke-miterlimit="1.45">
      <path fill="none" d="M435.7061 452.2475 L505.7061 452.2475 L505.7061 480.2475 L425.7061 480.2475 L425.7061 462.2475 Z" clip-path="url(#clipPath2)"/>
    </g>
    <g font-size="11px" stroke-linecap="butt" transform="matrix(1,0,0,1,126,-258)" text-rendering="geometricPrecision" font-family="sans-serif" shape-rendering="geometricPrecision" stroke-miterlimit="1.45">
      <text x="454.5584" xml:space="preserve" y="470.0556" clip-path="url(#clipPath2)" stroke="none">root</text>
    </g>
    <g fill="url(#linearGradient8)" text-rendering="geometricPrecision" shape-rendering="geometricPrecision" transform="matrix(1,0,0,1,126,-258)" stroke="url(#linearGradient8)">
      <path d="M282.5096 498.1825 L347.5681 498.1825 L347.5681 526.1825 L282.5096 526.1825 Z" stroke="none" clip-path="url(#clipPath2)"/>
    </g>
    <g stroke-linecap="butt" transform="matrix(1,0,0,1,126,-258)" fill="rgb(153,204,255)" text-rendering="geometricPrecision" shape-rendering="geometricPrecision" stroke="rgb(153,204,255)" stroke-miterlimit="1.45">
      <path fill="none" d="M282.5096 498.1825 L347.5681 498.1825 L347.5681 526.1825 L282.5096 526.1825 Z" clip-path="url(#clipPath2)"/>
    </g>
    <g font-size="11px" stroke-linecap="butt" transform="matrix(1,0,0,1,126,-258)" text-rendering="geometricPrecision" font-family="sans-serif" shape-rendering="geometricPrecision" font-style="italic" stroke-miterlimit="1.45">
      <text x="286.6392" xml:space="preserve" y="515.9906" clip-path="url(#clipPath2)" stroke="none">gislab.img</text>
    </g>
    <g fill="url(#linearGradient9)" text-rendering="geometricPrecision" shape-rendering="geometricPrecision" transform="matrix(1,0,0,1,126,-258)" stroke="url(#linearGradient9)">
      <path d="M361.0432 498.1825 L512.4092 498.1825 L512.4092 526.1825 L361.0432 526.1825 Z" stroke="none" clip-path="url(#clipPath2)"/>
    </g>
    <g stroke-linecap="butt" transform="matrix(1,0,0,1,126,-258)" fill="rgb(153,204,255)" text-rendering="geometricPrecision" shape-rendering="geometricPrecision" stroke="rgb(153,204,255)" stroke-miterlimit="1.45">
      <path fill="none" d="M361.0432 498.1825 L512.4092 498.1825 L512.4092 526.1825 L361.0432 526.1825 Z" clip-path="url(#clipPath2)"/>
    </g>
    <g font-size="11px" stroke-linecap="butt" transform="matrix(1,0,0,1,126,-258)" text-rendering="geometricPrecision" font-family="sans-serif" shape-rendering="geometricPrecision" font-style="italic" stroke-miterlimit="1.45">
      <text x="364.0151" xml:space="preserve" y="515.9906" clip-path="url(#clipPath2)" stroke="none">gislab-desktop.buildstamp</text>
    </g>
    <g fill="url(#linearGradient10)" text-rendering="geometricPrecision" shape-rendering="geometricPrecision" transform="matrix(1,0,0,1,126,-258)" stroke="url(#linearGradient10)">
      <path d="M-90.7889 360.3775 L31.6952 360.3775 L31.6952 388.3775 L-100.7889 388.3775 L-100.7889 370.3775 Z" stroke="none" clip-path="url(#clipPath2)"/>
    </g>
    <g stroke-linecap="butt" transform="matrix(1,0,0,1,126,-258)" fill="rgb(153,153,153)" text-rendering="geometricPrecision" shape-rendering="geometricPrecision" stroke="rgb(153,153,153)" stroke-miterlimit="1.45">
      <path fill="none" d="M-90.7889 360.3775 L31.6952 360.3775 L31.6952 388.3775 L-100.7889 388.3775 L-100.7889 370.3775 Z" clip-path="url(#clipPath2)"/>
    </g>
    <g font-size="11px" stroke-linecap="butt" transform="matrix(1,0,0,1,126,-258)" text-rendering="geometricPrecision" font-family="sans-serif" shape-rendering="geometricPrecision" stroke-miterlimit="1.45">
      <text x="-78.1736" xml:space="preserve" y="378.1856" clip-path="url(#clipPath2)" stroke="none">image-beginner</text>
    </g>
    <g fill="url(#linearGradient11)" text-rendering="geometricPrecision" shape-rendering="geometricPrecision" transform="matrix(1,0,0,1,126,-258)" stroke="url(#linearGradient11)">
      <path d="M-100.7889 317.0025 L31.6952 317.0025 L31.6952 345.0025 L-100.7889 345.0025 Z" stroke="none" clip-path="url(#clipPath2)"/>
    </g>
    <g stroke-linecap="butt" transform="matrix(1,0,0,1,126,-258)" fill="rgb(153,204,255)" text-rendering="geometricPrecision" shape-rendering="geometricPrecision" stroke="rgb(153,204,255)" stroke-miterlimit="1.45">
      <path fill="none" d="M-100.7889 317.0025 L31.6952 317.0025 L31.6952 345.0025 L-100.7889 345.0025 Z" clip-path="url(#clipPath2)"/>
    </g>
    <g font-size="11px" stroke-linecap="butt" transform="matrix(1,0,0,1,126,-258)" text-rendering="geometricPrecision" font-family="sans-serif" shape-rendering="geometricPrecision" font-style="italic" stroke-miterlimit="1.45">
      <text x="-93.3523" xml:space="preserve" y="334.8106" clip-path="url(#clipPath2)" stroke="none">root-beginner.tar.bz2</text>
    </g>
    <g fill="url(#linearGradient12)" text-rendering="geometricPrecision" shape-rendering="geometricPrecision" transform="matrix(1,0,0,1,126,-258)" stroke="url(#linearGradient12)">
      <path d="M66.3819 360.3775 L188.8659 360.3775 L188.8659 388.3775 L56.3819 388.3775 L56.3819 370.3775 Z" stroke="none" clip-path="url(#clipPath2)"/>
    </g>
    <g stroke-linecap="butt" transform="matrix(1,0,0,1,126,-258)" fill="rgb(153,153,153)" text-rendering="geometricPrecision" shape-rendering="geometricPrecision" stroke="rgb(153,153,153)" stroke-miterlimit="1.45">
      <path fill="none" d="M66.3819 360.3775 L188.8659 360.3775 L188.8659 388.3775 L56.3819 388.3775 L56.3819 370.3775 Z" clip-path="url(#clipPath2)"/>
    </g>
    <g font-size="11px" stroke-linecap="butt" transform="matrix(1,0,0,1,126,-258)" text-rendering="geometricPrecision" font-family="sans-serif" shape-rendering="geometricPrecision" stroke-miterlimit="1.45">
      <text x="76.6366" xml:space="preserve" y="378.1856" clip-path="url(#clipPath2)" stroke="none">image-advanced</text>
    </g>
    <g fill="url(#linearGradient13)" text-rendering="geometricPrecision" shape-rendering="geometricPrecision" transform="matrix(1,0,0,1,126,-258)" stroke="url(#linearGradient13)">
      <path d="M56.3819 317.0025 L188.8659 317.0025 L188.8659 345.0025 L56.3819 345.0025 Z" stroke="none" clip-path="url(#clipPath2)"/>
    </g>
    <g stroke-linecap="butt" transform="matrix(1,0,0,1,126,-258)" fill="rgb(153,204,255)" text-rendering="geometricPrecision" shape-rendering="geometricPrecision" stroke="rgb(153,204,255)" stroke-miterlimit="1.45">
      <path fill="none" d="M56.3819 317.0025 L188.8659 317.0025 L188.8659 345.0025 L56.3819 345.0025 Z" clip-path="url(#clipPath2)"/>
    </g>
    <g font-size="11px" stroke-linecap="butt" transform="matrix(1,0,0,1,126,-258)" text-rendering="geometricPrecision" font-family="sans-serif" shape-rendering="geometricPrecision" font-style="italic" stroke-miterlimit="1.45">
      <text x="61.4579" xml:space="preserve" y="334.8106" clip-path="url(#clipPath2)" stroke="none">root-advanced.tar.bz2</text>
    </g>
    <g fill="url(#linearGradient14)" text-rendering="geometricPrecision" shape-rendering="geometricPrecision" transform="matrix(1,0,0,1,126,-258)" stroke="url(#linearGradient14)">
      <path d="M-110.0799 407.3873 L-45.0213 407.3873 L-45.0213 435.3873 L-110.0799 435.3873 Z" stroke="none" clip-path="url(#clipPath2)"/>
    </g>
    <g stroke-linecap="butt" transform="matrix(1,0,0,1,126,-258)" fill="rgb(153,204,255)" text-rendering="geometricPrecision" shape-rendering="geometricPrecision" stroke="rgb(153,204,255)" stroke-miterlimit="1.45">
      <path fill="none" d="M-110.0799 407.3873 L-45.0213 407.3873 L-45.0213 435.3873 L-110.0799 435.3873 Z" clip-path="url(#clipPath2)"/>
    </g>
    <g font-size="11px" stroke-linecap="butt" transform="matrix(1,0,0,1,126,-258)" text-rendering="geometricPrecision" font-family="sans-serif" shape-rendering="geometricPrecision" font-style="italic" stroke-miterlimit="1.45">
      <text x="-105.9502" xml:space="preserve" y="425.1954" clip-path="url(#clipPath2)" stroke="none">gislab.img</text>
    </g>
    <g fill="url(#linearGradient15)" text-rendering="geometricPrecision" shape-rendering="geometricPrecision" transform="matrix(1,0,0,1,126,-258)" stroke="url(#linearGradient15)">
      <path d="M61.6952 406.3125 L126.7537 406.3125 L126.7537 434.3125 L61.6952 434.3125 Z" stroke="none" clip-path="url(#clipPath2)"/>
    </g>
    <g stroke-linecap="butt" transform="matrix(1,0,0,1,126,-258)" fill="rgb(153,204,255)" text-rendering="geometricPrecision" shape-rendering="geometricPrecision" stroke="rgb(153,204,255)" stroke-miterlimit="1.45">
      <path fill="none" d="M61.6952 406.3125 L126.7537 406.3125 L126.7537 434.3125 L61.6952 434.3125 Z" clip-path="url(#clipPath2)"/>
    </g>
    <g font-size="11px" stroke-linecap="butt" transform="matrix(1,0,0,1,126,-258)" text-rendering="geometricPrecision" font-family="sans-serif" shape-rendering="geometricPrecision" font-style="italic" stroke-miterlimit="1.45">
      <text x="65.8248" xml:space="preserve" y="424.1206" clip-path="url(#clipPath2)" stroke="none">gislab.img</text>
    </g>
    <g fill="url(#linearGradient16)" text-rendering="geometricPrecision" shape-rendering="geometricPrecision" transform="matrix(1,0,0,1,126,-258)" stroke="url(#linearGradient16)">
      <path d="M212.0538 317.0025 L300.6684 317.0025 L300.6684 345.0025 L212.0538 345.0025 Z" stroke="none" clip-path="url(#clipPath2)"/>
    </g>
    <g stroke-linecap="butt" transform="matrix(1,0,0,1,126,-258)" fill="rgb(153,204,255)" text-rendering="geometricPrecision" shape-rendering="geometricPrecision" stroke="rgb(153,204,255)" stroke-miterlimit="1.45">
      <path fill="none" d="M212.0538 317.0025 L300.6684 317.0025 L300.6684 345.0025 L212.0538 345.0025 Z" clip-path="url(#clipPath2)"/>
    </g>
    <g font-size="11px" stroke-linecap="butt" transform="matrix(1,0,0,1,126,-258)" text-rendering="geometricPrecision" font-family="sans-serif" shape-rendering="geometricPrecision" font-style="italic" stroke-miterlimit="1.45">
      <text x="214.8345" xml:space="preserve" y="334.8106" clip-path="url(#clipPath2)" stroke="none">&lt;root&gt;.tar.bz2</text>
    </g>
    <g fill="url(#linearGradient17)" text-rendering="geometricPrecision" shape-rendering="geometricPrecision" transform="matrix(1,0,0,1,126,-258)" stroke="url(#linearGradient17)">
      <path d="M140.093 406.3125 L220.093 406.3125 L220.093 434.3125 L140.093 434.3125 Z" stroke="none" clip-path="url(#clipPath2)"/>
    </g>
    <g stroke-linecap="butt" transform="matrix(1,0,0,1,126,-258)" fill="rgb(153,204,255)" text-rendering="geometricPrecision" shape-rendering="geometricPrecision" stroke="rgb(153,204,255)" stroke-miterlimit="1.45">
      <path fill="none" d="M140.093 406.3125 L220.093 406.3125 L220.093 434.3125 L140.093 434.3125 Z" clip-path="url(#clipPath2)"/>
    </g>
    <g font-size="11px" stroke-linecap="butt" transform="matrix(1,0,0,1,126,-258)" text-rendering="geometricPrecision" font-family="sans-serif" shape-rendering="geometricPrecision" font-style="italic" stroke-miterlimit="1.45">
      <text x="144.8291" xml:space="preserve" y="424.1206" clip-path="url(#clipPath2)" stroke="none">*.buildstamp</text>
    </g>
    <g fill="url(#linearGradient18)" text-rendering="geometricPrecision" shape-rendering="geometricPrecision" transform="matrix(1,0,0,1,126,-258)" stroke="url(#linearGradient18)">
      <path d="M-31.6442 407.3873 L48.3558 407.3873 L48.3558 435.3873 L-31.6442 435.3873 Z" stroke="none" clip-path="url(#clipPath2)"/>
    </g>
    <g stroke-linecap="butt" transform="matrix(1,0,0,1,126,-258)" fill="rgb(153,204,255)" text-rendering="geometricPrecision" shape-rendering="geometricPrecision" stroke="rgb(153,204,255)" stroke-miterlimit="1.45">
      <path fill="none" d="M-31.6442 407.3873 L48.3558 407.3873 L48.3558 435.3873 L-31.6442 435.3873 Z" clip-path="url(#clipPath2)"/>
    </g>
    <g font-size="11px" stroke-linecap="butt" transform="matrix(1,0,0,1,126,-258)" text-rendering="geometricPrecision" font-family="sans-serif" shape-rendering="geometricPrecision" font-style="italic" stroke-miterlimit="1.45">
      <text x="-26.9081" xml:space="preserve" y="425.1954" clip-path="url(#clipPath2)" stroke="none">*.buildstamp</text>
    </g>
    <g fill="url(#linearGradient19)" text-rendering="geometricPrecision" shape-rendering="geometricPrecision" transform="matrix(1,0,0,1,126,-258)" stroke="url(#linearGradient19)">
      <path d="M479.8916 360.3775 L549.8917 360.3775 L549.8917 388.3775 L469.8916 388.3775 L469.8916 370.3775 Z" stroke="none" clip-path="url(#clipPath2)"/>
    </g>
    <g stroke-linecap="butt" transform="matrix(1,0,0,1,126,-258)" fill="rgb(153,153,153)" text-rendering="geometricPrecision" shape-rendering="geometricPrecision" stroke="rgb(153,153,153)" stroke-miterlimit="1.45">
      <path fill="none" d="M479.8916 360.3775 L549.8917 360.3775 L549.8917 388.3775 L469.8916 388.3775 L469.8916 370.3775 Z" clip-path="url(#clipPath2)"/>
    </g>
    <g font-size="11px" stroke-linecap="butt" transform="matrix(1,0,0,1,126,-258)" text-rendering="geometricPrecision" font-family="sans-serif" shape-rendering="geometricPrecision" stroke-miterlimit="1.45">
      <text x="491.92" xml:space="preserve" y="378.1856" clip-path="url(#clipPath2)" stroke="none">clients</text>
    </g>
    <g fill="url(#linearGradient20)" text-rendering="geometricPrecision" shape-rendering="geometricPrecision" transform="matrix(1,0,0,1,126,-258)" stroke="url(#linearGradient20)">
      <path d="M524.0772 403.7525 L594.0772 403.7525 L594.0772 431.7525 L514.0772 431.7525 L514.0772 413.7525 Z" stroke="none" clip-path="url(#clipPath2)"/>
    </g>
    <g stroke-linecap="butt" transform="matrix(1,0,0,1,126,-258)" fill="rgb(153,153,153)" text-rendering="geometricPrecision" shape-rendering="geometricPrecision" stroke="rgb(153,153,153)" stroke-miterlimit="1.45">
      <path fill="none" d="M524.0772 403.7525 L594.0772 403.7525 L594.0772 431.7525 L514.0772 431.7525 L514.0772 413.7525 Z" clip-path="url(#clipPath2)"/>
    </g>
    <g font-size="11px" stroke-linecap="butt" transform="matrix(1,0,0,1,126,-258)" text-rendering="geometricPrecision" font-family="sans-serif" shape-rendering="geometricPrecision" stroke-miterlimit="1.45">
      <text x="542.7039" xml:space="preserve" y="421.5606" clip-path="url(#clipPath2)" stroke="none">web</text>
    </g>
    <g stroke-linecap="round" transform="matrix(1,0,0,1,126,-258)" stroke-dashoffset="2" fill="rgb(153,153,153)" text-rendering="geometricPrecision" shape-rendering="geometricPrecision" stroke-dasharray="0,4" stroke="rgb(153,153,153)" stroke-miterlimit="1.45">
      <path fill="none" d="M389.1475 345.0231 L389.1475 356.3596" clip-path="url(#clipPath2)"/>
    </g>
    <g stroke-linecap="round" transform="matrix(1,0,0,1,126,-258)" fill-opacity="0" stroke-dashoffset="2" fill="rgb(0,0,0)" text-rendering="geometricPrecision" shape-rendering="geometricPrecision" stroke-dasharray="0,4" stroke="rgb(0,0,0)" stroke-opacity="0" stroke-miterlimit="1.45">
      <path d="M389.1475 364.3596 C386.9384 364.3596 385.1475 362.5688 385.1475 360.3596 C385.1475 358.1505 386.9384 356.3596 389.1475 356.3596 C391.3566 356.3596 393.1475 358.1505 393.1475 360.3596 C393.1475 362.5688 391.3566 364.3596 389.1475 364.3596 Z" stroke="none" clip-path="url(#clipPath2)"/>
    </g>
    <g stroke-linecap="butt" transform="matrix(1,0,0,1,126,-258)" fill="rgb(153,153,153)" text-rendering="geometricPrecision" shape-rendering="geometricPrecision" stroke="rgb(153,153,153)" stroke-miterlimit="1.45">
      <path fill="none" d="M389.1475 364.3596 C386.9384 364.3596 385.1475 362.5688 385.1475 360.3596 C385.1475 358.1505 386.9384 356.3596 389.1475 356.3596 C391.3566 356.3596 393.1475 358.1505 393.1475 360.3596 C393.1475 362.5688 391.3566 364.3596 389.1475 364.3596 Z" clip-path="url(#clipPath2)"/>
      <path fill="none" d="M226.0649 296.168 L364.731 325.7871" clip-path="url(#clipPath2)"/>
      <path d="M368.6427 326.6227 L362.0725 319.0839 L363.753 325.5782 L359.5658 330.8192 Z" clip-path="url(#clipPath2)" stroke="none"/>
      <path fill="none" d="M435.4762 434.3195 L400.4464 450.5506" clip-path="url(#clipPath2)"/>
      <path d="M396.817 452.2322 L406.5982 454.313 L401.3537 450.1302 L401.5533 443.425 Z" clip-path="url(#clipPath2)" stroke="none"/>
    </g>
    <g stroke-linecap="round" transform="matrix(1,0,0,1,126,-258)" stroke-dashoffset="2" fill="red" text-rendering="geometricPrecision" shape-rendering="geometricPrecision" stroke-dasharray="0,4" stroke="red" stroke-miterlimit="1.45">
      <path fill="none" d="M233.9288 388.3768 L324.7657 458.4509" clip-path="url(#clipPath2)"/>
      <path d="M327.9328 460.8942 L325.2634 451.257 L323.9739 457.8401 L317.9337 460.7584 Z" clip-path="url(#clipPath2)" stroke="none"/>
      <rect x="265.6392" y="417.5563" clip-path="url(#clipPath2)" fill="white" width="34.0137" height="16.8047" stroke="none"/>
    </g>
    <g stroke-linecap="butt" font-size="11px" transform="matrix(1,0,0,1,126,-258)" fill="red" text-rendering="geometricPrecision" font-family="sans-serif" shape-rendering="geometricPrecision" stroke="red" font-weight="bold" stroke-miterlimit="1.45">
      <text x="267.6392" xml:space="preserve" y="429.7668" clip-path="url(#clipPath2)" stroke="none">cp/ln</text>
    </g>
    <g stroke-linecap="round" transform="matrix(1,0,0,1,126,-258)" stroke-dashoffset="2" fill="red" text-rendering="geometricPrecision" shape-rendering="geometricPrecision" stroke-dasharray="0,4" stroke="red" stroke-miterlimit="1.45">
      <path fill="none" d="M370.1323 452.2371 L292.1156 390.8469" clip-path="url(#clipPath2)"/>
      <path d="M288.9721 388.3734 L291.5487 398.0357 L292.9014 391.4653 L298.9694 388.6053 Z" clip-path="url(#clipPath2)" stroke="none"/>
      <rect x="320.3642" y="411.9102" clip-path="url(#clipPath2)" fill="white" width="18.3945" height="16.8047" stroke="none"/>
    </g>
    <g stroke-linecap="butt" font-size="11px" transform="matrix(1,0,0,1,126,-258)" fill="red" text-rendering="geometricPrecision" font-family="sans-serif" shape-rendering="geometricPrecision" stroke="red" font-weight="bold" stroke-miterlimit="1.45">
      <text x="322.3642" xml:space="preserve" y="424.1206" clip-path="url(#clipPath2)" stroke="none">cp</text>
    </g>
    <g stroke-linecap="butt" transform="matrix(1,0,0,1,126,-258)" fill="rgb(153,153,153)" text-rendering="geometricPrecision" shape-rendering="geometricPrecision" stroke="rgb(153,153,153)" stroke-miterlimit="1.45">
      <path fill="none" d="M465.7061 434.3532 L465.7061 448.2626" clip-path="url(#clipPath2)"/>
      <path d="M465.7061 452.2626 L471.7061 444.2626 L465.7061 447.2626 L459.7061 444.2626 Z" clip-path="url(#clipPath2)" stroke="none"/>
      <path fill="none" d="M425.6738 466.2475 L410.5977 466.2475" clip-path="url(#clipPath2)"/>
    </g>
    <g stroke-linecap="butt" transform="matrix(1,0,0,1,126,-258)" fill-opacity="0" fill="rgb(0,0,0)" text-rendering="geometricPrecision" shape-rendering="geometricPrecision" stroke="rgb(0,0,0)" stroke-opacity="0" stroke-miterlimit="1.45">
      <path d="M402.5977 466.2475 C402.5977 464.0384 404.3885 462.2475 406.5977 462.2475 C408.8068 462.2475 410.5977 464.0384 410.5977 466.2475 C410.5977 468.4566 408.8068 470.2475 406.5977 470.2475 C404.3885 470.2475 402.5977 468.4566 402.5977 466.2475 Z" stroke="none" clip-path="url(#clipPath2)"/>
    </g>
    <g stroke-linecap="butt" transform="matrix(1,0,0,1,126,-258)" fill="rgb(153,153,153)" text-rendering="geometricPrecision" shape-rendering="geometricPrecision" stroke="rgb(153,153,153)" stroke-miterlimit="1.45">
      <path fill="none" d="M402.5977 466.2475 C402.5977 464.0384 404.3885 462.2475 406.5977 462.2475 C408.8068 462.2475 410.5977 464.0384 410.5977 466.2475 C410.5977 468.4566 408.8068 470.2475 406.5977 470.2475 C404.3885 470.2475 402.5977 468.4566 402.5977 466.2475 Z" clip-path="url(#clipPath2)"/>
      <path fill="none" d="M350.8435 480.2657 L333.7243 495.5261" clip-path="url(#clipPath2)"/>
      <path d="M330.7384 498.1877 L340.7027 497.3433 L334.4708 494.8607 L332.7177 488.3856 Z" clip-path="url(#clipPath2)" stroke="none"/>
      <path fill="none" d="M387.9796 480.2657 L411.9817 495.981" clip-path="url(#clipPath2)"/>
      <path d="M415.3282 498.1722 L411.9219 488.7702 L411.1451 495.4333 L405.3485 498.8097 Z" clip-path="url(#clipPath2)" stroke="none"/>
      <path fill="none" d="M146.0873 296.4724 L-28.7652 316.5503" clip-path="url(#clipPath2)"/>
      <path d="M-32.739 317.0066 L-24.1068 322.0548 L-27.7717 316.4362 L-25.4757 310.1331 Z" clip-path="url(#clipPath2)" stroke="none"/>
      <path fill="none" stroke-dasharray="0,4" d="M-34.5469 345.0231 L-34.5469 356.3596" stroke-dashoffset="2" clip-path="url(#clipPath2)" stroke-linecap="round"/>
    </g>
    <g stroke-linecap="round" transform="matrix(1,0,0,1,126,-258)" fill-opacity="0" stroke-dashoffset="2" fill="rgb(0,0,0)" text-rendering="geometricPrecision" shape-rendering="geometricPrecision" stroke-dasharray="0,4" stroke="rgb(0,0,0)" stroke-opacity="0" stroke-miterlimit="1.45">
      <path d="M-34.5469 364.3596 C-36.756 364.3596 -38.5469 362.5688 -38.5469 360.3596 C-38.5469 358.1505 -36.756 356.3596 -34.5469 356.3596 C-32.3377 356.3596 -30.5469 358.1505 -30.5469 360.3596 C-30.5469 362.5688 -32.3377 364.3596 -34.5469 364.3596 Z" stroke="none" clip-path="url(#clipPath2)"/>
    </g>
    <g stroke-linecap="butt" transform="matrix(1,0,0,1,126,-258)" fill="rgb(153,153,153)" text-rendering="geometricPrecision" shape-rendering="geometricPrecision" stroke="rgb(153,153,153)" stroke-miterlimit="1.45">
      <path fill="none" d="M-34.5469 364.3596 C-36.756 364.3596 -38.5469 362.5688 -38.5469 360.3596 C-38.5469 358.1505 -36.756 356.3596 -34.5469 356.3596 C-32.3377 356.3596 -30.5469 358.1505 -30.5469 360.3596 C-30.5469 362.5688 -32.3377 364.3596 -34.5469 364.3596 Z" clip-path="url(#clipPath2)"/>
      <path fill="none" d="M165.6001 301.627 L146.428 314.7317" clip-path="url(#clipPath2)"/>
      <path d="M143.1257 316.9889 L153.1161 317.4279 L147.2536 314.1674 L146.3445 307.521 Z" clip-path="url(#clipPath2)" stroke="none"/>
      <path fill="none" stroke-dasharray="0,4" d="M122.6239 345.0231 L122.6239 356.3596" stroke-dashoffset="2" clip-path="url(#clipPath2)" stroke-linecap="round"/>
    </g>
    <g stroke-linecap="round" transform="matrix(1,0,0,1,126,-258)" fill-opacity="0" stroke-dashoffset="2" fill="rgb(0,0,0)" text-rendering="geometricPrecision" shape-rendering="geometricPrecision" stroke-dasharray="0,4" stroke="rgb(0,0,0)" stroke-opacity="0" stroke-miterlimit="1.45">
      <path d="M122.6239 364.3596 C120.4148 364.3596 118.6239 362.5688 118.6239 360.3596 C118.6239 358.1505 120.4148 356.3596 122.6239 356.3596 C124.833 356.3596 126.6239 358.1505 126.6239 360.3596 C126.6239 362.5688 124.833 364.3596 122.6239 364.3596 Z" stroke="none" clip-path="url(#clipPath2)"/>
    </g>
    <g stroke-linecap="butt" transform="matrix(1,0,0,1,126,-258)" fill="rgb(153,153,153)" text-rendering="geometricPrecision" shape-rendering="geometricPrecision" stroke="rgb(153,153,153)" stroke-miterlimit="1.45">
      <path fill="none" d="M122.6239 364.3596 C120.4148 364.3596 118.6239 362.5688 118.6239 360.3596 C118.6239 358.1505 120.4148 356.3596 122.6239 356.3596 C124.833 356.3596 126.6239 358.1505 126.6239 360.3596 C126.6239 362.5688 124.833 364.3596 122.6239 364.3596 Z" clip-path="url(#clipPath2)"/>
      <path fill="none" d="M-52.4168 388.3871 L-73.5356 404.9439" clip-path="url(#clipPath2)"/>
      <path d="M-76.6835 407.4118 L-66.6858 407.1978 L-72.7486 404.3269 L-74.0896 397.7541 Z" clip-path="url(#clipPath2)" stroke="none"/>
      <path fill="none" d="M111.4354 388.398 L99.645 403.1729" clip-path="url(#clipPath2)"/>
      <path d="M97.15 406.2995 L106.8297 403.7889 L100.2687 402.3913 L97.4501 396.304 Z" clip-path="url(#clipPath2)" stroke="none"/>
      <path fill="none" d="M218.5229 301.6316 L235.1321 314.524" clip-path="url(#clipPath2)"/>
      <path d="M238.2919 316.9767 L235.6514 307.3317 L234.3421 313.9109 L228.2933 316.811 Z" clip-path="url(#clipPath2)" stroke="none"/>
    </g>
    <g stroke-linecap="round" transform="matrix(1,0,0,1,126,-258)" stroke-dashoffset="2" fill="red" text-rendering="geometricPrecision" shape-rendering="geometricPrecision" stroke-dasharray="0,4" stroke="red" stroke-miterlimit="1.45">
      <path fill="none" d="M428.2343 454.1061 L292.2618 347.4943" clip-path="url(#clipPath2)"/>
      <path d="M431.3821 456.5742 L428.7887 446.9163 L427.4474 453.4891 L421.3844 456.3597 Z" clip-path="url(#clipPath2)" stroke="none"/>
      <path d="M289.114 345.0262 L291.7075 354.6841 L293.0488 348.1113 L299.1118 345.2407 Z" clip-path="url(#clipPath2)" stroke="none"/>
      <rect x="337.0027" y="382.8381" clip-path="url(#clipPath2)" fill="white" width="22.106" height="16.8047" stroke="none"/>
    </g>
    <g stroke-linecap="butt" font-size="11px" transform="matrix(1,0,0,1,126,-258)" fill="red" text-rendering="geometricPrecision" font-family="sans-serif" shape-rendering="geometricPrecision" stroke="red" font-weight="bold" stroke-miterlimit="1.45">
      <text x="339.0027" xml:space="preserve" y="395.0486" clip-path="url(#clipPath2)" stroke="none">tar</text>
    </g>
    <g stroke-linecap="round" transform="matrix(1,0,0,1,126,-258)" stroke-dashoffset="2" fill="rgb(153,153,153)" text-rendering="geometricPrecision" shape-rendering="geometricPrecision" stroke-dasharray="0,4" stroke="rgb(153,153,153)" stroke-miterlimit="1.45">
      <path fill="none" d="M256.3611 345.0231 L256.3611 356.3596" clip-path="url(#clipPath2)"/>
    </g>
    <g stroke-linecap="round" transform="matrix(1,0,0,1,126,-258)" fill-opacity="0" stroke-dashoffset="2" fill="rgb(0,0,0)" text-rendering="geometricPrecision" shape-rendering="geometricPrecision" stroke-dasharray="0,4" stroke="rgb(0,0,0)" stroke-opacity="0" stroke-miterlimit="1.45">
      <path d="M256.3611 364.3596 C254.1519 364.3596 252.3611 362.5688 252.3611 360.3596 C252.3611 358.1505 254.1519 356.3596 256.3611 356.3596 C258.5702 356.3596 260.3611 358.1505 260.3611 360.3596 C260.3611 362.5688 258.5702 364.3596 256.3611 364.3596 Z" stroke="none" clip-path="url(#clipPath2)"/>
    </g>
    <g stroke-linecap="butt" transform="matrix(1,0,0,1,126,-258)" fill="rgb(153,153,153)" text-rendering="geometricPrecision" shape-rendering="geometricPrecision" stroke="rgb(153,153,153)" stroke-miterlimit="1.45">
      <path fill="none" d="M256.3611 364.3596 C254.1519 364.3596 252.3611 362.5688 252.3611 360.3596 C252.3611 358.1505 254.1519 356.3596 256.3611 356.3596 C258.5702 356.3596 260.3611 358.1505 260.3611 360.3596 C260.3611 362.5688 258.5702 364.3596 256.3611 364.3596 Z" clip-path="url(#clipPath2)"/>
      <path fill="none" d="M140.1621 388.3958 L159.4597 403.8203" clip-path="url(#clipPath2)"/>
      <path d="M162.5842 406.3177 L160.0813 396.636 L158.6786 403.196 L152.589 406.0097 Z" clip-path="url(#clipPath2)" stroke="none"/>
      <path fill="none" d="M-21.7892 388.3565 L-7.1463 404.4011" clip-path="url(#clipPath2)"/>
      <path d="M-4.4499 407.3557 L-5.4109 397.4019 L-7.8204 403.6625 L-14.2746 405.4911 Z" clip-path="url(#clipPath2)" stroke="none"/>
      <path fill="none" d="M496.4073 388.3958 L481.9409 403.435" clip-path="url(#clipPath2)"/>
      <path d="M479.1678 406.3177 L489.038 404.7117 L482.6341 402.7143 L480.3897 396.3927 Z" clip-path="url(#clipPath2)" stroke="none"/>
      <path fill="none" d="M524.1527 388.377 L536.9326 400.9224" clip-path="url(#clipPath2)"/>
      <path d="M539.787 403.7245 L538.2814 393.8386 L536.219 400.2219 L529.8749 402.4019 Z" clip-path="url(#clipPath2)" stroke="none"/>
    </g>
  </g>
</svg>
